{"glyphs":{"0":{"ha":985,"x_min":0,"x_max":0,"o":"m 947 618 l 947 617 b 831 906 936 738 897 834 b 617 1031 765 977 694 1019 b 594 1033 609 1031 602 1032 b 572 1033 587 1033 580 1033 b 504 1024 549 1032 526 1029 b 440 999 482 1018 461 1010 l 249 885 b 91 709 175 841 122 783 b 44 475 60 635 44 557 b 45 453 44 468 45 460 b 46 431 46 445 46 438 b 57 340 48 400 51 370 b 78 253 63 311 69 281 b 200 57 105 162 145 97 b 376 -3 255 17 313 -3 b 395 -2 383 -3 389 -3 b 414 0 401 -2 407 -1 b 489 15 439 2 464 7 b 561 49 514 24 538 35 l 746 151 b 903 316 820 193 872 248 b 950 542 934 384 950 459 b 949 578 950 554 950 566 b 946 615 949 590 948 602 z m 242 351 l 242 350 b 225 439 234 378 229 407 b 219 533 221 470 219 502 l 219 536 l 219 539 b 251 754 220 615 231 687 b 333 892 271 822 298 868 b 365 903 341 896 351 900 b 413 907 379 906 395 907 b 475 902 432 907 453 905 b 543 886 497 899 520 894 b 653 832 581 874 618 856 b 736 739 688 808 716 777 b 767 638 751 710 761 677 b 776 519 773 600 776 560 l 776 508 l 776 494 b 761 347 775 444 769 394 b 735 228 753 299 744 259 b 719 187 729 211 724 197 b 706 167 714 176 709 169 b 620 132 679 152 650 140 b 529 119 590 124 560 119 b 355 176 467 119 409 138 b 242 353 301 213 263 272 z "},"1":{"ha":600,"x_min":0,"x_max":0,"o":"m 363 1010 l 363 1010 l 354 1008 b 332 992 346 1003 338 997 b 313 978 325 987 319 982 b 293 962 306 972 300 967 b 271 946 287 957 279 951 b 260 938 267 943 263 941 b 250 931 256 936 253 933 b 212 905 236 921 223 913 b 186 883 200 897 192 890 b 163 847 181 876 173 864 b 132 792 152 829 142 811 b 131 790 131 791 131 790 l 131 789 b 123 776 128 784 125 780 b 115 763 121 772 118 767 b 101 738 111 754 106 746 b 85 717 96 730 90 723 b 49 670 72 699 60 684 b 35 640 39 657 34 647 l 35 638 b 36 636 35 638 35 637 b 38 635 37 635 38 635 l 40 635 b 60 646 45 635 51 638 b 86 671 68 653 77 662 b 92 678 88 674 90 676 l 97 683 l 108 697 b 118 710 112 702 115 706 b 127 721 121 713 124 717 b 138 732 130 725 134 728 l 138 733 b 139 733 138 733 138 733 b 168 769 149 746 159 758 b 183 789 177 779 182 786 l 172 106 l 163 96 l 154 88 b 152 87 153 88 153 87 b 151 85 152 86 151 86 l 141 74 b 129 64 138 71 134 68 l 126 60 b 121 57 124 59 123 58 b 111 51 118 55 115 53 b 100 43 107 48 104 46 b 69 22 89 36 79 29 b 61 7 60 16 57 11 b 72 2 64 4 67 3 b 83 1 76 2 80 1 l 92 1 b 100 3 94 1 97 2 l 313 -6 l 319 -6 l 325 -6 b 367 -2 340 -6 354 -4 b 404 8 380 0 392 4 b 433 21 413 12 423 16 b 463 36 442 25 452 31 l 472 41 b 481 46 475 42 478 44 b 509 65 491 52 500 59 b 533 83 518 71 526 77 b 549 97 539 88 544 93 l 564 113 b 540 110 556 112 548 111 b 518 108 533 109 525 108 b 496 107 511 107 503 107 l 472 107 b 437 108 459 107 447 107 b 406 110 426 108 416 109 b 377 115 396 112 387 113 b 346 121 367 116 357 118 l 358 832 z "},"2":{"ha":918,"x_min":0,"x_max":0,"o":"m 290 728 l 290 726 l 290 730 l 290 738 b 289 750 289 741 289 745 l 289 765 b 290 791 289 774 289 782 b 292 818 290 800 291 809 b 305 884 294 842 298 864 b 339 913 312 904 323 913 l 339 913 l 340 913 l 340 913 l 340 913 b 388 901 352 912 368 908 b 447 869 407 894 427 883 b 526 799 476 852 502 828 b 572 692 550 769 566 733 l 572 690 l 572 689 l 572 687 l 572 685 b 562 644 572 674 569 660 b 535 593 555 628 546 611 b 509 557 527 581 519 569 b 479 525 499 545 489 534 l 333 381 b 303 353 331 378 321 369 b 249 301 286 338 268 321 l 238 290 l 226 279 b 211 263 221 274 216 268 b 197 247 206 258 202 253 b 173 219 190 238 182 228 b 147 189 164 209 156 199 b 138 178 144 185 140 182 b 129 168 135 175 132 172 b 71 93 107 142 88 117 b 46 36 54 69 46 50 b 47 31 46 34 46 32 l 50 25 b 58 22 52 23 55 22 b 71 21 62 21 66 21 l 80 21 b 89 22 83 21 86 21 l 94 22 l 99 22 l 109 22 l 118 22 l 120 22 l 122 22 l 123 22 l 125 22 b 151 19 134 21 143 20 b 175 18 159 19 167 18 b 198 15 182 17 190 16 b 224 14 206 14 214 14 l 418 -3 b 458 -6 432 -5 445 -6 b 496 -7 471 -7 484 -7 b 554 -4 516 -7 536 -6 b 610 4 573 -2 591 0 b 671 23 630 9 650 15 b 735 51 691 31 713 40 b 758 64 742 55 750 59 l 783 78 b 801 89 789 81 795 85 b 819 101 807 93 813 97 b 867 138 838 113 854 125 b 883 164 881 150 886 158 b 867 159 882 166 877 164 b 825 142 856 154 843 148 b 769 126 809 136 791 131 b 699 118 748 122 725 119 l 678 118 l 658 118 b 615 119 644 118 629 118 b 575 121 601 119 588 120 b 522 127 557 123 540 125 b 464 136 505 129 485 132 l 293 158 b 303 181 297 167 300 174 b 314 200 307 187 310 194 l 322 214 b 332 229 325 219 328 224 b 338 240 334 233 336 236 b 346 249 341 243 343 246 b 356 261 350 253 353 257 b 365 272 359 265 363 269 b 396 304 376 284 387 295 b 413 322 405 313 411 319 l 533 442 b 577 485 544 453 559 467 b 635 543 595 502 614 522 b 710 643 662 574 687 607 b 751 753 733 679 747 716 b 753 766 752 757 753 762 l 753 778 l 753 785 b 751 792 753 788 752 790 b 719 881 749 822 738 852 b 644 958 700 910 675 936 b 582 997 624 973 603 986 b 517 1021 561 1008 539 1016 b 501 1023 512 1022 507 1022 b 485 1024 496 1023 490 1024 b 443 1017 471 1024 457 1022 b 401 1000 429 1013 415 1007 l 243 899 b 238 896 241 898 240 897 b 235 893 237 895 236 894 b 190 856 217 881 202 869 b 157 808 178 843 167 827 b 154 805 156 807 155 806 b 151 800 153 803 152 802 b 136 768 146 790 141 779 b 125 735 131 757 128 746 b 117 690 121 720 119 705 b 114 649 115 675 114 662 b 115 622 114 639 114 631 b 118 599 116 614 117 606 b 138 611 125 603 132 607 b 156 622 144 615 150 619 b 163 627 158 624 161 626 b 171 632 166 628 168 630 b 191 647 177 637 184 641 b 213 663 198 652 205 657 b 230 676 219 667 225 672 b 244 688 235 680 240 684 b 249 691 246 688 248 690 l 254 696 b 272 710 260 700 266 705 b 290 728 278 716 284 721 z "},"3":{"ha":831,"x_min":0,"x_max":0,"o":"m 464 1039 l 464 1038 b 414 1033 445 1038 429 1036 b 369 1019 399 1031 384 1026 b 349 1008 363 1016 356 1012 b 326 996 341 1005 334 1000 l 188 900 b 174 891 183 897 178 894 b 161 882 169 888 165 885 b 133 860 151 875 142 868 b 110 829 125 851 117 841 b 99 810 106 824 103 817 b 92 790 96 803 94 797 b 82 753 87 777 84 765 b 79 725 80 741 79 731 l 79 688 l 79 682 l 79 675 b 81 666 80 672 81 669 b 82 658 81 663 81 660 b 83 653 82 656 82 655 l 83 651 b 97 651 87 649 92 649 b 115 663 103 654 109 658 l 117 665 l 118 665 b 126 671 121 667 123 669 b 132 676 128 673 130 675 l 189 713 b 195 716 191 713 193 715 b 201 721 197 717 200 719 b 204 722 202 721 203 721 b 207 724 205 723 206 724 b 223 735 213 727 218 731 b 232 746 228 740 231 743 l 232 747 b 233 749 232 747 232 748 l 233 751 l 233 753 b 233 764 233 756 233 759 b 232 779 232 769 232 774 b 230 797 231 785 230 791 b 229 815 229 803 229 809 l 229 824 b 231 833 229 828 230 831 b 240 876 231 848 235 862 b 268 908 246 889 255 900 b 295 919 276 913 285 916 b 325 922 305 921 315 922 b 351 920 333 922 342 922 b 379 914 361 919 370 917 b 485 848 418 902 453 880 b 535 742 517 816 534 781 b 517 633 536 699 530 663 b 411 561 504 604 469 580 b 393 557 406 559 400 558 b 372 556 387 556 380 556 b 346 553 363 555 354 554 b 324 553 338 553 330 553 l 310 553 l 304 553 b 287 541 298 549 292 545 b 271 531 282 537 276 533 b 255 519 265 527 260 523 b 238 507 250 516 244 512 b 226 499 234 504 230 502 b 214 492 222 497 218 494 b 212 491 213 492 212 491 l 210 489 b 177 468 198 481 187 475 b 165 454 167 462 163 457 b 173 451 167 453 170 452 b 188 451 176 450 181 450 l 209 451 b 235 453 217 451 225 452 l 365 451 b 551 408 444 451 506 437 b 618 279 597 380 619 337 l 618 276 l 618 274 l 618 271 l 618 268 l 618 266 l 618 264 b 590 154 615 224 606 188 b 490 103 575 121 541 104 l 490 103 l 488 103 l 485 103 l 485 103 b 447 106 473 103 460 104 b 407 114 434 107 421 110 b 355 130 389 119 372 124 b 306 150 338 136 321 143 b 242 180 281 160 259 170 b 214 197 225 190 216 195 l 158 231 l 56 129 l 54 128 b 53 126 53 128 53 127 l 52 126 l 50 124 b 42 114 47 121 44 118 b 39 101 39 110 38 106 b 46 90 40 97 42 93 b 57 82 50 86 53 84 l 59 80 b 61 81 59 79 60 80 l 128 42 b 146 32 133 39 139 36 b 168 22 152 28 160 25 b 245 -5 190 12 216 3 b 335 -19 274 -13 304 -18 l 340 -19 b 344 -21 341 -19 343 -20 l 349 -21 l 353 -21 b 401 -14 370 -21 386 -19 b 443 3 415 -9 429 -4 b 467 17 451 7 459 12 b 492 35 475 22 483 28 l 688 163 b 767 242 723 185 749 211 b 793 347 784 272 793 307 l 793 353 l 793 358 b 726 499 790 416 768 463 b 578 563 685 535 635 556 l 518 568 l 564 597 b 588 616 570 602 578 608 b 617 644 597 624 606 633 b 667 718 635 665 652 689 b 689 807 681 747 689 776 l 689 808 l 689 810 b 622 967 688 871 666 923 b 464 1035 578 1010 525 1033 z "},"4":{"ha":1056,"x_min":0,"x_max":0,"o":"m 1017 426 l 1017 425 b 1001 419 1011 423 1006 421 b 986 413 996 416 991 414 b 968 408 980 411 974 409 l 949 403 b 928 398 941 401 934 399 b 910 394 922 397 916 395 b 889 392 903 394 896 393 b 865 393 881 392 874 392 l 710 393 l 710 1007 l 710 1013 l 710 1019 b 708 1033 710 1024 709 1028 b 697 1043 706 1037 703 1040 l 697 1043 l 694 1043 b 683 1039 692 1043 688 1042 b 668 1031 679 1036 674 1033 b 660 1026 665 1029 663 1027 b 653 1024 658 1024 656 1024 l 564 969 b 553 964 562 969 559 967 b 538 954 548 961 543 958 b 526 945 534 951 530 948 b 517 935 523 942 519 938 b 451 835 509 924 488 891 b 328 657 415 780 374 721 b 319 644 325 652 322 648 b 308 631 316 640 312 635 b 294 613 304 625 299 619 b 281 596 290 607 285 601 b 100 392 214 512 154 444 b 40 306 46 340 26 311 b 97 297 50 302 69 299 b 188 290 124 294 154 292 b 203 290 193 290 198 290 b 219 289 209 289 214 289 b 253 287 231 288 242 287 b 286 285 264 286 275 286 b 347 281 308 284 328 283 b 400 278 365 280 382 279 b 453 274 418 276 435 275 b 514 272 472 273 492 272 l 513 58 l 513 50 l 513 42 b 511 32 512 38 511 35 l 511 24 b 514 4 511 16 512 10 b 522 -6 516 -1 519 -5 l 524 -6 l 526 -6 b 541 -3 531 -6 536 -5 b 557 3 546 -1 551 1 b 559 3 558 3 559 3 b 561 4 559 4 560 4 l 567 7 b 572 11 569 8 570 9 l 703 72 l 707 272 b 784 279 736 272 761 275 b 851 300 807 284 829 291 b 886 317 863 305 874 310 b 922 339 898 323 910 331 b 935 347 927 342 931 344 b 946 354 938 350 942 352 b 969 374 954 361 962 367 b 992 394 977 380 984 387 b 1003 408 995 399 999 403 b 1014 422 1006 412 1010 417 z m 513 399 l 513 397 b 466 399 496 397 480 398 b 424 400 452 400 438 400 b 381 403 410 401 396 402 b 335 407 367 405 351 406 b 297 410 321 408 308 409 b 263 414 285 411 274 412 b 228 417 251 415 240 416 b 190 422 217 419 204 420 b 228 461 204 436 217 449 l 261 497 l 262 498 b 264 499 262 498 263 499 b 298 535 275 511 286 523 b 336 576 309 548 322 562 b 384 628 354 595 370 612 b 426 674 398 644 413 659 b 469 719 440 688 454 704 b 517 772 483 735 499 753 l 510 401 z "},"5":{"ha":831,"x_min":0,"x_max":0,"o":"m 333 668 l 333 668 l 333 919 l 511 915 b 554 917 527 915 541 916 b 592 924 567 919 580 921 b 619 932 601 926 610 929 b 646 943 628 935 637 938 b 710 978 669 953 690 965 b 761 1017 729 991 746 1004 b 772 1027 765 1020 769 1024 b 782 1038 776 1030 779 1034 b 714 1027 757 1034 734 1030 b 654 1021 694 1024 674 1022 b 594 1017 635 1019 615 1018 b 526 1015 574 1016 551 1015 b 463 1017 503 1015 482 1016 b 406 1019 443 1018 424 1019 b 350 1026 387 1021 369 1023 b 289 1035 331 1028 311 1031 b 273 1022 283 1030 278 1026 b 258 1011 268 1019 263 1015 b 253 1008 256 1010 255 1009 b 247 1004 251 1006 249 1005 b 235 995 244 1001 239 998 b 221 986 230 992 225 989 b 203 976 214 982 209 979 b 188 965 198 972 193 969 b 181 962 186 964 184 963 b 174 958 179 960 176 959 b 162 951 170 956 166 953 b 149 946 158 950 153 948 l 149 547 l 232 543 b 266 542 243 543 254 543 b 300 539 278 541 289 540 b 508 471 376 530 445 507 b 601 304 570 435 601 379 l 601 301 l 601 299 b 558 164 600 239 586 194 b 433 115 531 133 489 117 l 431 115 l 431 115 l 428 115 l 426 115 b 403 116 419 115 411 116 b 379 119 394 116 387 118 b 310 133 356 122 333 127 b 249 154 288 140 267 147 b 191 178 225 163 206 171 b 167 193 176 186 168 191 l 42 71 b 69 51 51 63 60 57 b 96 35 79 45 88 39 b 158 9 116 24 137 15 b 228 -4 178 3 202 -1 b 260 -8 239 -6 250 -7 b 289 -8 270 -8 280 -8 b 326 -6 302 -8 314 -7 b 361 1 338 -4 350 -1 b 388 12 370 4 379 8 b 415 28 397 16 406 21 l 653 179 b 753 267 694 205 727 234 b 790 388 779 299 791 339 b 684 577 789 471 754 534 b 453 658 614 620 537 647 b 428 660 444 659 436 660 b 404 664 421 661 413 662 z "},"6":{"ha":842,"x_min":0,"x_max":0,"o":"m 324 875 l 324 874 b 369 897 338 884 353 892 b 419 910 386 903 403 907 b 447 913 429 912 438 913 b 475 914 456 914 466 914 b 523 911 492 914 508 913 b 565 906 538 909 552 907 b 600 900 579 904 591 902 b 619 897 609 898 616 897 l 619 897 l 621 897 l 621 897 l 621 897 b 649 909 632 900 641 904 b 669 925 656 914 663 919 l 678 933 b 686 940 681 936 683 938 b 693 946 689 942 691 944 b 700 951 695 948 697 950 b 717 965 706 956 712 960 b 732 976 722 969 727 973 b 738 981 734 978 736 980 b 743 986 739 983 741 984 b 758 999 748 990 753 994 b 774 1014 763 1003 768 1008 b 747 1019 764 1016 756 1017 b 722 1022 739 1020 731 1021 b 694 1026 713 1024 703 1025 b 661 1028 684 1027 673 1028 l 655 1028 l 649 1028 b 224 839 481 1028 339 965 b 43 401 108 713 48 567 l 43 397 l 43 393 l 43 388 l 43 383 b 94 162 43 302 60 228 b 267 19 128 96 185 48 b 320 6 285 13 303 8 b 371 1 337 3 354 1 b 483 26 410 1 447 9 b 582 99 519 42 552 66 l 736 258 b 796 357 766 290 786 323 b 811 468 806 391 811 428 b 740 647 811 538 788 598 b 550 724 693 696 630 722 l 547 724 l 542 724 b 385 685 481 724 428 711 b 263 583 342 660 301 626 b 250 569 258 579 254 574 b 238 557 246 565 242 561 l 171 478 l 171 480 l 171 486 b 177 569 171 500 173 528 b 207 700 181 610 191 654 b 253 799 218 734 233 767 b 326 881 272 831 297 858 z m 349 197 l 349 196 b 277 247 323 208 299 225 b 222 315 255 268 237 291 b 196 368 211 333 202 350 b 186 414 189 386 186 401 l 186 420 b 188 426 186 422 187 425 b 198 452 189 435 193 443 b 218 479 203 461 210 470 b 306 547 239 504 269 527 b 426 578 344 568 384 578 b 468 574 440 578 454 576 b 510 560 482 571 496 566 b 513 558 511 559 512 558 b 518 556 515 557 516 556 b 622 472 555 537 590 509 b 685 353 655 434 675 394 b 687 336 686 347 686 342 b 688 319 687 331 688 325 b 683 285 688 307 686 296 b 671 253 681 274 676 263 b 597 184 655 221 630 198 b 488 163 563 170 526 163 b 467 163 481 163 474 163 b 447 165 460 164 454 164 b 396 176 430 167 413 171 b 347 194 379 181 363 187 z "},"7":{"ha":857,"x_min":0,"x_max":0,"o":"m 303 111 l 303 110 b 385 269 316 133 343 186 b 526 535 428 352 475 440 b 549 576 534 549 541 562 b 571 615 556 589 563 602 b 600 669 580 633 590 651 b 631 721 610 687 620 704 b 678 799 648 750 664 776 b 721 868 693 823 707 846 b 724 874 722 870 723 872 b 728 881 726 877 727 879 b 772 949 743 903 757 925 b 821 1025 787 972 803 997 b 791 1022 810 1024 800 1023 b 764 1019 782 1021 773 1020 b 735 1018 755 1019 745 1019 b 703 1017 726 1017 715 1017 l 687 1017 l 671 1017 b 657 1015 666 1016 662 1015 l 643 1015 l 638 1015 l 632 1015 b 601 1016 622 1015 612 1016 b 568 1019 591 1016 580 1018 l 336 1033 l 327 1033 b 317 1035 324 1033 320 1034 l 308 1035 l 297 1035 b 242 1032 278 1035 259 1034 b 200 1022 225 1030 211 1027 b 152 1000 183 1016 167 1008 b 111 974 137 992 123 983 b 58 929 88 958 70 943 b 40 904 45 915 39 907 b 43 902 41 903 42 903 b 46 901 44 902 45 901 b 58 905 49 901 53 903 b 78 911 64 907 70 909 b 102 917 85 913 93 915 b 129 921 111 920 120 921 l 144 921 l 158 921 l 178 921 b 197 919 184 921 191 920 b 231 918 208 919 220 919 b 269 917 243 917 256 917 l 621 893 l 257 182 l 150 -24 b 169 -8 157 -18 164 -13 b 188 4 175 -4 181 0 l 191 8 b 196 11 192 9 194 10 l 215 28 b 236 46 222 33 229 39 b 245 54 239 49 242 51 b 256 63 248 57 252 60 l 256 63 b 257 64 257 63 257 63 b 286 89 267 72 277 81 b 304 108 295 97 301 104 z "},"8":{"ha":924,"x_min":0,"x_max":0,"o":"m 629 600 l 629 600 l 692 644 b 778 719 724 668 753 693 b 814 811 803 746 815 777 l 814 816 l 814 819 b 731 981 809 891 781 944 b 564 1033 680 1017 624 1034 b 517 1030 548 1033 532 1032 b 469 1019 501 1028 485 1024 l 258 944 b 149 870 213 929 176 904 b 101 746 121 836 105 795 l 101 743 l 101 740 l 101 738 l 101 735 b 129 653 101 703 111 676 b 189 596 148 630 168 611 b 238 570 206 585 223 576 b 271 561 253 564 264 561 l 218 531 b 93 425 170 504 128 469 b 40 282 58 381 40 334 b 45 240 40 268 42 254 b 60 196 48 225 53 211 b 72 174 63 188 67 181 b 86 153 76 167 81 160 b 215 42 121 106 164 69 b 371 -3 265 15 317 0 l 381 -3 l 392 -3 l 406 -3 b 421 -1 411 -3 416 -2 b 479 8 440 0 460 3 b 535 31 499 13 517 20 l 753 140 b 830 205 784 156 810 178 b 872 289 850 232 864 260 b 880 321 876 300 878 311 b 882 351 881 331 882 341 b 824 506 881 422 862 473 b 685 581 786 538 739 563 z m 288 213 l 288 211 b 263 242 278 221 270 231 b 244 274 256 252 250 263 b 226 326 236 291 230 309 b 219 375 222 343 219 359 b 251 483 219 416 230 452 b 324 539 272 514 296 532 b 333 540 326 540 329 540 l 343 540 b 360 540 349 540 354 540 b 379 536 366 539 373 538 b 388 535 382 536 385 536 b 397 533 391 534 394 533 l 556 479 b 650 413 595 466 627 444 b 685 304 673 381 685 345 l 685 299 l 685 294 b 683 291 684 294 683 292 l 683 286 l 683 283 b 682 279 683 281 683 280 l 679 249 b 675 218 678 238 677 228 b 652 147 670 193 663 169 b 599 97 641 124 624 107 b 583 94 595 96 590 95 b 561 92 577 92 569 92 b 497 99 544 92 522 94 b 421 121 472 104 447 112 b 348 156 396 130 372 142 b 286 208 324 171 304 188 z m 579 614 l 579 614 l 472 649 b 460 652 469 650 465 651 b 449 657 456 653 452 655 b 336 710 408 671 370 688 b 285 806 302 731 285 763 b 328 915 285 846 299 883 b 431 963 356 947 391 963 l 433 963 l 435 963 b 575 903 491 961 538 941 b 639 764 612 865 633 819 l 639 761 b 640 757 639 760 639 759 l 640 754 l 640 750 b 639 728 640 744 640 736 b 635 704 638 721 637 713 b 623 665 632 690 628 677 b 604 638 618 652 612 643 z "},"9":{"ha":849,"x_min":0,"x_max":0,"o":"m 522 153 l 522 151 b 472 126 506 140 490 132 b 418 114 455 120 437 116 b 394 112 410 113 402 112 b 369 111 386 111 378 111 b 321 114 353 111 337 112 b 278 119 305 116 291 118 b 242 125 264 121 252 123 b 222 128 233 127 226 128 l 222 128 l 222 128 l 221 128 l 221 128 b 197 115 211 125 203 121 b 179 99 191 110 185 104 b 176 93 178 97 177 95 b 171 88 174 91 173 89 l 162 78 b 151 69 159 75 155 72 b 138 59 147 66 142 62 b 125 49 134 56 130 52 b 119 43 123 47 121 45 b 113 38 116 41 114 39 b 96 23 107 33 101 28 b 78 7 90 18 84 13 b 106 2 88 5 97 3 b 131 -1 114 1 122 0 b 158 -3 140 -2 149 -3 b 189 -4 168 -4 178 -4 b 619 184 355 -6 498 57 b 813 624 741 311 805 458 l 813 631 b 814 639 813 634 813 636 l 814 647 l 814 654 b 760 878 813 737 795 811 b 588 1014 725 946 667 991 b 558 1022 577 1018 567 1020 b 529 1026 548 1024 538 1025 b 515 1027 525 1026 520 1027 b 500 1028 509 1028 505 1028 b 352 987 448 1027 399 1013 b 221 883 305 960 262 926 l 139 797 b 83 722 117 774 98 749 b 51 640 69 695 58 668 b 43 600 48 627 45 614 b 40 560 41 586 40 573 b 119 379 40 489 66 429 b 299 306 171 329 231 305 b 447 345 350 306 399 320 b 568 429 494 371 535 399 b 585 444 575 434 580 439 b 600 461 591 450 595 456 l 661 525 l 661 523 b 663 517 661 522 662 519 l 663 507 l 663 494 b 658 416 663 475 661 449 b 635 314 654 383 647 349 b 593 223 625 282 611 252 b 522 150 575 194 552 169 z m 514 853 l 514 851 b 588 797 543 838 567 820 b 636 725 608 774 624 750 b 656 670 645 706 652 688 b 663 622 660 652 663 636 l 663 613 b 661 604 663 610 662 607 b 651 580 659 597 656 589 b 635 554 647 571 641 563 b 552 486 615 529 588 506 b 431 456 516 466 476 456 b 383 460 416 456 400 457 b 333 474 367 463 350 467 b 217 559 282 493 244 522 b 171 676 191 597 175 636 b 170 690 171 681 171 685 b 169 703 170 694 169 698 b 172 739 169 716 170 728 b 181 772 174 750 177 761 b 256 853 193 808 218 835 b 381 878 294 870 335 879 l 394 878 b 408 876 399 878 404 877 b 463 869 427 875 445 873 b 515 853 481 865 499 859 z "}," ":{"ha":682,"x_min":0,"x_max":0,"o":""},"!":{"ha":346,"x_min":0,"x_max":0,"o":"m 211 231 l 211 229 l 208 232 l 206 235 b 202 240 205 237 203 238 b 199 244 201 241 200 243 b 191 250 196 246 193 248 b 185 253 189 252 187 253 l 185 253 l 185 253 l 183 253 l 183 253 b 174 251 181 253 177 252 b 163 244 170 249 166 247 b 157 240 161 243 159 241 b 151 235 155 238 153 237 b 149 234 150 235 150 234 b 147 233 149 234 148 233 l 89 182 b 82 176 87 180 85 178 b 75 169 79 173 77 171 b 73 168 74 169 73 168 b 71 167 72 168 72 168 b 53 149 64 160 58 154 b 43 139 47 144 44 141 b 42 136 43 138 43 137 l 42 135 l 42 132 l 42 129 b 47 113 42 124 44 118 b 61 97 51 107 56 102 l 65 94 b 68 92 66 92 67 92 l 146 11 b 149 8 147 10 148 9 b 153 4 150 6 151 5 l 156 1 b 158 0 156 0 157 0 b 164 -4 160 -2 162 -3 b 169 -6 166 -5 168 -6 b 178 -3 172 -6 175 -5 l 186 3 l 188 5 b 190 6 189 5 189 6 l 192 8 b 194 11 193 8 194 9 l 281 83 b 284 86 281 84 283 85 b 288 90 285 87 287 88 b 293 95 289 92 291 94 b 299 100 295 97 297 98 b 308 113 302 105 305 109 b 311 122 310 116 311 119 b 304 133 310 125 308 128 b 292 146 300 137 296 141 l 292 146 l 292 146 l 287 151 b 283 156 285 152 284 154 l 210 235 z m 158 290 l 158 289 b 170 300 163 289 167 293 b 179 326 173 307 176 316 b 183 338 180 330 181 334 b 186 349 184 341 185 345 b 190 365 187 354 188 360 b 196 381 192 371 194 376 b 206 407 200 390 203 399 b 215 432 209 415 213 424 b 217 437 215 434 216 435 b 218 442 218 438 218 440 l 226 464 b 235 489 229 471 232 480 b 240 595 237 528 238 563 b 246 689 242 627 244 658 b 251 782 248 719 250 750 b 257 888 253 813 255 849 b 261 958 258 910 259 933 b 267 1032 263 982 265 1007 b 269 1056 268 1040 269 1048 b 271 1079 270 1064 271 1072 b 283 1208 275 1125 279 1168 b 288 1292 286 1247 288 1275 b 287 1304 288 1297 287 1301 b 285 1308 286 1307 286 1308 b 262 1299 280 1309 272 1306 b 229 1274 251 1291 240 1283 b 217 1265 225 1271 220 1268 l 206 1257 b 191 1246 201 1253 196 1250 b 175 1235 186 1242 181 1238 b 173 1234 174 1235 173 1234 l 171 1232 b 132 1203 157 1222 144 1212 b 113 1182 120 1194 113 1187 b 111 1173 112 1180 111 1177 l 111 1158 b 115 1053 111 1135 113 1100 b 124 904 118 1006 121 956 b 124 893 124 900 124 897 b 125 883 125 889 125 886 b 128 828 126 865 127 847 b 132 776 130 810 131 793 b 136 696 134 751 135 725 b 139 608 137 667 138 638 b 141 561 140 593 141 577 b 143 514 141 545 142 530 b 149 354 145 453 147 400 b 160 288 152 309 155 287 z "},"\"":{"ha":485,"x_min":0,"x_max":0,"o":"m 107 1060 l 107 1060 l 49 693 l 160 753 l 228 1089 z m 319 1060 l 319 1060 l 261 693 l 372 753 l 440 1089 z "},"#":{"ha":800,"x_min":0,"x_max":0,"o":"m 722 335 l 722 335 l 722 417 l 576 417 l 606 618 l 758 618 l 758 701 l 617 701 l 661 1007 l 576 1007 l 531 701 l 338 701 l 381 1007 l 294 1007 l 251 701 l 83 701 l 83 618 l 240 618 l 208 417 l 46 417 l 43 335 l 197 335 l 151 15 l 236 15 l 283 336 l 475 336 l 431 15 l 517 15 l 561 335 z m 519 618 l 519 618 l 492 415 l 297 415 l 328 618 z "},"$":{"ha":779,"x_min":0,"x_max":0,"o":"m 188 853 l 188 851 b 226 894 195 872 208 886 b 288 906 245 902 265 906 l 295 906 l 303 906 b 360 896 322 904 341 900 b 407 881 378 891 394 886 b 410 878 408 880 409 879 b 414 878 412 878 413 878 l 476 843 b 483 840 479 842 481 841 b 489 835 485 838 487 837 l 493 833 b 496 831 494 832 495 831 b 508 824 500 828 503 825 b 521 821 512 822 516 821 l 521 821 l 522 821 l 522 821 l 522 821 b 542 832 526 822 533 825 b 572 854 552 838 562 846 l 574 856 l 575 857 b 585 865 579 860 582 862 b 594 872 589 867 592 869 b 642 907 613 887 629 899 b 668 931 656 915 664 923 b 669 933 668 931 668 932 b 669 936 669 934 669 935 b 658 951 669 940 666 945 b 629 969 650 957 640 963 b 612 978 624 972 618 975 b 594 988 606 982 600 985 b 578 995 589 990 583 993 b 561 1001 572 997 567 1000 l 544 1007 b 528 1011 539 1009 533 1010 b 484 1020 512 1015 497 1018 b 460 1025 471 1022 463 1024 l 460 1275 b 436 1260 451 1269 444 1265 b 414 1247 429 1256 421 1252 b 392 1234 406 1243 399 1238 b 368 1219 384 1230 376 1225 b 344 1205 360 1214 352 1209 b 322 1192 337 1201 330 1196 b 300 1178 315 1187 307 1183 b 276 1165 293 1174 285 1170 l 276 978 l 206 928 b 183 912 198 923 191 918 b 158 893 175 906 167 900 b 84 820 131 872 107 847 b 44 735 61 793 48 764 b 43 726 44 732 43 729 l 43 718 b 110 592 44 670 66 628 b 256 499 154 557 203 525 b 269 492 260 497 265 494 b 283 486 274 489 279 487 l 469 393 b 478 389 472 392 475 391 b 486 385 481 387 483 386 b 564 326 515 369 541 350 b 599 251 587 303 599 278 b 594 226 599 243 597 234 b 581 199 592 217 587 208 b 533 158 568 180 552 167 b 474 146 515 150 495 146 b 419 153 456 146 438 148 b 364 171 401 157 382 163 b 293 204 340 180 316 191 b 228 246 270 217 248 231 l 175 282 l 46 132 b 65 116 52 126 59 121 b 82 103 71 111 76 106 l 93 94 l 104 86 b 119 76 109 82 114 79 b 136 65 125 72 131 69 b 162 50 145 60 154 55 b 185 38 170 45 177 41 b 205 28 191 35 198 32 b 226 19 212 25 219 22 b 238 15 230 18 234 16 b 251 11 242 13 247 12 l 251 -283 b 265 -277 256 -281 261 -279 b 279 -271 270 -275 275 -273 b 290 -265 283 -269 286 -267 b 300 -260 293 -263 296 -262 b 320 -249 306 -256 313 -252 b 342 -236 327 -245 334 -241 b 360 -226 348 -232 354 -229 b 375 -215 365 -222 370 -219 b 383 -210 378 -213 380 -212 b 390 -206 385 -209 388 -207 b 408 -192 396 -201 402 -197 b 426 -179 414 -188 420 -184 l 426 -4 b 443 -1 433 -3 438 -2 b 457 4 448 1 452 2 b 465 9 460 6 462 8 b 472 14 467 10 469 12 b 478 17 474 15 476 16 b 482 21 480 19 481 20 b 499 35 488 25 494 30 b 515 50 504 39 510 44 b 524 59 518 53 521 56 b 532 71 526 62 529 66 l 696 257 b 705 268 699 261 702 264 b 713 279 708 272 711 275 b 737 324 724 294 732 309 b 744 378 742 340 744 357 l 744 380 l 744 382 b 688 491 744 425 725 462 b 565 567 650 520 610 545 b 560 569 563 568 562 568 b 557 572 559 569 558 570 l 332 682 b 324 685 329 683 327 684 b 318 689 322 687 320 688 b 230 753 286 706 256 728 b 190 833 203 779 190 806 l 190 839 b 192 844 190 841 191 843 b 192 850 192 846 192 848 b 194 857 193 852 194 854 z "},"%":{"ha":951,"x_min":0,"x_max":0,"o":"m 703 985 l 703 983 b 658 907 701 980 686 954 b 568 750 631 860 600 807 b 565 746 567 749 566 748 b 563 742 564 744 563 743 b 528 680 551 720 540 700 b 496 622 517 660 506 641 b 192 118 351 365 250 197 b 94 -14 133 39 101 -5 b 122 6 100 -10 109 -4 b 163 36 134 15 148 25 b 166 39 163 37 165 38 b 169 40 167 40 169 40 b 181 51 173 44 177 47 b 193 60 185 54 189 57 b 214 77 200 66 207 72 b 232 93 220 82 226 88 b 240 99 235 95 237 97 b 246 106 242 100 244 103 b 262 120 251 110 257 115 l 278 136 b 381 290 284 143 319 194 b 586 607 444 387 512 492 b 589 612 587 609 588 610 b 592 617 590 613 591 615 b 592 619 592 618 592 618 l 594 621 b 801 945 670 738 739 847 b 896 1099 863 1044 895 1095 b 865 1078 888 1094 878 1087 b 821 1050 851 1070 837 1060 b 812 1044 818 1048 815 1046 b 803 1039 809 1043 806 1041 b 794 1034 800 1037 797 1035 b 786 1029 792 1033 789 1031 b 766 1017 779 1025 772 1020 b 747 1007 760 1013 754 1010 b 744 1004 746 1006 745 1005 b 739 1001 742 1003 741 1002 b 722 992 733 999 728 996 b 703 983 716 989 709 986 z m 553 335 l 553 333 b 490 264 528 314 507 291 b 456 181 472 237 461 209 b 453 162 455 174 454 168 b 453 144 453 156 453 150 b 456 112 453 133 454 122 b 467 81 459 101 462 91 b 515 15 481 49 497 27 b 568 -3 532 3 550 -3 b 590 -1 575 -3 583 -2 b 613 6 598 1 605 3 b 651 25 625 10 638 17 b 688 50 663 33 675 42 b 692 53 689 51 691 52 l 697 58 l 814 144 b 824 152 818 147 821 150 b 835 160 828 154 831 157 b 895 226 861 181 881 203 b 915 311 909 248 916 277 b 912 355 915 324 914 339 b 900 407 909 371 906 388 b 861 474 891 439 878 462 b 807 493 844 487 826 493 b 795 492 803 493 799 493 b 783 490 791 492 787 491 b 743 476 769 488 756 483 b 707 454 730 469 718 462 z m 619 214 l 619 213 b 617 230 619 218 618 224 b 617 249 617 236 617 242 l 617 254 l 617 261 b 632 333 619 287 624 311 b 663 369 640 354 650 367 l 665 369 b 668 371 666 369 667 370 l 669 371 l 672 371 b 712 344 690 370 703 361 b 731 288 721 327 727 308 b 734 271 732 282 734 276 b 736 254 734 265 735 260 b 738 240 737 250 738 246 l 738 219 l 738 203 b 736 188 738 198 737 193 b 724 128 734 166 730 147 b 694 103 718 110 708 102 l 694 103 l 694 103 l 693 103 l 693 103 b 646 133 672 104 656 114 b 624 194 636 152 628 172 b 622 203 623 197 622 200 b 619 215 621 207 620 211 z m 138 879 l 138 878 b 81 813 114 860 95 839 b 50 735 66 788 56 762 b 44 707 47 725 45 716 b 43 679 44 698 43 688 b 45 651 43 670 44 660 b 51 624 47 641 49 632 b 94 556 62 591 76 569 b 153 536 113 543 132 536 b 165 537 156 536 160 536 b 178 539 169 537 173 538 b 231 558 195 542 213 548 b 279 592 249 567 265 579 l 411 703 b 475 780 440 727 461 753 b 496 872 489 807 496 838 b 493 912 496 885 495 898 b 483 954 491 925 488 939 b 446 1022 475 987 463 1009 b 393 1040 429 1034 412 1040 b 381 1040 389 1040 385 1040 b 369 1038 377 1039 373 1038 b 329 1023 356 1035 342 1030 b 293 1001 316 1016 304 1009 z m 211 786 l 211 785 b 210 799 210 789 210 794 l 210 814 l 210 819 l 210 826 b 222 890 211 850 215 871 b 250 924 228 910 238 921 b 253 924 251 924 252 924 b 256 925 254 925 255 925 l 258 925 l 261 925 b 304 897 280 924 294 915 b 326 836 314 878 322 858 b 328 820 327 831 328 825 b 331 804 329 815 330 810 b 332 786 331 800 332 794 l 332 763 l 332 752 l 332 742 b 322 683 331 720 328 701 b 293 656 317 665 307 656 l 293 656 l 293 656 l 292 656 l 292 656 b 242 690 271 656 255 668 b 215 760 230 711 221 735 b 213 774 214 764 214 769 b 211 789 213 778 212 783 z "},"&":{"ha":1890,"x_min":0,"x_max":0,"o":"m 390 808 l 390 807 b 385 805 388 806 387 805 b 378 803 383 804 381 804 b 149 657 294 769 218 721 b 44 431 79 593 44 518 b 67 320 44 395 52 359 b 139 200 81 282 106 242 b 331 44 198 127 262 75 b 543 -1 399 14 470 -1 b 666 10 584 -1 625 3 b 789 43 707 18 748 29 b 1027 154 869 71 949 108 b 1253 301 1105 200 1181 250 l 1321 349 b 1356 318 1334 338 1346 327 b 1386 290 1367 309 1377 300 b 1394 283 1389 288 1392 285 b 1403 275 1397 280 1400 278 l 1431 247 l 1463 215 b 1504 173 1477 200 1491 186 b 1542 133 1517 159 1530 146 b 1553 119 1545 129 1549 124 b 1567 106 1558 115 1562 110 b 1601 65 1578 93 1589 79 b 1638 21 1612 51 1625 37 l 1811 79 b 1767 132 1795 99 1781 116 b 1728 178 1754 148 1741 163 b 1719 188 1725 181 1722 185 b 1711 197 1717 190 1714 194 b 1669 242 1698 212 1684 227 b 1622 293 1655 258 1639 275 b 1583 335 1608 308 1595 322 b 1546 372 1570 348 1558 360 b 1537 381 1543 375 1540 378 b 1528 389 1534 383 1531 386 b 1490 425 1516 401 1503 413 b 1447 464 1477 437 1463 450 b 1492 507 1464 480 1479 494 b 1532 546 1506 520 1519 533 l 1540 554 l 1549 563 b 1588 603 1562 575 1575 589 b 1629 649 1600 617 1614 632 b 1685 713 1650 672 1668 693 b 1733 769 1703 732 1719 751 l 1747 786 l 1761 803 b 1803 859 1775 821 1789 840 b 1850 924 1818 878 1833 900 l 1617 863 b 1603 835 1612 853 1608 844 b 1592 810 1599 827 1595 818 b 1578 783 1587 800 1582 792 l 1564 758 b 1539 719 1556 745 1547 732 b 1511 676 1531 705 1521 691 b 1492 649 1505 667 1498 658 b 1475 625 1486 641 1481 632 b 1465 611 1471 620 1468 616 b 1454 597 1461 606 1458 602 l 1435 575 b 1413 553 1428 568 1421 560 l 1381 519 b 1344 550 1368 531 1356 541 l 1311 578 b 1302 586 1308 581 1305 583 b 1292 593 1299 589 1295 591 b 1260 619 1281 601 1271 610 b 1222 646 1249 628 1236 637 b 1174 679 1206 658 1190 669 b 1131 707 1159 689 1144 699 b 1103 723 1121 713 1112 718 b 1076 738 1095 728 1086 733 b 1052 749 1068 741 1060 745 b 1026 764 1044 753 1036 758 l 783 881 b 678 942 742 899 707 920 b 613 1011 650 965 628 988 b 586 1061 600 1028 592 1044 b 578 1108 581 1078 578 1094 b 588 1155 578 1125 581 1141 b 618 1193 595 1169 605 1182 b 654 1213 628 1202 640 1209 b 700 1219 668 1217 683 1219 b 806 1192 731 1219 767 1210 b 925 1106 846 1174 885 1145 b 947 1083 932 1098 940 1091 b 968 1061 953 1076 961 1069 l 1007 1015 l 1201 1069 b 1178 1101 1200 1071 1193 1082 b 1121 1164 1163 1121 1144 1142 b 1076 1206 1107 1179 1092 1193 b 1028 1239 1061 1219 1044 1230 b 1020 1244 1025 1241 1022 1242 b 1013 1247 1018 1245 1015 1246 b 940 1276 988 1259 963 1269 b 869 1290 916 1283 893 1288 b 852 1291 864 1290 858 1291 b 835 1292 846 1291 840 1292 b 765 1284 812 1292 788 1289 b 690 1263 741 1279 716 1272 l 496 1181 b 420 1120 463 1167 437 1147 b 390 1026 403 1094 393 1063 l 390 1023 l 390 1018 l 390 1013 l 390 1008 b 410 942 392 986 399 964 b 449 886 422 921 435 902 b 474 860 457 876 465 867 b 494 846 482 852 489 848 z m 1196 331 l 1196 329 b 1085 245 1162 299 1125 271 b 965 178 1046 220 1006 197 b 813 118 913 152 863 132 b 679 97 764 104 719 97 b 659 98 673 97 666 97 b 639 100 652 98 645 99 b 369 222 526 118 436 158 b 233 426 302 285 256 353 b 219 486 227 447 222 467 b 215 543 217 506 215 525 b 240 660 215 587 224 626 b 313 740 257 695 281 722 b 390 769 337 753 362 763 b 475 779 417 776 445 779 b 651 751 531 779 589 770 b 840 675 713 732 776 706 b 1013 578 899 646 956 614 b 1175 465 1069 542 1123 504 l 1267 394 z "},"'":{"ha":332,"x_min":0,"x_max":0,"o":"m 44 903 l 44 901 b 62 888 46 900 52 895 b 93 857 72 880 82 870 b 126 804 105 843 116 825 b 142 731 137 783 142 758 l 142 726 l 142 719 b 138 694 142 712 140 704 b 128 665 135 685 131 675 b 122 649 126 660 124 654 b 114 632 119 643 117 638 b 95 595 107 618 101 606 b 86 578 89 584 86 579 b 83 572 85 576 84 574 b 79 565 82 569 81 567 b 78 563 79 564 79 564 b 78 561 78 563 78 562 b 68 544 74 556 71 550 b 68 533 65 539 65 535 l 69 533 b 71 532 69 532 70 532 l 73 532 l 74 532 b 79 533 75 532 77 532 b 86 538 81 534 83 536 l 92 544 b 99 551 95 546 97 549 b 103 558 100 553 102 555 b 107 564 105 560 106 562 b 138 601 112 571 122 584 b 189 664 153 619 170 640 b 224 713 201 680 213 696 b 254 765 236 730 246 748 b 269 806 261 779 266 793 b 274 844 272 820 274 832 b 244 948 273 885 263 920 b 168 1025 226 976 200 1002 b 152 1012 163 1020 157 1016 b 139 1000 147 1008 143 1004 l 136 997 l 133 994 b 119 983 129 991 124 987 b 104 968 115 978 110 974 l 91 955 l 79 943 l 73 937 l 67 931 b 55 916 63 926 59 921 b 42 901 51 911 46 906 z "},"(":{"ha":432,"x_min":0,"x_max":0,"o":"m 414 1331 l 414 1329 b 413 1326 414 1328 414 1327 b 413 1322 413 1324 413 1323 l 410 1318 b 410 1315 410 1317 410 1316 l 406 1340 l 235 1253 b 227 1249 232 1252 229 1251 b 219 1244 225 1248 222 1246 b 174 1217 202 1236 187 1227 b 136 1179 161 1208 148 1195 l 133 1176 b 129 1171 131 1174 130 1173 b 117 1154 125 1165 121 1160 b 107 1138 114 1149 111 1143 b 78 1049 91 1109 82 1079 b 74 950 75 1019 74 986 l 74 239 l 74 1 l 74 -3 l 74 -10 b 77 -106 74 -45 75 -77 b 101 -192 79 -135 88 -164 b 113 -212 105 -198 109 -205 b 126 -232 117 -219 122 -225 b 176 -286 142 -252 159 -270 b 240 -328 193 -302 214 -316 l 422 -217 b 367 -193 401 -210 383 -202 b 324 -157 352 -184 338 -172 l 316 -149 b 310 -142 314 -147 312 -144 b 265 -49 284 -112 269 -81 b 260 56 262 -17 260 18 l 260 67 l 260 82 l 260 793 l 260 1090 b 264 1144 260 1110 261 1128 b 278 1192 267 1160 271 1176 b 288 1211 281 1198 284 1205 b 300 1231 291 1218 295 1224 b 327 1261 308 1244 317 1254 b 358 1283 337 1269 347 1276 b 381 1296 366 1287 373 1291 b 403 1314 388 1300 395 1306 z "},")":{"ha":439,"x_min":0,"x_max":0,"o":"m 43 -283 l 43 -283 l 42 -283 b 40 -285 42 -283 41 -284 l 40 -285 l 40 -285 b 37 -286 38 -286 37 -286 b 36 -283 36 -286 36 -285 l 40 -308 l 211 -222 b 219 -219 214 -221 216 -220 b 226 -214 221 -217 224 -216 b 272 -187 244 -206 259 -197 b 310 -149 285 -177 298 -164 l 313 -145 b 317 -140 315 -144 316 -142 b 328 -124 321 -135 325 -129 b 339 -107 332 -118 335 -112 b 367 -19 355 -78 364 -49 b 372 82 371 10 372 44 l 372 793 l 372 1028 l 372 1034 l 372 1040 b 369 1137 372 1075 371 1108 b 344 1222 366 1166 358 1194 b 333 1242 341 1229 337 1235 b 319 1263 328 1249 324 1256 b 271 1317 305 1283 288 1301 b 206 1360 253 1332 231 1347 l 24 1247 b 78 1224 45 1241 63 1233 b 122 1188 94 1214 108 1202 l 130 1180 b 136 1172 132 1178 134 1175 b 181 1080 162 1143 177 1112 b 186 974 184 1048 186 1013 l 186 962 l 186 950 l 186 239 l 186 -60 b 182 -113 186 -79 185 -97 b 168 -161 179 -129 175 -145 b 158 -181 165 -168 162 -174 b 146 -200 155 -187 150 -194 b 142 -206 145 -202 144 -204 b 138 -212 141 -209 139 -211 b 98 -261 125 -231 112 -247 b 43 -283 84 -275 65 -282 z "},"*":{"ha":439,"x_min":0,"x_max":0,"o":"m 183 1233 l 183 1233 l 118 1261 l 113 1256 b 108 1253 112 1255 110 1254 b 99 1245 106 1250 103 1247 b 89 1238 96 1243 93 1240 b 79 1232 85 1236 82 1234 b 69 1226 76 1230 73 1228 b 54 1218 65 1224 60 1221 b 36 1213 49 1215 43 1213 l 140 1158 l 57 1117 b 55 1106 56 1113 55 1109 b 54 1096 54 1103 54 1100 b 53 1085 53 1092 53 1089 l 53 1075 b 53 1065 53 1071 53 1068 b 54 1054 54 1061 54 1058 b 56 1044 55 1050 56 1047 b 58 1035 57 1041 57 1038 l 182 1101 l 182 986 l 265 1031 l 265 1100 l 339 1067 b 353 1082 344 1072 348 1077 b 371 1094 359 1087 364 1091 b 376 1098 373 1095 375 1097 b 381 1101 378 1099 380 1100 b 397 1110 386 1104 391 1107 b 414 1118 402 1113 407 1115 l 324 1171 l 403 1213 l 394 1283 l 269 1218 l 269 1351 b 264 1348 268 1350 266 1349 b 258 1344 262 1347 260 1345 b 247 1338 254 1343 250 1341 b 236 1331 243 1336 240 1333 b 226 1324 232 1329 229 1326 b 217 1315 224 1321 220 1318 b 209 1309 214 1313 211 1311 b 201 1303 207 1307 204 1305 l 196 1297 l 190 1292 b 186 1288 188 1291 187 1290 b 182 1285 185 1287 184 1286 z "},"+":{"ha":801,"x_min":0,"x_max":0,"o":"m 40 550 l 40 550 l 40 469 l 360 469 l 360 142 l 439 142 l 439 469 l 764 469 l 764 550 l 439 550 l 439 875 l 360 875 l 360 550 z "},",":{"ha":332,"x_min":0,"x_max":0,"o":"m 35 158 l 35 157 b 55 142 38 155 44 150 b 89 108 66 134 77 123 b 127 49 103 93 116 73 b 144 -32 139 25 144 -2 l 144 -37 l 144 -43 b 140 -72 144 -51 143 -61 b 129 -103 136 -82 133 -93 b 122 -122 126 -109 124 -116 b 114 -139 119 -128 117 -133 b 93 -180 106 -155 100 -168 b 83 -199 87 -191 83 -198 b 81 -204 82 -200 82 -202 b 79 -210 81 -206 80 -208 b 76 -214 78 -212 77 -213 b 75 -218 75 -215 75 -216 b 67 -233 72 -223 70 -228 b 64 -244 65 -238 64 -242 l 64 -247 b 65 -249 64 -247 64 -248 l 66 -249 b 68 -250 66 -250 67 -250 l 70 -250 l 71 -250 b 78 -248 73 -250 75 -249 b 86 -242 81 -247 83 -244 b 92 -235 88 -240 90 -238 b 97 -229 94 -233 95 -231 b 103 -222 99 -226 101 -224 b 107 -215 105 -219 106 -217 b 142 -175 113 -208 124 -194 b 199 -107 159 -156 178 -133 b 240 -49 213 -88 226 -69 b 272 10 253 -29 264 -10 b 288 52 279 24 284 38 b 293 93 291 66 293 80 b 260 207 292 138 281 175 b 176 293 240 238 212 267 b 161 280 171 288 166 284 b 147 268 156 276 152 272 b 142 265 145 267 144 266 b 139 260 141 263 140 262 b 123 245 133 255 128 250 b 106 229 118 240 112 235 b 90 215 100 225 95 220 b 76 201 86 209 81 205 b 70 194 75 199 72 196 b 64 186 68 191 66 189 b 50 171 59 181 55 176 b 35 154 45 165 40 160 z "},"-":{"ha":761,"x_min":0,"x_max":0,"o":"m 204 590 l 204 589 b 186 573 198 583 192 578 b 169 558 181 568 175 563 l 167 556 l 164 553 l 147 539 b 129 524 142 534 136 529 b 118 515 125 521 122 518 b 106 506 114 511 110 508 b 100 502 104 505 102 503 b 94 499 98 501 96 500 b 56 470 81 488 68 479 b 39 450 44 461 38 455 b 49 442 40 446 43 444 b 69 440 55 441 62 440 l 74 440 l 79 440 l 83 440 b 88 442 85 440 87 441 l 572 440 b 588 455 578 446 583 451 b 603 468 593 459 598 463 b 606 471 604 469 605 470 b 610 474 608 472 609 473 b 624 485 614 477 619 481 b 640 499 629 490 635 494 b 654 509 645 502 650 506 b 668 519 659 512 663 516 l 670 522 b 672 522 671 522 671 522 b 710 551 686 533 699 543 b 729 567 722 560 728 565 l 730 567 b 731 569 730 568 731 569 l 731 572 l 731 572 b 721 583 731 577 727 580 b 700 588 714 585 707 587 b 683 589 694 588 689 589 l 672 589 l 672 589 b 671 590 671 589 671 589 z "},".":{"ha":357,"x_min":0,"x_max":0,"o":"m 213 246 l 213 244 l 209 248 b 204 251 208 249 206 250 b 194 261 201 255 198 258 b 185 267 191 264 188 266 l 185 267 l 185 267 l 183 267 l 183 267 b 173 263 181 267 177 265 b 161 254 169 260 165 257 b 160 252 161 253 161 253 b 158 250 159 252 158 251 b 153 247 156 249 155 248 b 150 244 152 245 151 244 l 89 193 b 81 187 86 191 83 189 b 72 179 78 184 75 182 l 69 176 l 67 174 b 47 156 59 167 53 161 b 39 146 42 150 39 147 b 38 142 38 145 38 144 l 38 138 b 42 125 38 133 39 129 b 51 114 44 121 48 118 b 56 111 53 113 55 112 l 58 108 b 63 105 60 107 62 106 b 67 103 65 103 66 103 l 156 10 b 158 6 156 9 157 8 b 163 3 159 5 161 4 b 165 1 163 2 164 1 b 168 -1 166 0 167 0 b 174 -6 170 -3 172 -5 b 179 -7 175 -6 177 -7 b 185 -5 181 -7 183 -6 b 192 -1 188 -3 190 -2 b 197 1 194 0 195 0 b 200 4 198 2 199 3 l 202 6 b 204 10 203 7 203 8 l 293 99 l 298 103 l 301 107 b 305 111 302 109 303 110 b 308 114 306 112 307 113 b 318 127 312 119 315 123 b 322 138 321 131 322 135 b 317 147 322 140 321 144 b 307 158 314 151 311 155 b 303 163 306 160 305 162 b 300 167 302 163 301 165 b 296 169 298 168 297 169 b 293 174 295 170 294 172 l 213 249 z "},"/":{"ha":897,"x_min":0,"x_max":0,"o":"m 60 -56 l 60 -56 b 88 -33 70 -47 79 -40 b 113 -12 97 -26 105 -19 b 124 -3 116 -9 120 -6 b 135 7 127 0 131 3 b 160 31 143 14 152 22 b 188 58 169 39 178 48 b 208 80 195 66 202 73 b 226 100 215 87 221 94 b 233 108 229 103 231 105 b 240 114 235 110 238 112 b 258 136 246 121 252 129 b 278 161 265 144 271 152 l 740 872 l 876 1079 b 851 1065 867 1075 859 1070 l 829 1051 l 824 1049 l 818 1046 b 793 1030 810 1040 801 1035 b 765 1013 785 1025 775 1019 b 740 997 757 1007 749 1002 b 715 985 732 993 724 988 b 680 962 703 977 691 970 b 646 932 668 954 657 944 b 585 831 636 921 615 887 b 485 649 554 774 521 713 b 476 633 482 643 479 638 b 468 618 474 628 471 623 b 438 565 458 600 448 583 b 410 515 428 548 419 531 b 326 373 379 463 351 416 b 250 247 300 330 275 288 b 242 234 247 243 244 238 b 235 221 239 230 237 225 b 153 90 208 178 181 134 b 60 -57 125 45 94 -4 z "},":":{"ha":363,"x_min":0,"x_max":0,"o":"m 217 263 l 217 261 l 214 264 l 211 267 b 208 272 210 269 209 270 b 204 276 206 273 205 275 b 197 282 201 278 199 280 b 190 285 194 284 192 285 l 190 285 l 190 285 l 189 285 l 189 285 b 178 281 186 285 183 283 b 167 272 174 278 170 275 b 165 270 167 271 166 271 b 164 268 164 270 164 269 b 159 265 162 267 160 266 b 156 263 158 263 156 263 l 93 199 l 86 192 b 78 185 83 189 81 187 l 78 183 l 76 183 l 56 163 b 46 151 50 157 47 153 b 49 133 43 144 44 138 b 64 118 53 128 58 123 l 69 113 b 75 108 71 111 73 109 l 164 14 b 167 10 165 13 166 12 b 171 7 168 9 169 8 l 174 4 l 176 1 l 182 -1 b 188 -3 184 -2 186 -3 b 194 -1 189 -3 191 -2 b 200 3 196 0 198 1 b 205 6 202 4 203 5 b 208 8 206 6 207 7 l 210 10 b 213 14 211 11 212 12 l 303 107 l 308 112 l 311 115 b 315 119 312 117 313 119 b 318 122 316 120 317 121 b 328 135 322 127 325 131 b 332 146 331 140 332 143 b 325 157 331 149 329 152 b 313 171 321 162 317 166 l 312 172 l 310 174 l 306 177 b 303 182 305 178 304 180 l 218 267 z m 218 700 l 218 699 l 215 701 l 213 704 b 209 709 212 706 210 708 b 206 714 208 710 206 712 b 198 719 203 716 200 718 b 192 722 196 721 194 722 b 182 719 189 722 186 721 b 171 710 178 716 175 713 l 167 706 b 164 701 166 705 165 703 b 160 698 162 700 161 699 b 157 696 159 697 158 696 l 96 631 l 92 627 l 89 624 l 87 622 b 86 619 86 621 86 620 b 64 595 78 611 70 603 b 53 581 57 587 54 582 b 51 576 52 579 51 577 l 51 571 b 58 553 51 564 53 559 b 71 539 62 548 66 544 l 74 536 b 76 535 75 535 75 535 l 164 450 l 167 447 b 171 442 169 445 170 444 b 174 440 172 441 173 440 b 176 438 175 439 175 438 b 182 433 178 436 180 434 b 188 431 184 431 186 431 b 194 433 189 431 191 431 b 200 438 196 434 198 436 b 205 440 202 438 203 439 b 208 443 206 441 207 442 l 210 445 b 213 449 211 446 212 447 l 303 542 l 308 547 l 311 550 b 315 554 312 552 313 553 b 318 557 316 555 317 556 b 328 570 322 562 325 566 b 332 581 331 574 332 578 b 325 592 331 583 329 587 b 313 606 321 596 317 601 l 312 606 l 310 608 l 306 612 b 303 617 305 613 304 615 l 218 703 z "},";":{"ha":365,"x_min":0,"x_max":0,"o":"m 47 163 l 47 161 b 67 147 50 159 57 154 b 101 113 78 139 89 127 b 140 53 115 97 128 77 b 157 -28 151 29 157 2 l 157 -33 l 157 -39 b 152 -67 157 -47 155 -57 b 142 -99 149 -78 145 -88 b 134 -117 139 -105 136 -111 b 126 -135 132 -123 129 -129 b 106 -176 119 -150 112 -164 b 96 -194 99 -187 96 -194 b 94 -200 95 -196 94 -198 b 92 -206 93 -202 93 -204 b 89 -210 91 -207 90 -209 b 88 -214 88 -211 88 -212 b 80 -228 85 -219 82 -223 b 76 -240 78 -234 76 -237 l 76 -242 b 78 -244 76 -243 77 -244 l 78 -245 b 81 -246 79 -246 80 -246 l 83 -246 l 83 -246 b 90 -244 85 -246 88 -245 b 99 -237 93 -242 96 -240 b 104 -231 100 -236 102 -234 b 110 -225 106 -229 108 -227 b 115 -217 112 -222 113 -220 b 119 -211 117 -215 119 -213 b 154 -171 125 -204 137 -190 b 211 -103 172 -151 191 -129 b 252 -45 225 -84 239 -65 b 285 14 266 -25 276 -6 b 300 56 291 28 296 42 b 306 97 304 71 306 84 b 273 211 305 142 294 180 b 189 297 252 243 224 271 b 174 284 183 293 178 288 b 160 272 169 280 164 276 b 155 269 158 271 156 270 b 151 264 153 267 152 266 b 135 249 146 259 141 254 b 118 233 130 244 125 239 b 103 219 113 229 107 224 b 89 206 98 214 94 209 b 83 198 87 203 85 200 b 76 190 80 196 78 193 b 63 175 72 186 67 181 b 47 158 58 169 53 164 z m 210 697 l 210 696 l 207 699 l 204 701 b 201 706 203 703 202 705 b 197 711 199 708 198 709 b 190 717 194 713 192 715 b 183 719 187 719 185 719 l 183 719 l 183 719 l 182 719 l 182 719 b 172 715 179 719 176 718 b 160 707 167 713 163 710 b 158 705 160 706 159 705 b 157 703 157 704 157 704 b 152 699 155 702 153 701 b 149 697 151 698 150 697 l 86 632 l 79 625 b 71 618 76 622 74 620 l 71 617 l 69 617 l 49 597 b 39 585 43 591 40 587 b 42 566 36 577 37 571 b 57 551 46 561 51 556 l 63 546 b 68 542 64 544 66 543 l 157 447 b 160 444 158 446 159 445 b 164 440 161 442 162 441 l 167 438 l 169 435 b 175 431 171 433 173 431 b 181 429 177 430 179 429 b 187 431 182 429 184 430 b 193 436 189 433 191 434 b 198 439 195 437 197 438 b 201 442 199 440 200 441 l 203 444 b 206 447 204 444 205 445 l 296 540 l 301 545 l 304 549 b 308 553 305 550 306 552 b 311 556 309 554 310 555 b 321 569 315 560 318 565 b 325 579 324 573 325 576 b 318 590 324 582 322 586 b 306 604 314 595 310 600 l 305 605 l 303 607 l 299 610 b 296 615 298 612 297 613 l 211 701 z "},"<":{"ha":800,"x_min":0,"x_max":0,"o":"m 42 557 l 42 557 l 42 476 l 753 151 l 764 146 l 764 229 l 147 511 l 764 813 l 764 903 l 53 563 z "},"=":{"ha":703,"x_min":0,"x_max":0,"o":"m 672 461 l 672 461 l 47 461 l 47 390 l 672 390 z m 672 636 l 672 636 l 47 636 l 47 565 l 672 565 z "},">":{"ha":810,"x_min":0,"x_max":0,"o":"m 44 903 l 44 903 l 44 813 l 658 511 l 44 229 l 44 146 l 756 471 l 767 476 l 767 557 l 56 897 z "},"?":{"ha":869,"x_min":0,"x_max":0,"o":"m 474 226 l 474 225 b 469 231 473 227 471 229 b 465 236 468 232 466 234 b 452 252 461 242 456 247 b 439 260 448 257 444 260 b 429 257 436 260 433 259 b 418 250 425 255 422 253 b 415 248 417 249 416 248 b 413 246 414 247 413 247 l 409 242 b 404 240 408 241 406 240 l 321 175 b 316 172 319 174 317 173 b 311 168 315 170 313 169 l 297 157 b 289 146 293 153 290 150 l 289 145 l 289 144 l 289 144 l 289 143 b 293 132 289 140 290 137 l 301 118 l 302 117 l 303 117 b 308 111 305 115 306 113 b 311 107 309 109 310 108 l 372 26 l 375 24 b 378 19 376 23 377 21 l 383 14 l 389 8 b 397 1 392 6 394 3 b 404 -1 399 0 401 -1 b 414 -1 407 -1 410 -1 b 425 4 418 0 421 1 b 431 8 427 5 429 6 b 436 11 432 9 434 10 b 438 13 437 11 438 12 b 440 15 439 13 439 14 l 531 85 l 533 88 b 536 89 534 88 535 89 b 550 101 542 93 546 97 b 557 114 554 105 556 109 l 557 114 l 557 115 l 557 115 l 557 115 b 554 125 557 118 556 121 b 547 136 552 129 550 132 l 544 140 l 540 143 b 538 147 539 145 538 146 b 535 151 537 148 536 150 l 474 228 z m 360 283 l 360 282 l 374 290 b 386 299 378 293 382 296 b 399 307 391 301 395 304 b 408 315 402 310 406 313 b 425 327 414 319 419 323 b 442 342 431 331 436 336 b 462 360 449 348 456 354 b 479 376 468 365 474 371 b 495 395 485 383 490 389 b 510 414 500 401 505 407 b 524 433 514 420 519 427 b 539 456 529 440 534 447 l 740 747 b 765 788 749 760 757 774 b 786 831 772 803 780 817 b 816 909 799 857 809 884 b 826 975 823 934 826 956 l 826 983 b 825 990 826 986 826 988 b 751 1160 816 1053 791 1110 b 619 1278 710 1210 667 1249 b 547 1313 594 1293 570 1304 b 482 1325 523 1321 501 1325 b 426 1317 462 1325 443 1322 b 379 1296 410 1312 394 1305 b 365 1286 375 1293 370 1290 b 350 1276 359 1282 355 1279 l 158 1119 b 73 1024 123 1091 95 1059 b 42 910 51 988 41 950 b 56 828 42 884 47 856 b 103 739 66 799 81 769 b 142 690 115 721 128 705 b 186 650 157 674 171 661 b 218 630 197 642 208 635 b 247 619 228 625 238 621 l 249 619 l 251 619 b 263 623 256 619 260 621 b 274 631 266 625 270 628 b 276 632 275 631 275 631 b 278 633 276 633 277 633 b 282 638 279 635 280 637 b 288 643 284 640 286 641 l 414 733 b 383 747 405 737 394 742 b 350 767 372 753 361 759 b 303 806 334 778 319 791 b 263 857 287 822 274 838 b 233 915 251 875 241 895 b 211 975 224 934 217 955 b 206 1006 209 985 208 995 b 204 1036 205 1016 204 1026 b 217 1107 204 1061 209 1085 b 261 1167 226 1129 241 1149 b 296 1187 271 1176 283 1183 b 338 1193 309 1191 323 1193 b 381 1188 351 1193 366 1191 b 428 1172 397 1184 412 1179 b 565 1072 477 1151 523 1117 b 635 926 608 1026 631 977 l 635 919 l 635 911 b 633 875 635 899 634 887 b 628 838 631 863 630 850 b 582 691 619 789 604 741 b 504 540 560 641 534 591 l 358 288 z "},"@":{"ha":1126,"x_min":0,"x_max":0,"o":"m 678 692 l 678 690 b 651 734 671 709 662 723 b 606 757 639 745 624 752 b 586 760 599 759 593 760 b 565 761 580 761 573 761 b 529 758 553 761 541 760 b 493 749 517 755 505 752 b 349 653 442 732 394 700 b 261 494 303 607 274 554 l 258 481 b 257 467 257 476 257 471 b 256 451 256 461 256 456 l 256 438 b 293 305 256 389 268 345 b 401 225 318 265 354 238 b 414 222 406 224 410 223 b 426 219 418 221 422 220 b 438 219 430 219 434 219 b 450 218 442 218 446 218 b 529 240 478 219 504 226 b 594 300 554 254 576 274 l 621 335 l 625 306 b 630 288 626 301 628 295 b 640 268 632 281 636 275 b 674 231 649 254 660 242 b 722 214 689 219 705 214 b 957 327 813 215 891 253 b 1067 586 1023 402 1059 488 b 1067 594 1067 589 1067 592 b 1068 604 1068 597 1068 600 l 1068 613 l 1068 621 b 961 882 1067 725 1031 813 b 676 1024 891 951 796 999 b 629 1031 661 1027 645 1030 b 582 1033 613 1033 598 1033 b 234 892 452 1033 336 986 b 65 551 132 798 75 685 b 65 541 65 548 65 544 b 64 532 64 538 64 535 l 64 522 l 64 511 b 197 165 64 380 108 264 b 528 -1 285 66 395 11 b 544 -3 533 -2 539 -3 b 563 -4 550 -4 556 -4 b 579 -6 568 -5 574 -6 l 596 -6 b 854 57 688 -5 774 16 b 1044 242 935 98 998 159 l 1061 269 l 972 269 l 957 240 b 939 213 952 232 946 223 b 911 183 931 203 922 194 b 778 99 879 153 834 125 b 592 63 721 74 659 62 b 560 64 581 63 571 63 b 528 67 550 65 539 66 b 252 219 417 83 325 134 b 144 511 179 303 144 401 l 144 533 b 146 553 144 540 145 546 b 288 842 156 666 203 762 b 585 963 373 922 472 963 b 635 960 601 963 618 962 b 686 950 651 958 669 955 b 920 824 794 925 872 883 b 993 611 969 764 993 694 l 993 584 b 990 556 993 575 992 566 b 985 522 989 544 988 533 l 976 489 b 914 361 963 444 942 402 b 828 272 886 320 857 291 b 800 260 819 267 809 263 b 774 256 791 257 782 256 b 763 256 770 256 766 256 b 753 258 760 257 756 257 b 735 274 744 262 739 267 b 731 299 732 281 731 289 b 731 310 731 302 731 306 b 733 324 732 315 732 319 b 736 335 734 327 735 331 b 739 349 737 340 738 344 l 747 375 l 847 750 l 725 750 l 699 658 z m 446 267 l 446 265 b 397 308 423 273 406 287 b 383 381 388 330 383 354 b 385 413 383 391 384 401 b 390 446 387 424 388 435 b 401 490 393 461 397 475 b 415 532 405 505 410 519 b 424 554 418 539 421 547 b 435 576 428 562 431 569 b 503 678 453 613 476 647 b 586 722 530 708 557 723 b 594 722 589 722 592 722 b 604 719 597 721 600 720 b 613 717 607 719 610 719 b 621 713 615 716 618 714 b 658 669 638 702 651 688 b 668 606 665 650 668 629 b 666 570 668 594 667 583 b 660 533 665 558 663 545 b 651 497 657 521 654 509 b 639 461 647 484 644 472 b 630 437 636 453 633 445 b 621 413 627 429 624 421 b 562 306 605 374 585 338 b 476 260 538 274 510 259 b 461 261 472 260 467 260 b 444 267 456 262 450 264 z "},"A":{"ha":1393,"x_min":0,"x_max":0,"o":"m -133 -194 l -132 -194 b -106 -181 -123 -190 -114 -185 b -82 -168 -97 -176 -89 -172 b -36 -140 -65 -159 -50 -149 b 4 -108 -22 -130 -9 -119 b 38 -79 15 -99 27 -89 b 75 -46 50 -69 62 -58 b 128 8 94 -27 112 -9 b 171 61 144 26 158 44 b 190 88 177 70 184 79 b 207 117 196 97 201 106 l 360 363 l 871 356 l 1057 6 b 1069 4 1058 6 1062 5 b 1097 1 1077 3 1086 2 b 1139 -1 1109 0 1123 0 b 1186 -3 1155 -2 1170 -3 l 1194 -3 l 1201 -3 b 1260 0 1223 -3 1242 -2 b 1303 10 1278 2 1293 5 b 1347 31 1314 15 1328 22 b 1403 64 1365 40 1383 51 b 1443 94 1417 73 1430 83 b 1479 129 1456 104 1468 116 b 1464 124 1474 127 1469 126 b 1450 121 1459 123 1455 122 b 1435 117 1444 119 1439 118 b 1419 114 1430 116 1425 115 b 1401 112 1413 113 1407 112 b 1383 110 1395 111 1389 111 l 1364 110 b 1342 111 1357 110 1350 110 l 1221 111 l 856 822 l 760 1006 l 571 1007 b 505 1003 542 1007 520 1006 b 463 989 490 1000 475 995 b 440 977 455 985 448 981 b 415 963 433 973 425 968 b 398 952 409 959 403 955 b 383 943 393 949 388 946 b 367 931 378 939 372 935 b 353 918 362 927 357 923 l 342 907 l 329 894 b 360 898 340 895 351 897 b 389 900 370 899 380 900 b 420 903 399 901 409 902 b 456 904 431 904 443 904 l 474 904 l 490 904 l 503 904 l 515 904 b 546 902 525 903 536 903 b 579 901 556 902 567 901 l 293 411 l 168 353 l 256 353 l 153 176 b 115 109 137 149 124 126 b 89 64 105 92 96 77 b 85 58 87 62 86 60 l 82 53 b 64 24 76 44 70 34 b 40 -7 57 15 50 4 b 10 -48 29 -22 19 -35 b -19 -85 0 -60 -9 -73 b -40 -108 -26 -92 -33 -100 b -62 -131 -48 -116 -55 -123 b -94 -163 -73 -142 -83 -153 b -133 -197 -106 -174 -119 -185 z m 410 438 l 410 438 l 639 803 l 832 436 z "},"B":{"ha":1129,"x_min":0,"x_max":0,"o":"m 263 63 l 263 61 b 284 5 263 28 270 9 b 404 0 298 1 338 -1 l 418 0 l 433 0 b 513 3 459 0 486 1 b 593 11 539 5 566 7 b 934 126 717 30 831 68 b 1088 358 1037 184 1088 261 l 1088 363 l 1088 367 l 1088 370 l 1088 374 b 999 528 1084 439 1054 491 b 814 607 944 566 882 592 l 753 619 l 814 643 b 940 719 862 663 904 688 b 994 842 976 751 994 792 l 994 844 l 994 847 l 994 850 l 994 853 b 908 985 991 909 962 953 b 733 1040 855 1016 796 1035 b 708 1042 725 1041 716 1042 b 682 1044 699 1043 690 1044 l 217 1038 l 35 935 l 256 939 l 261 228 z m 500 532 l 500 531 b 527 529 509 531 518 530 b 554 526 536 528 545 527 b 788 460 638 519 716 497 b 903 272 859 423 897 360 l 903 269 l 903 264 b 835 142 903 216 880 175 b 686 86 789 108 740 90 b 675 85 682 85 679 85 b 664 86 671 85 668 85 l 510 85 l 506 85 l 503 85 l 501 85 l 501 85 b 473 86 491 85 482 85 b 451 97 464 87 457 91 b 447 105 450 99 448 102 b 444 115 446 108 445 112 b 443 124 444 118 443 121 l 443 132 l 443 133 l 443 133 l 443 135 l 443 138 l 443 535 z m 443 613 l 443 613 l 443 935 l 547 933 b 577 932 557 933 567 933 b 607 929 587 931 597 930 b 749 879 659 922 706 905 b 813 769 791 853 813 817 l 813 766 l 813 763 b 811 759 812 762 811 760 l 811 756 b 738 649 806 706 781 670 b 599 611 695 627 649 615 b 578 610 592 611 585 611 b 558 611 572 610 565 610 z "},"C":{"ha":1207,"x_min":0,"x_max":0,"o":"m 1086 179 l 1086 178 b 1044 155 1071 169 1057 162 b 1004 135 1030 148 1017 141 b 949 115 987 126 968 120 b 885 104 930 109 909 106 l 876 104 l 869 104 b 861 103 867 103 864 103 l 853 103 b 813 105 839 103 825 103 b 775 111 800 106 787 108 b 736 124 762 115 749 119 b 696 142 723 128 710 134 l 533 215 b 326 361 452 253 383 302 b 242 581 270 420 242 494 b 264 713 242 621 249 666 b 336 867 279 761 303 812 b 405 906 347 884 370 897 b 515 918 440 914 476 918 l 518 918 l 521 918 b 556 917 533 918 545 918 b 590 915 568 917 579 916 l 824 889 b 855 885 834 888 844 887 b 886 878 866 883 876 881 b 978 842 919 869 950 858 b 1026 786 1006 827 1022 808 l 1026 783 l 1026 778 b 1026 770 1026 775 1026 772 b 1025 763 1025 768 1025 765 b 1022 751 1024 759 1023 755 b 1019 740 1021 747 1020 743 b 1013 722 1017 733 1015 727 b 1013 713 1012 716 1012 713 b 1026 714 1016 710 1021 710 b 1042 729 1031 718 1036 723 b 1045 735 1043 731 1044 733 b 1049 740 1047 737 1048 738 b 1056 748 1051 743 1054 746 b 1061 757 1057 750 1059 753 l 1157 872 b 1170 894 1163 880 1167 887 b 1175 918 1173 901 1175 909 l 1175 922 l 1175 925 l 1175 927 b 1174 929 1175 928 1175 928 b 1047 988 1166 950 1124 969 b 794 1028 969 1006 885 1019 b 720 1033 769 1030 745 1031 b 649 1035 696 1034 672 1035 b 588 1033 628 1035 608 1034 b 533 1028 568 1031 550 1030 b 500 1008 529 1028 518 1021 b 439 967 482 995 462 981 b 419 953 432 962 426 958 b 399 940 412 949 405 945 b 377 929 391 937 384 933 b 357 919 370 925 363 922 b 322 906 346 915 334 910 b 282 892 309 901 296 896 b 197 869 251 882 223 875 b 156 857 170 863 156 859 b 144 844 152 853 148 849 b 133 829 141 840 137 835 b 76 710 113 799 94 759 b 40 557 58 661 46 610 b 40 547 40 553 40 550 b 39 538 39 543 39 540 l 39 527 l 39 517 b 125 288 39 434 68 358 b 336 106 182 217 253 156 b 434 53 369 86 402 69 b 531 17 466 38 498 26 b 603 1 555 9 579 4 b 675 -4 627 -3 651 -4 b 825 19 724 -4 774 3 b 982 94 876 34 928 59 l 1106 172 l 1108 193 l 1081 178 z "},"D":{"ha":1275,"x_min":0,"x_max":0,"o":"m 96 1069 l 96 1068 b 88 1062 93 1066 90 1064 b 79 1056 85 1059 82 1057 b 74 1051 77 1054 75 1052 b 69 1047 72 1049 70 1048 b 48 1028 61 1041 54 1034 b 39 1013 42 1021 39 1016 b 51 999 40 1007 44 1003 b 78 992 59 996 68 994 b 87 991 81 992 84 991 b 96 990 90 991 93 990 l 413 938 l 246 819 b 152 696 204 791 173 750 b 122 524 131 642 121 585 b 123 490 122 513 122 501 b 126 457 123 479 125 468 b 175 288 134 399 150 342 b 276 150 200 234 234 188 b 441 40 328 105 383 68 b 617 -3 499 11 557 -3 b 700 8 644 -3 672 1 b 782 42 728 15 755 26 l 1076 207 b 1217 392 1154 250 1201 312 b 1238 675 1232 471 1239 566 b 1142 906 1237 780 1205 857 b 919 1003 1080 956 1006 988 l 296 1101 b 284 1103 292 1102 288 1103 b 272 1106 280 1104 276 1105 b 242 1113 261 1107 251 1110 b 226 1121 232 1115 227 1118 b 232 1135 225 1125 227 1129 b 247 1151 237 1140 242 1146 l 249 1153 l 251 1156 b 267 1175 258 1162 263 1169 b 264 1190 270 1181 269 1187 b 260 1192 263 1191 262 1192 b 256 1193 259 1193 257 1193 b 247 1190 253 1193 250 1192 b 236 1183 243 1188 240 1186 b 233 1179 235 1181 234 1180 b 229 1176 231 1178 230 1177 b 223 1171 227 1175 225 1173 b 217 1167 221 1169 219 1168 z m 453 932 l 453 932 l 768 872 b 882 840 811 865 849 854 b 971 778 915 825 945 805 b 1031 670 1000 748 1019 712 b 1047 539 1042 628 1047 584 l 1047 528 l 1047 517 b 1029 378 1045 469 1039 423 b 997 264 1019 334 1008 295 b 976 214 990 244 983 227 b 958 189 969 201 963 193 b 877 146 933 169 906 154 b 788 133 848 138 818 133 b 766 134 780 133 773 134 b 744 136 759 134 752 135 b 594 178 693 142 643 156 b 471 249 546 200 505 224 b 453 263 464 253 458 258 l 436 276 b 352 401 398 311 370 352 b 321 554 334 450 324 501 b 319 573 320 561 319 567 l 319 592 b 347 778 319 658 329 720 b 417 904 366 835 389 877 z "},"E":{"ha":1165,"x_min":0,"x_max":0,"o":"m 133 865 l 133 864 b 131 862 132 863 131 862 b 128 860 130 861 129 861 b 87 781 114 845 100 819 b 56 658 73 743 63 702 b 49 624 53 647 51 636 b 46 589 48 612 47 600 b 44 567 45 581 44 574 l 44 544 b 81 373 44 480 56 422 b 194 238 105 323 143 278 l 357 104 b 417 62 376 88 397 74 b 481 31 438 49 459 39 b 563 5 508 19 536 10 b 640 -3 591 0 616 -3 l 649 -3 l 657 -3 b 721 3 681 -2 702 0 b 776 17 739 6 758 10 b 805 28 786 19 795 23 b 835 46 815 32 825 38 l 1006 151 b 1010 154 1007 152 1009 153 b 1014 157 1012 155 1013 156 b 1028 167 1019 160 1023 163 b 1040 178 1032 170 1037 174 b 1051 192 1045 182 1049 187 b 1056 204 1054 196 1056 200 b 1033 197 1056 208 1048 205 b 981 167 1019 188 1001 178 b 960 156 974 163 967 159 b 940 146 953 153 947 150 b 915 136 932 142 923 139 b 890 129 906 133 898 131 b 847 123 875 126 861 124 b 807 121 833 122 820 121 b 715 133 775 121 744 125 b 628 165 685 141 656 151 b 567 197 607 175 587 185 b 506 233 547 208 527 220 b 438 282 482 248 460 264 b 376 336 416 300 396 318 b 312 406 352 360 331 383 b 268 464 293 428 278 447 l 576 467 b 758 474 642 468 703 470 b 915 496 813 477 865 485 b 922 498 917 497 919 497 b 928 499 924 498 926 499 b 966 511 941 502 953 506 b 1001 526 978 516 990 521 b 1039 544 1015 532 1028 538 b 1065 558 1050 550 1059 555 l 1063 569 b 1040 563 1054 567 1047 564 b 1018 557 1033 561 1025 559 b 997 553 1012 556 1005 555 b 974 549 990 552 982 550 b 938 544 961 547 949 545 b 906 542 926 542 916 542 l 890 542 l 874 542 l 853 542 b 831 543 845 542 838 542 l 226 564 l 229 632 b 231 664 229 642 230 653 b 235 697 231 675 233 686 b 267 829 241 744 252 788 b 319 903 283 870 300 894 b 367 916 335 909 351 914 b 417 919 382 918 399 919 b 464 917 432 919 448 919 b 513 914 480 916 496 915 l 800 881 b 814 879 805 880 809 879 b 828 878 819 879 823 879 b 904 865 855 876 880 872 b 961 819 928 859 947 844 b 977 784 969 807 974 796 b 982 749 980 772 982 761 b 979 724 982 740 981 732 b 971 697 977 715 975 706 b 992 724 978 706 985 715 l 1011 749 l 1013 750 b 1014 753 1013 751 1014 752 b 1033 777 1020 761 1027 769 b 1053 804 1039 785 1045 794 b 1065 818 1056 809 1060 813 b 1078 832 1069 823 1073 827 l 1094 849 b 1108 865 1100 854 1105 860 b 1122 885 1114 872 1118 878 b 1126 904 1125 891 1126 898 l 1126 906 l 1126 906 b 1094 944 1125 921 1115 934 b 1028 969 1074 955 1052 963 b 964 983 1005 976 983 981 b 929 989 944 986 933 988 l 613 1021 b 601 1022 609 1021 605 1021 b 590 1024 598 1022 594 1023 b 545 1028 575 1025 559 1027 b 506 1029 531 1029 518 1029 l 492 1029 b 481 1028 488 1029 484 1029 b 437 1009 468 1027 453 1021 b 385 972 421 997 403 985 b 356 953 375 966 366 959 b 325 935 345 946 335 940 b 293 921 315 930 304 925 b 260 908 282 916 271 912 b 176 880 230 897 202 888 b 131 864 150 872 135 867 z "},"F":{"ha":994,"x_min":0,"x_max":0,"o":"m 204 21 l 204 19 b 203 -15 204 6 204 -5 b 201 -44 203 -24 202 -34 l 196 -69 b 188 -97 194 -78 191 -87 b 161 -153 180 -119 171 -137 b 124 -200 151 -170 138 -185 l 116 -208 b 108 -214 114 -210 111 -212 l 18 -294 l 32 -311 l 243 -150 b 249 -147 245 -149 247 -148 b 254 -142 250 -145 252 -144 b 322 -89 278 -124 301 -106 b 367 -36 344 -71 358 -54 b 377 -15 370 -29 374 -22 b 386 4 380 -8 383 -1 b 393 32 389 13 391 23 b 396 65 395 41 396 52 l 396 385 l 564 385 l 572 385 l 581 385 l 611 385 b 640 386 620 385 630 385 b 675 388 651 386 663 387 b 715 394 687 390 700 392 b 749 401 727 396 738 399 l 779 410 b 804 419 788 413 796 416 b 831 431 813 422 821 426 b 841 435 834 432 838 434 b 851 440 844 437 848 438 b 873 452 859 444 866 448 b 893 465 880 456 887 461 b 910 477 899 469 904 473 b 928 492 915 481 921 486 b 887 487 913 490 899 488 b 850 483 874 485 862 484 b 812 481 837 482 824 481 b 771 479 799 480 786 479 b 743 478 762 478 752 478 l 717 478 l 701 478 l 686 478 b 663 479 679 479 671 479 b 640 481 655 479 648 480 b 619 481 634 481 627 481 b 597 483 612 482 605 482 l 390 492 l 390 949 l 728 947 b 748 948 735 947 742 947 b 767 949 754 948 760 949 b 781 951 771 950 776 950 b 797 954 786 952 792 953 b 822 963 806 957 815 960 b 844 972 830 965 837 969 b 862 983 850 976 856 979 b 881 993 868 986 874 989 b 897 1002 886 996 891 999 b 911 1011 902 1005 906 1008 b 917 1015 913 1012 915 1013 b 924 1019 920 1016 922 1018 b 940 1029 929 1022 934 1025 b 957 1043 945 1033 950 1038 l 292 1042 b 272 1041 284 1042 278 1041 b 254 1040 267 1041 261 1040 b 240 1038 250 1039 245 1038 b 224 1035 234 1037 229 1036 b 210 1031 219 1034 215 1033 b 199 1026 206 1030 202 1028 b 192 1024 197 1025 195 1025 b 186 1022 190 1023 188 1022 l 40 940 l 201 936 l 203 225 z "},"G":{"ha":1207,"x_min":0,"x_max":0,"o":"m 326 129 l 326 128 b 491 26 388 80 442 46 b 628 -3 540 7 585 -3 b 690 3 649 -3 670 -1 b 749 19 709 6 729 12 b 789 37 763 25 776 31 b 829 57 802 43 815 50 b 841 63 833 59 837 61 b 854 69 845 66 850 68 b 891 85 867 75 879 80 b 917 96 903 89 911 93 b 918 66 918 86 918 76 l 918 38 b 917 13 918 29 918 21 b 917 -11 917 4 917 -4 b 911 -65 916 -29 914 -47 b 901 -125 908 -83 905 -103 b 897 -148 900 -132 899 -140 b 890 -172 894 -156 892 -164 b 885 -185 888 -177 887 -181 b 882 -197 884 -190 883 -194 b 867 -244 876 -215 871 -231 b 860 -271 862 -258 860 -267 l 860 -272 b 861 -272 860 -272 860 -272 l 861 -274 l 861 -274 b 889 -253 866 -275 875 -269 b 935 -203 903 -238 918 -221 l 938 -200 l 940 -197 b 956 -179 945 -191 950 -185 b 971 -162 961 -174 966 -168 b 974 -158 972 -161 973 -159 b 979 -154 976 -156 977 -155 b 1001 -134 987 -147 994 -140 b 1024 -115 1009 -128 1016 -122 b 1057 -85 1036 -106 1047 -96 b 1082 -42 1067 -74 1075 -59 b 1090 -17 1085 -33 1087 -25 b 1096 4 1092 -9 1094 -2 b 1098 22 1097 10 1097 16 b 1099 40 1098 28 1099 34 l 1099 49 l 1099 60 l 1147 561 l 964 560 b 918 556 947 560 932 558 b 878 544 904 553 891 549 b 844 531 867 541 855 536 b 807 517 832 526 820 521 l 793 511 l 779 506 l 760 497 b 740 488 753 494 747 491 l 713 474 b 683 457 703 469 694 463 b 713 460 694 458 704 459 b 739 463 722 461 731 462 b 764 465 747 463 756 464 b 790 465 772 465 781 465 b 815 467 800 466 808 467 b 836 468 823 468 830 468 l 846 468 l 854 468 l 869 468 l 885 468 l 951 464 l 932 133 b 899 124 920 130 909 126 b 869 117 890 121 880 119 b 843 113 861 115 852 114 b 814 113 834 113 824 113 l 810 113 l 807 113 l 803 113 l 800 113 l 794 113 b 786 114 791 113 789 113 b 705 130 758 116 731 121 b 635 158 678 139 655 148 b 608 174 625 164 616 169 b 588 188 600 178 593 183 l 444 290 b 304 416 392 328 345 370 b 244 590 263 462 244 520 b 263 703 244 625 250 662 b 321 840 275 744 294 789 b 383 897 336 868 356 887 b 471 911 410 906 439 911 b 513 910 485 911 499 911 b 554 906 526 909 540 907 b 575 903 561 905 568 904 b 596 901 582 902 589 901 l 825 871 b 856 867 835 870 846 869 b 888 861 867 865 877 863 b 979 833 921 855 951 845 b 1028 781 1007 820 1023 803 l 1028 777 l 1028 772 b 1027 765 1028 769 1028 767 b 1026 757 1027 762 1026 760 b 1024 745 1025 753 1025 749 b 1021 735 1023 741 1022 738 b 1015 716 1018 727 1016 721 b 1014 707 1013 711 1013 708 b 1026 707 1018 704 1022 704 b 1040 719 1030 710 1035 714 b 1046 726 1042 721 1044 724 b 1051 733 1048 729 1050 731 l 1057 742 l 1063 750 l 1142 858 b 1147 865 1144 861 1145 863 b 1151 871 1148 867 1150 869 b 1153 874 1152 872 1153 873 b 1156 876 1154 875 1155 875 b 1166 890 1159 881 1163 886 b 1171 907 1169 895 1171 900 l 1171 909 l 1171 911 b 1169 917 1171 913 1170 915 b 1164 922 1167 919 1166 920 b 1042 965 1146 937 1106 951 b 838 999 979 978 911 989 b 689 1015 787 1006 737 1012 b 569 1021 641 1019 601 1021 l 561 1021 l 554 1021 b 547 1019 551 1020 549 1019 l 540 1019 b 505 1000 535 1019 523 1013 b 442 958 487 987 466 973 b 422 944 435 954 428 949 b 400 932 415 940 407 936 b 378 919 393 927 385 923 b 356 910 370 916 363 913 b 323 899 345 906 334 902 b 288 888 311 895 300 891 b 208 867 259 879 232 872 b 171 857 184 862 172 859 b 149 830 164 850 157 841 b 125 794 141 819 133 807 b 71 679 106 762 88 724 b 43 542 54 635 45 589 l 43 535 l 43 529 l 43 523 l 43 517 b 131 307 46 441 75 371 b 325 126 187 243 252 183 z "},"H":{"ha":1318,"x_min":0,"x_max":0,"o":"m 289 -7 l 289 -7 l 475 63 l 475 739 l 475 748 b 476 757 475 751 475 754 b 537 876 482 800 502 839 b 653 944 572 912 610 935 b 658 945 655 944 656 945 b 664 946 660 946 662 946 b 669 947 666 947 668 947 l 675 947 l 680 947 l 685 947 b 708 943 692 946 700 945 b 729 938 716 941 723 939 l 744 933 b 753 931 748 931 751 931 l 840 881 b 884 851 853 873 868 863 b 932 808 900 839 916 825 b 1037 667 970 770 1005 723 b 1085 489 1069 610 1085 551 l 1085 485 l 1085 481 b 1042 258 1082 404 1068 329 b 917 46 1016 186 974 115 l 876 -3 b 862 -19 872 -8 867 -14 b 847 -37 857 -25 852 -31 b 844 -39 846 -37 845 -38 b 843 -42 844 -40 843 -41 b 800 -90 827 -59 813 -75 b 783 -121 787 -105 781 -115 b 787 -125 784 -123 785 -124 b 792 -126 788 -126 790 -126 b 819 -112 798 -126 807 -122 b 856 -79 830 -103 843 -92 b 861 -75 857 -78 859 -77 b 867 -68 863 -73 865 -71 b 885 -51 873 -62 879 -57 l 901 -35 l 1083 147 b 1123 192 1094 157 1107 172 b 1174 263 1139 212 1156 236 b 1242 390 1198 300 1220 342 b 1279 536 1263 437 1275 486 b 1281 549 1280 541 1281 545 l 1281 563 l 1281 568 l 1281 574 b 1279 579 1280 575 1279 577 l 1279 585 b 1206 785 1274 654 1249 721 b 1063 946 1162 850 1114 903 b 965 1012 1029 974 997 996 b 886 1036 933 1028 906 1036 l 886 1036 l 886 1036 l 885 1036 l 885 1036 b 758 1013 850 1035 808 1027 b 604 957 708 998 657 979 b 585 950 598 955 591 953 b 565 943 578 947 572 945 l 482 907 l 482 1343 l 192 1343 l 43 1247 l 289 1239 l 289 528 z "},"I":{"ha":507,"x_min":0,"x_max":0,"o":"m 232 928 l 232 928 l 465 928 l 321 1024 l 42 1024 l 42 313 l 42 88 l 232 -7 l 232 704 z m 167 1347 l 167 1346 b 160 1344 165 1346 163 1345 b 154 1338 158 1342 156 1340 b 149 1333 152 1337 150 1335 l 143 1328 b 142 1326 143 1327 143 1326 b 140 1325 142 1325 141 1325 l 69 1246 l 66 1242 l 63 1239 l 60 1237 l 60 1236 b 47 1222 55 1231 51 1227 b 40 1211 44 1218 41 1214 b 45 1201 40 1208 42 1205 b 57 1188 48 1197 52 1192 l 60 1185 l 63 1182 l 67 1177 b 72 1175 69 1176 70 1175 l 157 1096 l 159 1094 l 161 1092 b 163 1091 162 1092 163 1091 l 165 1089 b 174 1083 168 1086 171 1084 b 182 1079 178 1081 180 1080 b 188 1081 184 1079 186 1080 b 194 1085 189 1081 192 1083 b 196 1088 194 1086 195 1087 l 199 1090 b 203 1094 200 1091 202 1092 b 206 1099 204 1095 205 1097 l 283 1178 l 287 1181 b 292 1185 288 1183 290 1184 l 294 1188 l 296 1189 b 308 1201 300 1193 304 1197 b 313 1215 311 1205 313 1210 l 313 1219 b 311 1222 313 1220 312 1221 b 301 1233 310 1224 307 1228 b 281 1253 295 1239 288 1245 b 278 1253 280 1253 279 1253 b 278 1256 278 1254 278 1255 b 269 1263 275 1257 272 1260 l 261 1271 l 203 1319 l 199 1323 b 194 1326 198 1324 196 1325 b 193 1328 194 1327 194 1328 b 192 1331 192 1329 192 1330 l 181 1339 b 169 1343 177 1342 173 1343 l 168 1343 l 168 1344 z "},"J":{"ha":536,"x_min":0,"x_max":0,"o":"m 388 -29 l 388 -29 b 413 -10 397 -22 405 -15 b 435 6 420 -4 427 1 b 441 10 437 7 439 9 b 449 15 443 12 446 13 b 469 29 455 20 462 25 b 492 46 476 34 483 39 l 492 757 l 492 1032 l 213 1032 l 39 928 l 301 928 l 307 217 l 308 175 b 301 73 309 138 307 104 b 278 -15 296 42 288 13 b 266 -45 274 -25 270 -35 b 253 -75 262 -55 257 -65 b 250 -81 252 -77 251 -79 b 246 -87 249 -84 248 -86 b 203 -149 235 -108 220 -128 b 149 -206 185 -169 167 -188 b 52 -287 112 -240 79 -267 b 44 -307 25 -308 22 -314 b 94 -285 63 -300 79 -293 b 135 -257 108 -276 122 -267 b 163 -233 144 -250 153 -242 b 196 -208 173 -225 184 -217 b 249 -163 216 -194 234 -178 b 293 -118 263 -148 278 -133 b 336 -74 307 -103 321 -88 b 389 -28 351 -59 369 -44 z m 396 1321 l 396 1319 l 394 1322 b 393 1324 393 1322 393 1323 l 388 1329 l 383 1333 b 376 1340 381 1336 378 1338 b 369 1342 373 1341 371 1342 l 369 1342 l 369 1342 l 368 1342 l 368 1342 b 358 1338 365 1342 362 1340 b 346 1329 353 1335 350 1332 b 344 1327 346 1328 345 1328 b 343 1325 344 1327 343 1326 b 338 1322 341 1324 340 1323 b 335 1319 337 1320 336 1319 l 276 1268 b 269 1262 275 1266 272 1264 b 263 1256 267 1259 264 1257 l 260 1253 l 257 1250 l 240 1233 b 231 1222 234 1228 231 1224 b 230 1219 231 1221 230 1220 l 229 1218 l 229 1215 l 229 1213 b 235 1196 229 1206 231 1200 b 247 1183 238 1191 243 1187 l 248 1183 l 249 1182 l 251 1179 b 254 1178 252 1178 253 1178 l 332 1096 b 335 1092 333 1095 334 1094 b 339 1089 336 1091 337 1090 l 342 1086 l 344 1083 b 350 1079 346 1081 348 1080 b 356 1078 352 1078 354 1078 b 364 1081 358 1079 361 1080 b 372 1088 367 1083 369 1085 l 374 1090 b 376 1090 375 1090 375 1090 l 378 1092 b 381 1096 379 1093 380 1094 l 465 1172 b 470 1176 467 1173 469 1174 l 475 1181 l 478 1183 l 481 1186 b 493 1199 485 1191 489 1195 b 497 1210 497 1203 498 1207 b 490 1221 496 1213 494 1216 b 478 1235 487 1225 482 1230 l 477 1235 l 475 1238 l 472 1241 b 468 1246 470 1242 469 1244 l 397 1324 z "},"K":{"ha":1519,"x_min":0,"x_max":0,"o":"m 303 -1 l 303 -1 l 486 81 l 482 542 l 482 544 l 482 547 l 482 549 l 482 551 l 482 557 b 483 561 482 559 482 560 b 487 565 484 563 485 564 b 492 567 488 566 490 567 b 498 565 494 567 496 566 b 506 561 500 564 503 563 b 510 558 507 560 509 559 b 515 554 512 557 513 556 b 525 548 519 552 522 550 b 531 544 528 546 530 544 l 846 231 l 851 226 l 854 222 b 903 173 871 206 887 189 b 950 126 919 157 934 141 b 1049 47 982 95 1016 69 b 1157 11 1083 26 1119 14 l 1167 11 l 1175 11 b 1226 17 1194 11 1211 13 b 1272 35 1242 22 1257 27 b 1306 53 1283 40 1295 47 b 1343 76 1318 60 1330 68 b 1367 90 1350 81 1358 86 b 1393 103 1375 95 1384 99 b 1462 136 1418 116 1441 127 b 1490 158 1483 145 1492 153 b 1487 162 1489 160 1488 161 b 1481 163 1485 162 1483 163 b 1453 157 1474 163 1465 161 b 1414 144 1442 153 1429 149 b 1391 138 1406 143 1399 141 b 1368 133 1383 136 1375 134 b 1344 129 1360 131 1352 130 b 1321 128 1336 128 1328 128 l 1319 128 l 1318 128 l 1316 128 l 1314 128 b 1262 142 1298 129 1281 133 b 1204 172 1243 150 1224 160 b 1164 200 1190 181 1177 190 l 1125 231 b 1076 272 1107 244 1091 258 b 1038 310 1060 286 1048 299 l 653 690 b 722 738 678 707 701 723 b 783 782 744 752 764 767 b 804 797 791 787 798 791 b 824 811 811 802 817 806 b 885 860 844 827 865 843 b 953 915 906 876 929 895 b 996 951 969 928 983 940 b 1033 985 1009 963 1021 974 b 1039 990 1035 987 1037 988 b 1044 994 1041 991 1043 993 b 1081 1028 1056 1006 1069 1017 b 1121 1065 1093 1040 1106 1052 b 1094 1063 1113 1064 1104 1063 b 1067 1058 1085 1062 1076 1060 b 985 1039 1039 1054 1012 1047 b 917 1008 958 1031 935 1020 b 835 943 885 988 858 966 b 769 872 813 920 791 896 b 751 852 764 866 758 859 b 733 831 745 845 739 838 b 701 797 723 819 713 808 b 667 764 690 786 679 775 b 597 705 637 737 614 717 b 549 675 579 692 563 682 b 542 671 547 673 545 672 b 536 668 540 670 538 669 l 508 654 b 475 639 499 650 488 644 l 476 1042 l 242 1044 l 231 1044 l 222 1044 l 219 1044 l 215 1044 l 209 1044 b 201 1043 207 1044 204 1044 b 184 1039 195 1042 189 1041 b 168 1032 179 1037 174 1035 b 164 1029 167 1031 166 1030 b 158 1028 162 1028 160 1028 l 33 950 l 283 953 l 297 242 z "},"L":{"ha":1006,"x_min":0,"x_max":0,"o":"m 214 -3 l 214 -3 l 550 -8 l 635 -8 b 711 -1 661 -8 686 -6 b 765 11 729 1 747 6 b 822 35 783 17 802 25 b 858 53 834 40 846 47 b 890 74 869 60 880 67 b 938 108 908 86 924 97 b 969 136 951 119 962 129 l 960 144 b 938 132 951 140 944 136 l 918 121 b 882 106 907 115 895 110 b 829 97 869 102 851 99 b 781 93 812 95 796 94 b 739 93 767 92 753 92 b 699 94 726 93 713 93 b 651 97 685 94 669 95 l 401 113 l 397 824 l 393 1326 l 190 1332 l 183 1332 l 176 1332 l 166 1332 b 156 1329 163 1332 159 1331 b 147 1325 152 1328 149 1327 b 139 1319 144 1323 142 1321 b 133 1315 137 1318 135 1316 l 128 1313 l 29 1238 l 204 1238 l 210 526 z "},"M":{"ha":1914,"x_min":0,"x_max":0,"o":"m 272 346 l 272 344 b 257 373 266 355 261 364 b 247 400 253 382 250 391 b 241 426 244 408 242 417 b 236 453 240 434 238 444 b 231 480 234 461 233 470 b 225 510 230 490 228 500 b 224 517 224 512 224 514 l 224 525 b 235 602 224 544 228 569 b 268 706 243 635 254 669 b 333 830 285 750 306 791 b 424 904 359 868 389 893 b 433 906 426 905 430 906 b 446 907 437 907 441 907 b 582 869 475 907 521 894 b 779 722 643 843 709 794 b 787 714 782 719 784 717 b 793 706 789 711 791 708 b 824 654 807 689 817 672 b 835 594 831 637 835 617 l 835 592 l 835 590 l 824 0 l 1011 67 l 1011 406 l 1011 417 l 1011 428 b 1060 720 1013 531 1029 629 b 1254 906 1090 811 1155 873 b 1261 908 1256 906 1258 907 b 1271 907 1264 908 1267 908 b 1347 887 1290 907 1316 900 b 1446 831 1379 873 1412 855 b 1570 717 1490 799 1532 761 b 1647 572 1609 672 1634 624 b 1649 563 1648 569 1649 566 b 1649 553 1650 560 1650 556 b 1628 453 1649 528 1642 494 b 1576 322 1614 411 1597 368 b 1545 260 1566 301 1556 280 b 1513 201 1534 239 1524 220 l 1421 42 b 1461 31 1436 37 1449 33 b 1497 24 1473 28 1485 25 b 1531 20 1508 22 1520 21 b 1568 19 1543 20 1555 19 l 1576 19 l 1585 19 b 1650 22 1609 19 1631 20 b 1708 32 1669 24 1689 27 b 1744 43 1720 35 1732 38 b 1782 60 1756 48 1769 53 b 1787 63 1784 61 1785 62 b 1792 65 1788 63 1790 64 b 1828 87 1806 72 1818 79 b 1860 113 1839 95 1850 103 l 1872 125 b 1886 140 1877 130 1881 135 b 1853 133 1874 138 1863 135 b 1822 128 1843 130 1832 129 b 1788 124 1811 126 1800 125 b 1747 122 1775 123 1762 122 b 1711 123 1734 122 1722 122 b 1678 125 1700 123 1689 124 b 1647 128 1668 126 1657 127 b 1614 136 1637 130 1626 132 l 1779 414 b 1814 479 1792 436 1804 458 b 1839 542 1824 500 1832 521 b 1845 574 1842 553 1844 564 b 1847 606 1847 585 1847 595 l 1847 611 l 1847 617 b 1846 621 1846 618 1846 619 l 1846 626 b 1769 808 1840 694 1815 755 b 1622 944 1724 862 1675 907 b 1491 1019 1576 977 1532 1002 b 1407 1044 1450 1036 1422 1044 l 1405 1044 l 1403 1044 b 1367 1036 1390 1043 1378 1040 b 1338 1024 1357 1032 1347 1028 b 1320 1014 1332 1021 1326 1018 b 1301 1003 1314 1010 1308 1006 l 1047 822 b 1042 817 1045 820 1044 819 b 1036 813 1040 816 1038 814 b 1032 810 1034 812 1033 811 l 1028 806 b 1015 796 1024 802 1020 799 b 997 792 1009 793 1004 792 b 974 799 988 792 980 794 b 957 815 968 803 963 809 b 953 820 955 817 954 819 b 949 825 952 822 950 823 b 944 831 947 827 945 829 b 939 838 942 832 941 835 l 901 874 b 849 921 885 890 867 906 b 793 963 830 936 812 950 b 718 1005 768 979 743 993 b 649 1031 693 1016 670 1025 b 631 1034 642 1032 636 1034 b 614 1035 625 1034 619 1035 b 593 1033 606 1035 600 1034 b 572 1028 587 1031 580 1030 b 546 1017 564 1025 555 1022 b 517 1004 537 1013 527 1009 l 206 833 b 179 814 197 829 188 822 b 151 783 170 806 161 795 b 84 669 127 754 105 716 b 42 524 63 622 49 574 b 40 498 41 515 40 507 b 39 472 39 489 39 481 l 39 467 b 40 461 39 465 39 463 l 40 456 l 40 450 b 52 372 42 421 46 395 b 76 304 58 349 66 326 b 97 264 82 291 89 278 b 122 222 104 250 113 236 l 260 1 l 426 93 z "},"N":{"ha":1342,"x_min":0,"x_max":0,"o":"m 282 0 l 282 0 l 468 69 l 468 726 b 470 749 468 734 469 741 b 475 774 472 757 473 765 b 543 882 487 813 510 849 b 650 944 576 915 612 936 b 664 947 655 945 659 946 b 678 947 669 947 673 947 l 687 947 b 697 946 690 947 694 947 b 727 941 707 945 717 943 b 753 933 737 939 745 936 b 776 926 762 931 770 928 b 788 922 782 923 786 922 l 875 872 b 914 847 887 866 900 857 b 956 813 928 837 942 825 b 1058 678 993 776 1027 732 b 1106 507 1090 625 1106 568 l 1106 503 l 1106 499 b 1079 349 1104 448 1095 398 b 1014 206 1063 301 1042 253 b 969 133 1001 181 986 157 b 917 63 953 109 935 86 l 860 -11 b 846 -28 855 -17 850 -22 b 831 -47 841 -34 836 -41 l 828 -49 b 828 -51 828 -50 828 -50 b 787 -101 813 -69 799 -86 b 771 -133 774 -117 769 -128 b 795 -130 773 -141 781 -140 b 842 -92 809 -120 825 -107 l 847 -86 l 853 -81 b 881 -56 863 -72 872 -64 l 901 -35 l 1083 142 b 1128 188 1094 153 1109 168 b 1186 258 1146 208 1166 231 b 1269 397 1217 299 1244 345 b 1307 556 1294 448 1307 501 b 1226 788 1307 637 1280 714 b 1049 967 1173 861 1113 920 b 941 1028 1012 993 976 1013 b 851 1051 906 1044 876 1051 l 848 1051 l 844 1051 b 841 1050 844 1050 842 1050 l 838 1050 b 730 1017 808 1045 772 1034 b 599 954 688 1000 644 979 b 557 931 585 947 571 939 b 517 907 543 922 530 914 l 475 879 l 475 1019 l 210 1019 l 36 928 l 282 924 l 282 213 z "},"O":{"ha":1181,"x_min":0,"x_max":0,"o":"m 778 1022 l 778 1021 b 757 1026 771 1023 764 1025 b 736 1032 750 1028 743 1030 b 673 1042 715 1037 694 1040 b 613 1044 652 1044 632 1044 b 519 1035 579 1044 548 1041 b 446 1010 491 1029 466 1021 l 250 892 b 110 755 186 854 140 808 b 49 564 81 702 61 638 b 43 519 46 549 44 534 b 42 472 42 503 42 488 b 109 224 42 381 64 299 b 303 46 154 150 219 90 b 423 -1 344 25 384 10 b 540 -17 462 -11 501 -17 b 661 1 581 -17 621 -11 b 781 60 701 13 741 33 l 976 188 b 1108 340 1040 229 1084 280 b 1143 543 1131 400 1143 468 l 1143 547 l 1143 551 l 1143 555 l 1143 558 b 1040 851 1142 673 1108 771 b 775 1021 973 932 884 988 z m 251 372 l 251 371 b 233 451 243 397 237 424 b 225 536 228 479 226 507 l 225 551 l 225 565 b 253 780 225 642 234 714 b 324 907 272 846 296 888 b 364 920 332 913 345 917 b 431 925 382 923 405 925 b 520 919 457 925 487 923 b 621 899 553 915 587 908 b 761 845 669 887 716 869 b 872 756 806 822 844 792 b 935 638 900 721 921 682 b 961 503 949 594 957 549 b 963 474 962 494 963 484 b 964 446 964 465 964 455 b 940 272 964 383 956 325 b 881 161 925 219 905 182 b 810 122 859 143 836 129 b 729 110 784 114 757 110 b 675 114 712 110 694 111 b 619 125 656 117 638 120 b 484 179 573 138 528 156 b 367 251 440 202 401 226 b 290 317 335 275 309 297 b 253 371 270 338 257 356 z "},"P":{"ha":1072,"x_min":0,"x_max":0,"o":"m 414 424 l 414 424 l 464 422 b 535 426 487 422 511 423 b 607 436 559 428 583 431 b 903 548 714 456 813 493 b 1036 736 993 603 1037 666 l 1036 739 l 1036 742 l 1036 744 l 1036 747 b 911 969 1028 844 986 919 b 660 1046 836 1020 752 1046 l 652 1046 l 644 1046 b 637 1044 642 1045 639 1044 b 629 1046 634 1044 632 1045 l 256 1021 b 237 1020 249 1021 243 1021 b 219 1018 231 1020 225 1019 b 202 1015 214 1017 208 1016 b 183 1010 196 1013 190 1012 b 163 1001 176 1007 169 1004 b 146 993 157 999 151 996 b 137 986 143 990 140 988 b 126 981 134 984 130 982 l 35 914 l 231 926 l 231 215 l 231 -6 l 410 72 z m 490 942 l 490 940 b 721 885 575 942 651 924 b 838 679 790 846 829 777 l 838 672 l 838 665 b 768 531 838 611 814 566 b 615 469 722 497 671 476 b 601 467 611 469 606 468 b 588 467 597 467 592 467 l 585 467 l 585 467 l 583 467 l 581 467 b 556 467 572 467 564 467 b 531 469 547 468 539 469 b 496 475 519 471 507 473 b 465 481 485 477 475 479 b 430 488 451 483 440 486 b 413 494 420 491 414 493 l 413 940 z "},"Q":{"ha":1011,"x_min":0,"x_max":0,"o":"m 518 303 l 518 303 l 379 358 b 260 458 325 381 286 414 b 215 610 235 502 220 552 l 215 615 l 215 618 b 214 623 214 620 214 622 l 214 628 b 215 648 214 634 214 641 b 218 669 216 655 217 662 b 242 748 223 696 231 722 b 276 815 253 773 264 796 b 305 858 286 832 295 846 b 328 881 315 869 322 877 b 340 885 331 882 335 884 b 360 886 346 886 352 886 b 412 881 374 886 391 884 b 475 869 433 878 454 874 b 515 858 489 866 502 862 b 551 847 528 855 540 851 l 632 814 l 636 812 b 640 811 637 811 638 811 b 756 727 699 788 737 760 b 785 558 774 694 784 638 b 685 258 787 437 753 337 b 460 113 617 180 542 131 b 429 106 450 110 439 108 b 399 104 419 105 409 104 l 395 104 l 392 104 l 388 104 l 385 104 b 353 106 374 104 363 105 b 325 110 344 106 334 108 b 293 117 315 112 304 114 b 258 129 282 119 270 124 l 117 25 b 114 23 116 24 115 23 b 111 21 113 22 112 22 b 101 14 107 19 104 17 b 94 4 99 11 96 8 b 93 1 94 3 93 2 l 93 -1 l 93 -2 l 93 -3 l 93 -3 l 93 -4 b 102 -12 94 -8 97 -10 b 118 -17 107 -13 113 -15 l 121 -17 l 124 -17 b 126 -17 125 -17 125 -17 b 129 -18 127 -18 128 -18 l 194 -31 b 226 -37 206 -33 217 -36 b 253 -43 236 -39 244 -41 b 261 -44 256 -43 258 -44 l 269 -47 b 325 -62 286 -51 305 -56 b 415 -87 345 -68 375 -76 b 478 -106 437 -94 458 -100 b 539 -125 499 -112 519 -119 b 721 -183 603 -144 663 -164 b 892 -236 778 -202 835 -219 b 1088 -281 956 -254 1021 -269 b 1301 -300 1154 -293 1225 -299 l 1328 -300 l 1354 -300 b 1448 -297 1388 -300 1419 -299 b 1535 -282 1477 -294 1506 -289 b 1601 -260 1557 -276 1579 -269 b 1671 -228 1624 -252 1647 -241 l 1799 -158 l 1804 -156 b 1811 -151 1806 -155 1808 -153 b 1832 -138 1819 -148 1825 -143 b 1840 -124 1838 -133 1841 -128 b 1827 -121 1839 -119 1835 -118 b 1801 -132 1819 -124 1811 -127 l 1801 -133 b 1799 -133 1800 -133 1800 -133 b 1789 -139 1796 -135 1793 -137 b 1779 -143 1785 -141 1782 -142 l 1693 -181 b 1628 -198 1675 -188 1653 -194 b 1553 -204 1604 -202 1579 -204 l 1542 -204 l 1532 -204 b 1434 -195 1496 -202 1463 -199 b 1349 -179 1405 -191 1376 -186 b 1301 -167 1333 -175 1317 -171 b 1253 -153 1286 -162 1269 -157 l 542 63 l 476 82 b 542 115 481 83 503 94 b 668 189 581 135 623 160 b 706 214 681 197 694 206 b 743 239 719 222 731 231 b 782 267 757 248 770 258 b 815 296 794 277 805 287 b 838 317 823 303 830 310 b 858 339 845 324 852 331 b 948 482 900 383 930 431 b 979 679 966 533 976 599 l 979 685 l 979 690 b 896 880 979 769 951 832 b 713 983 840 928 779 962 b 618 1006 680 994 649 1001 b 535 1014 588 1011 560 1014 b 499 1012 522 1014 510 1013 b 471 1006 488 1010 478 1008 b 421 981 451 999 435 991 b 381 950 407 972 394 961 b 351 924 371 942 362 933 b 317 896 341 914 330 905 b 207 825 276 864 239 841 b 135 782 175 809 150 795 l 130 777 l 126 774 b 67 674 104 750 84 717 b 40 535 49 630 40 584 l 40 529 b 42 525 40 527 41 526 l 42 519 l 42 514 b 113 324 46 441 70 377 b 265 206 155 270 206 231 l 324 181 z "},"R":{"ha":1319,"x_min":0,"x_max":0,"o":"m 417 926 l 417 925 b 445 931 427 927 436 929 b 471 935 454 932 463 934 b 487 935 476 935 482 935 b 503 936 492 936 497 936 l 509 936 l 517 936 b 523 935 519 935 521 935 l 531 935 b 728 884 602 931 668 914 b 843 738 788 854 826 805 b 844 731 844 736 844 733 l 844 722 b 833 680 844 709 841 695 b 800 635 825 665 814 650 b 718 562 779 610 751 585 b 615 503 685 538 650 519 b 598 495 610 500 604 497 b 581 490 592 493 586 491 l 528 469 b 522 467 526 469 524 468 b 515 464 519 466 517 465 b 506 460 512 463 508 462 b 500 453 503 458 501 456 l 500 453 l 500 453 l 500 451 l 500 451 b 524 413 501 446 509 433 b 576 349 540 393 557 372 b 580 344 577 348 578 346 b 583 340 581 343 582 341 b 633 283 601 320 617 301 b 664 247 648 266 658 254 b 702 207 678 232 691 219 b 736 172 714 195 725 183 b 737 171 736 171 736 171 l 738 171 b 769 138 748 160 758 149 b 804 100 781 126 792 114 b 812 92 807 97 809 94 b 819 82 814 89 817 86 b 885 25 839 62 861 43 b 969 -4 910 7 938 -2 l 974 -4 l 978 -4 l 981 -4 l 985 -4 b 1043 4 1006 -4 1025 -1 b 1094 25 1061 10 1078 17 b 1120 40 1103 30 1111 35 b 1147 56 1129 46 1138 51 b 1169 68 1155 60 1162 64 b 1193 81 1177 72 1185 76 l 1286 125 l 1276 142 b 1264 135 1275 142 1271 140 b 1236 122 1256 131 1247 127 b 1199 109 1225 118 1213 113 b 1158 101 1186 105 1172 102 l 1153 101 l 1147 101 l 1144 101 l 1142 101 l 1139 101 l 1136 101 b 1086 114 1117 102 1100 106 b 1046 143 1072 121 1059 131 b 1040 150 1044 146 1042 148 b 1033 158 1037 152 1035 155 l 1010 182 b 971 222 996 197 983 210 b 936 258 959 234 947 246 l 935 259 b 933 260 935 259 934 260 b 900 294 922 271 911 282 b 864 333 889 305 877 319 b 825 377 850 349 837 364 b 790 417 813 391 801 404 b 783 426 788 419 785 422 b 775 435 780 429 778 432 b 744 473 765 447 754 459 b 710 518 733 486 722 501 l 733 528 b 759 539 742 531 750 535 b 785 551 768 543 776 547 b 953 650 846 580 902 613 b 1031 793 1005 687 1031 735 l 1031 804 b 1029 815 1031 808 1030 812 b 955 952 1022 873 997 918 b 818 1026 913 986 867 1011 b 728 1049 788 1037 758 1044 b 654 1056 699 1053 675 1056 l 652 1056 l 651 1056 l 649 1056 l 647 1056 b 567 1051 619 1055 592 1053 b 497 1044 543 1048 519 1046 b 426 1037 474 1042 450 1039 b 346 1032 402 1034 375 1033 b 309 1031 333 1031 321 1031 l 275 1031 l 269 1031 l 263 1031 l 253 1031 b 244 1032 250 1031 247 1031 l 228 1032 l 210 1032 b 201 1028 207 1031 204 1030 b 192 1025 197 1027 194 1026 b 173 1017 185 1022 179 1019 b 156 1008 167 1014 161 1011 b 135 999 149 1006 142 1002 b 114 986 128 995 121 991 b 98 977 108 983 103 980 b 83 968 93 974 88 971 b 74 961 81 965 78 963 b 65 956 71 959 68 957 b 48 942 60 951 54 947 b 29 929 42 938 36 934 l 226 931 l 231 219 l 233 -4 l 415 58 l 415 769 z "},"S":{"ha":925,"x_min":0,"x_max":0,"o":"m 89 828 l 89 826 b 79 790 85 820 82 808 b 75 732 76 773 75 753 l 75 724 b 76 715 75 721 75 718 b 81 667 77 699 79 682 b 92 626 84 651 87 638 b 133 586 99 612 113 598 b 197 554 153 574 174 563 b 200 552 198 553 199 553 b 203 553 201 552 202 552 l 517 422 b 619 374 569 401 604 385 b 656 343 635 363 647 352 b 678 309 665 334 672 322 b 692 268 683 296 688 282 b 697 234 694 256 696 245 b 699 204 698 223 699 213 b 697 177 699 193 698 184 b 692 164 695 170 694 166 b 615 138 671 151 646 142 b 515 132 584 134 550 132 b 465 135 500 132 483 133 b 413 143 448 137 430 139 b 325 165 383 149 354 156 b 250 194 296 175 271 184 b 210 217 233 202 220 209 b 196 238 201 225 196 232 l 196 239 l 196 239 b 198 247 196 242 197 244 b 203 254 199 249 201 251 b 207 260 205 256 206 258 l 210 265 l 210 270 b 208 274 210 272 209 273 b 199 278 206 278 202 280 b 186 269 195 276 191 273 l 183 266 b 179 261 181 265 180 263 b 174 256 177 259 176 257 b 169 251 173 254 171 252 l 76 156 l 72 151 l 67 146 b 65 144 66 146 65 145 b 63 142 64 144 63 143 b 51 129 58 138 54 134 b 46 114 47 125 46 119 l 46 113 b 47 111 46 113 46 112 l 47 110 l 47 108 b 70 84 49 102 57 94 b 121 56 84 74 100 65 b 207 21 146 44 175 32 b 308 -4 239 10 273 1 b 356 -11 324 -7 340 -9 b 404 -14 372 -13 388 -14 l 407 -14 l 410 -14 l 411 -14 l 414 -14 l 422 -14 l 431 -14 b 469 -12 444 -13 457 -12 b 506 -8 481 -11 494 -10 b 537 -1 516 -6 526 -4 b 571 11 547 1 559 6 b 615 46 582 16 597 27 b 676 104 634 64 654 84 b 699 126 684 112 691 119 b 724 147 707 134 715 141 b 727 150 725 148 726 149 b 731 153 728 151 730 152 b 749 167 736 157 742 162 b 768 182 755 171 762 176 b 774 187 770 184 772 185 b 781 192 777 188 779 190 b 843 235 804 207 825 222 b 872 261 862 249 871 257 b 877 284 874 269 876 276 b 879 307 878 292 879 300 l 879 313 b 878 319 879 316 879 318 b 858 395 876 345 869 371 b 819 460 847 420 834 441 b 719 542 796 490 763 518 b 578 608 676 566 629 588 l 367 689 b 282 731 326 706 298 720 b 254 764 266 743 257 754 l 254 768 l 254 771 l 254 775 l 254 782 b 253 790 253 784 253 786 l 253 799 b 253 817 253 804 253 810 b 257 836 254 823 255 830 b 266 869 259 847 262 858 b 285 894 270 879 276 888 b 288 895 286 894 287 895 l 294 897 b 344 902 305 899 321 901 b 418 904 366 903 391 904 l 428 904 l 439 904 b 481 903 453 904 467 904 b 519 899 494 902 507 900 b 551 894 530 898 540 896 l 585 889 b 681 867 620 882 652 875 b 732 838 710 858 727 849 b 733 835 732 837 732 836 l 733 835 l 733 833 l 733 831 b 731 822 733 828 733 825 b 728 814 730 819 729 817 l 726 814 l 726 814 b 723 805 725 811 724 808 b 721 796 722 802 721 799 b 722 794 722 795 722 794 l 722 792 b 726 786 723 789 724 787 b 729 785 727 785 728 785 b 753 804 735 786 743 792 b 792 843 764 816 777 829 b 801 853 794 847 797 850 b 811 861 804 856 807 858 b 825 873 816 865 820 869 b 838 885 830 877 834 881 b 877 931 854 901 867 917 b 885 964 887 946 889 956 b 798 1015 866 990 837 1007 b 672 1032 759 1022 717 1028 l 670 1032 l 668 1032 b 656 1034 664 1033 660 1034 b 644 1035 652 1034 648 1035 b 607 1038 632 1036 620 1037 b 567 1039 594 1038 581 1039 l 558 1039 l 547 1039 b 501 1038 531 1039 516 1039 b 463 1038 487 1038 474 1038 b 434 1035 450 1037 441 1036 l 424 1035 b 369 1005 407 1030 389 1020 b 308 956 350 990 330 973 b 288 939 302 950 295 944 b 268 924 281 933 275 928 b 175 868 234 898 203 879 b 111 840 147 857 126 848 b 101 833 107 838 104 835 b 94 828 99 831 96 830 z "},"T":{"ha":1274,"x_min":0,"x_max":0,"o":"m 221 833 l 221 832 b 142 736 182 810 156 778 b 119 607 128 694 120 651 l 119 602 l 119 599 b 125 513 119 570 121 541 b 138 438 129 485 133 460 b 148 390 141 419 145 403 b 154 361 151 377 153 368 b 190 291 158 341 170 317 b 267 210 211 265 236 238 b 395 115 304 177 347 146 b 543 39 444 85 493 59 b 633 10 574 27 604 17 b 719 -1 663 3 692 0 l 720 -1 l 722 -1 l 724 -1 l 725 -1 b 802 8 749 -1 775 2 b 886 36 829 15 857 24 b 968 74 914 47 941 60 b 1043 118 995 89 1020 103 b 1144 193 1086 145 1119 170 b 1168 236 1168 216 1176 231 b 1166 238 1167 237 1166 238 l 1164 238 b 1131 219 1157 237 1147 230 b 1074 179 1116 207 1097 194 b 1003 145 1053 167 1030 156 b 917 124 977 134 948 127 b 904 122 913 123 909 122 l 890 122 b 797 136 862 122 831 127 b 694 171 764 145 730 157 b 592 221 660 186 626 202 b 499 278 559 239 527 258 b 403 352 461 304 429 328 b 356 410 377 376 361 395 b 333 499 345 438 338 467 b 324 594 328 530 325 562 l 324 606 l 324 617 b 340 776 324 674 329 727 b 381 881 351 825 365 860 b 406 904 388 891 396 899 b 435 919 415 910 425 915 b 443 923 438 920 440 922 b 451 928 446 924 449 926 l 690 926 b 878 931 759 926 822 928 b 1044 956 935 934 991 943 b 1107 974 1068 961 1088 967 b 1161 999 1125 981 1144 989 b 1197 1020 1173 1005 1185 1012 b 1236 1044 1209 1028 1222 1036 b 1219 1039 1234 1044 1229 1043 b 1171 1028 1210 1035 1194 1031 b 1062 1016 1145 1023 1109 1019 b 876 1011 1015 1013 953 1011 b 799 1012 852 1011 827 1011 b 713 1014 772 1012 743 1013 b 639 1016 687 1015 662 1016 b 571 1018 616 1016 593 1017 b 532 1019 558 1018 545 1018 b 494 1019 519 1019 506 1019 b 394 1024 461 1020 428 1022 b 281 1033 360 1025 322 1029 l 301 1047 b 308 1051 303 1048 305 1050 b 314 1056 310 1053 312 1055 b 322 1063 317 1058 319 1061 b 328 1068 324 1064 326 1066 b 339 1081 332 1073 336 1077 b 342 1092 342 1085 343 1089 b 339 1095 341 1094 340 1095 b 335 1096 338 1096 337 1096 b 286 1072 326 1096 310 1088 b 190 1018 262 1055 230 1038 l 160 1003 b 133 989 150 998 142 994 b 119 981 129 986 124 984 b 107 974 115 979 111 976 l 74 954 b 38 933 63 948 50 941 l 379 928 z "},"U":{"ha":1474,"x_min":0,"x_max":0,"o":"m 297 564 l 297 563 l 297 563 l 297 565 l 297 567 l 297 568 b 315 653 297 591 303 620 b 356 757 326 687 340 722 b 375 797 362 770 369 783 b 396 835 381 810 388 823 b 460 950 419 879 441 918 b 493 1000 480 982 491 999 b 472 1002 492 1000 485 1001 b 424 1007 458 1003 442 1005 b 386 1010 412 1008 399 1009 l 347 1013 b 312 1013 335 1013 323 1013 b 279 1014 300 1014 289 1014 b 239 1013 264 1014 251 1013 b 211 1008 227 1012 218 1010 b 176 993 208 1007 197 1002 b 110 958 156 984 134 972 b 74 936 98 952 86 944 b 42 913 62 928 51 920 l 307 908 l 261 829 b 258 823 260 827 259 825 b 253 817 256 821 255 819 b 156 647 218 757 185 701 b 111 489 126 594 111 541 l 111 486 l 111 482 b 112 470 111 478 111 474 b 114 457 112 466 113 462 b 199 261 122 390 151 325 b 358 96 248 197 301 142 b 479 13 400 62 440 34 b 571 -24 518 -9 549 -21 b 592 -26 578 -25 585 -25 b 613 -26 599 -26 606 -26 b 714 -13 645 -26 679 -22 b 819 26 749 -4 784 9 b 847 39 829 30 838 34 b 874 56 855 44 864 49 l 1018 139 l 1018 -3 l 1258 -7 l 1263 -7 l 1267 -7 l 1276 -7 l 1286 -7 b 1295 -6 1289 -7 1292 -6 b 1306 -3 1298 -5 1302 -4 b 1320 3 1311 -1 1316 1 b 1332 10 1324 5 1328 7 b 1337 13 1334 11 1335 12 b 1340 17 1338 13 1339 15 l 1439 92 l 1214 100 l 1210 811 l 1207 1014 l 954 1013 b 939 1012 949 1013 944 1012 b 926 1010 934 1011 930 1011 l 915 1007 l 904 1004 b 888 997 899 1002 893 1000 b 874 989 883 994 878 992 b 866 983 871 987 868 985 b 858 979 864 981 861 980 l 764 910 l 1014 907 l 1014 200 l 1007 185 b 978 150 1002 175 993 163 b 924 119 965 139 947 128 b 833 101 900 109 870 103 l 831 101 l 828 101 l 825 101 l 822 101 b 728 117 794 101 762 107 b 625 161 694 128 659 143 b 429 306 556 197 490 246 b 307 494 368 367 327 430 b 300 526 304 505 302 515 b 296 560 298 538 297 549 z "},"V":{"ha":1331,"x_min":0,"x_max":0,"o":"m 846 236 l 846 235 b 941 372 878 277 910 323 b 1032 519 972 420 1002 469 b 1204 840 1099 633 1156 740 b 1290 1025 1252 939 1281 1001 l 1007 1024 l 1001 1024 l 996 1024 b 987 1024 993 1024 990 1024 b 976 1024 984 1025 980 1025 l 964 1024 b 949 1021 959 1024 954 1023 l 938 1018 b 926 1014 934 1017 930 1016 b 921 1013 925 1014 923 1013 b 915 1011 919 1012 917 1011 l 782 933 l 1124 917 b 1100 851 1115 894 1107 872 b 1078 793 1093 831 1085 812 b 1056 740 1070 775 1063 758 b 1033 689 1049 723 1042 706 b 991 599 1020 659 1006 629 b 939 499 976 568 958 535 b 904 435 927 475 915 454 b 872 378 893 415 882 396 b 858 355 868 370 863 363 b 843 331 854 347 849 339 b 797 259 829 307 814 284 b 740 179 781 234 762 208 l 399 890 l 385 917 b 384 919 385 918 384 918 b 383 921 384 919 383 920 b 343 988 371 945 358 967 b 283 1018 328 1008 308 1018 l 283 1018 l 283 1018 l 282 1018 l 282 1018 b 226 995 264 1018 246 1010 b 164 946 206 980 185 963 b 144 929 157 940 151 935 b 124 913 137 924 130 918 b 115 906 121 911 118 909 b 104 899 111 904 108 901 b 96 894 101 897 99 895 b 89 889 93 892 91 891 b 49 865 74 881 61 872 b 33 844 38 857 32 850 l 33 842 b 35 840 33 842 34 841 b 54 839 38 835 45 834 b 85 856 63 844 74 849 b 99 864 89 858 94 861 b 115 871 104 867 110 869 b 126 874 119 872 122 873 b 136 875 129 875 132 875 l 139 875 l 142 875 b 144 874 143 875 144 875 b 147 874 145 874 146 874 b 185 849 164 869 177 861 b 210 808 194 837 202 823 l 215 797 b 221 788 217 794 219 790 l 567 76 l 607 -6 b 613 -12 609 -8 611 -11 b 619 -17 614 -14 617 -16 b 620 -18 619 -18 620 -18 l 621 -18 b 624 -20 622 -19 623 -20 b 626 -22 625 -21 625 -21 b 628 -24 627 -23 628 -24 l 631 -24 b 685 24 641 -23 659 -7 b 768 131 711 55 738 91 b 772 135 769 132 770 134 b 775 140 773 137 774 138 b 810 188 787 157 799 173 b 843 233 822 203 833 219 z "},"W":{"ha":2146,"x_min":0,"x_max":0,"o":"m 1046 103 l 1046 101 b 1081 73 1058 91 1069 82 b 1114 47 1092 64 1103 56 b 1181 9 1135 31 1158 19 b 1263 -8 1205 -1 1232 -6 l 1268 -8 b 1275 -10 1270 -8 1272 -9 l 1281 -10 l 1286 -10 b 1344 -3 1307 -10 1327 -8 b 1397 15 1362 1 1380 7 b 1441 37 1412 22 1427 29 b 1488 64 1455 45 1471 54 l 1654 158 l 1656 1 l 1863 6 l 1878 6 b 1894 7 1884 6 1889 6 b 1909 10 1899 8 1904 9 b 1925 13 1914 11 1919 12 b 1946 19 1932 14 1939 16 b 1964 26 1952 21 1958 24 b 1976 33 1968 28 1972 30 b 1989 42 1980 35 1984 38 l 2114 119 l 1850 118 l 1850 829 l 1850 1028 l 1593 1026 b 1582 1026 1589 1026 1586 1026 b 1571 1025 1578 1025 1575 1025 b 1565 1024 1569 1024 1567 1024 b 1560 1022 1563 1024 1562 1023 b 1547 1019 1555 1021 1551 1020 b 1538 1015 1544 1019 1540 1017 l 1529 1013 l 1521 1010 l 1368 926 l 1387 928 b 1432 931 1399 929 1414 930 b 1458 931 1440 931 1449 931 b 1483 932 1466 932 1475 932 b 1516 933 1494 932 1505 932 b 1546 933 1527 933 1537 933 l 1576 933 b 1604 932 1586 933 1595 933 b 1629 931 1613 932 1621 932 b 1657 932 1638 931 1647 931 l 1657 221 l 1657 203 b 1627 182 1647 195 1637 188 b 1599 164 1617 175 1608 169 b 1522 134 1574 150 1548 140 b 1433 124 1496 128 1467 125 l 1431 124 l 1429 124 b 1351 138 1405 124 1379 128 b 1265 178 1322 148 1294 161 b 1167 250 1232 198 1199 222 b 1082 343 1135 278 1107 309 l 1000 449 b 985 470 994 456 990 463 b 974 490 981 477 977 484 b 955 540 965 507 959 524 b 946 597 951 557 948 576 l 946 603 l 946 608 b 944 614 945 610 944 612 l 944 619 b 955 685 944 644 948 666 b 982 744 962 705 971 725 b 1005 784 988 757 996 771 b 1032 826 1014 797 1023 812 b 1035 833 1033 828 1034 830 b 1039 840 1037 835 1038 838 l 1146 1028 l 883 1026 b 869 1026 878 1026 873 1026 b 856 1025 865 1025 860 1025 b 842 1022 851 1024 847 1023 b 828 1019 838 1021 833 1020 b 807 1014 820 1018 813 1016 b 789 1007 800 1012 794 1010 b 777 1001 785 1005 781 1003 b 764 996 773 1000 769 998 l 649 926 b 694 928 665 927 681 928 b 735 931 708 929 722 930 l 752 931 l 771 931 l 778 931 l 785 931 l 799 931 l 813 931 b 847 929 825 930 837 929 l 878 929 l 888 929 l 899 929 l 910 929 l 922 929 b 935 928 927 928 931 928 b 949 929 940 928 944 928 l 842 729 b 815 682 832 713 824 697 b 792 639 807 667 799 653 b 771 583 783 620 776 602 b 763 518 765 564 763 542 b 776 435 763 487 768 459 b 810 364 784 411 795 387 b 827 339 815 356 821 347 b 847 315 833 331 840 323 l 964 174 l 901 136 b 881 126 895 132 888 129 b 861 118 874 122 868 120 b 810 104 844 112 826 107 b 761 100 793 101 777 100 l 753 100 l 744 100 b 671 118 726 101 701 107 b 575 165 640 129 608 145 b 520 203 556 176 538 189 b 469 253 502 218 485 234 l 361 368 b 352 378 358 372 355 375 l 343 388 b 292 476 320 416 303 446 b 276 578 282 506 276 540 l 276 584 l 276 590 b 292 657 277 603 282 625 b 328 756 301 688 313 721 b 347 797 333 769 340 783 l 367 838 l 450 986 b 453 992 451 988 452 990 b 457 996 455 994 456 995 b 466 1009 461 1000 464 1005 b 465 1021 468 1013 468 1017 b 458 1027 463 1025 461 1027 b 447 1028 454 1028 451 1028 l 445 1028 l 444 1028 l 442 1028 b 440 1029 442 1028 441 1028 l 224 1028 b 188 1024 209 1028 197 1026 b 163 1013 178 1021 170 1017 b 146 1002 157 1010 151 1006 b 126 989 140 998 134 994 b 124 987 125 988 125 987 b 121 986 123 986 122 986 l 101 972 b 83 957 95 968 89 963 b 54 932 72 949 63 940 b 36 913 46 924 40 917 b 63 919 46 915 55 918 b 88 924 71 921 79 923 b 113 928 96 925 104 927 b 139 931 121 929 130 930 b 165 932 148 931 157 932 l 189 932 l 206 932 b 222 931 211 932 217 931 b 256 928 233 931 244 930 b 289 925 267 927 278 926 l 160 710 b 147 688 156 703 152 696 b 133 664 143 680 138 672 b 103 590 122 642 112 617 b 89 507 94 563 89 536 b 115 382 89 463 98 421 b 174 286 133 343 152 311 b 179 279 175 283 177 281 b 185 275 181 277 183 276 l 346 104 b 349 99 347 102 348 101 b 354 96 351 98 352 97 b 458 19 388 62 422 36 b 586 -14 494 2 537 -9 l 591 -14 b 596 -15 592 -14 594 -14 l 600 -15 l 604 -15 b 629 -14 613 -15 621 -15 b 654 -10 638 -13 646 -12 b 717 6 675 -6 697 -1 b 775 28 738 13 757 20 b 830 54 796 37 815 46 b 860 72 845 63 855 69 l 997 146 z "},"X":{"ha":1606,"x_min":0,"x_max":0,"o":"m 596 594 l 596 594 l 165 72 b 143 50 163 69 156 62 b 100 10 130 38 116 25 l 97 7 l 94 4 b 78 -8 89 0 83 -4 b 63 -22 72 -13 67 -18 b 41 -41 55 -29 48 -35 b 21 -58 34 -47 27 -53 l 16 -63 b 11 -67 15 -65 13 -66 b -7 -81 5 -71 -1 -76 b -26 -97 -12 -86 -19 -92 b -17 -94 -24 -96 -21 -95 b -8 -92 -14 -94 -11 -93 b 18 -82 1 -89 10 -86 l 43 -71 b 60 -62 49 -68 54 -65 b 76 -50 65 -59 71 -55 l 88 -42 l 99 -33 l 113 -22 b 126 -10 117 -19 122 -14 b 171 31 143 4 158 18 b 193 54 184 44 191 51 l 644 538 b 691 476 661 515 677 495 b 733 424 705 458 719 440 b 736 419 734 422 735 420 b 739 415 737 419 738 417 b 783 360 754 398 769 379 b 833 299 798 341 815 321 b 1043 51 937 170 1007 88 l 1099 -4 l 1300 -4 b 1346 0 1317 -4 1332 -3 b 1386 11 1360 3 1373 6 b 1417 25 1396 16 1407 20 b 1451 40 1428 30 1439 35 b 1469 48 1458 43 1464 46 b 1485 56 1474 50 1479 53 b 1503 65 1491 58 1497 61 b 1522 75 1509 68 1516 71 b 1545 90 1530 80 1537 84 b 1571 107 1553 95 1562 100 b 1523 103 1553 105 1537 104 b 1479 100 1509 102 1494 101 b 1434 98 1464 99 1449 98 b 1383 97 1419 97 1402 97 l 1348 97 b 1317 99 1337 97 1327 98 b 1284 99 1306 99 1295 99 b 1249 101 1273 100 1262 100 b 1178 184 1223 131 1199 159 b 1117 258 1156 209 1136 234 b 1109 267 1114 261 1111 264 b 1103 275 1107 269 1105 272 b 1044 347 1083 298 1064 322 b 978 431 1024 372 1002 400 b 927 495 959 454 942 475 b 882 553 912 515 897 534 b 878 558 881 555 880 556 b 875 563 877 560 876 562 b 831 620 860 581 845 600 b 782 688 816 640 800 663 l 919 836 b 941 860 927 844 934 852 b 960 882 948 867 954 875 b 997 917 972 895 984 906 b 1044 942 1009 927 1025 935 b 1085 951 1056 946 1070 949 b 1129 953 1100 952 1114 953 b 1169 951 1143 953 1156 952 b 1201 947 1181 950 1192 949 b 1222 944 1210 946 1216 945 b 1231 944 1227 944 1230 944 l 1418 1031 b 1329 1047 1386 1038 1356 1043 b 1253 1051 1302 1050 1277 1051 b 1188 1047 1230 1051 1208 1050 b 1128 1033 1168 1043 1148 1039 b 1060 1008 1106 1027 1083 1019 b 988 972 1038 998 1013 986 b 947 949 974 966 960 958 b 910 922 934 941 922 931 b 863 886 892 910 877 898 b 833 860 850 874 840 865 l 726 753 l 496 1039 l 258 1038 b 248 1037 255 1038 251 1037 b 239 1036 245 1036 242 1036 b 230 1033 236 1035 233 1034 b 219 1031 227 1032 223 1031 b 206 1027 215 1030 210 1028 b 194 1022 202 1026 198 1024 b 186 1017 192 1020 189 1019 b 176 1014 183 1016 180 1015 l 39 938 l 325 938 z "},"Y":{"ha":1303,"x_min":0,"x_max":0,"o":"m 249 792 l 249 790 b 210 727 235 768 222 747 b 178 669 199 707 188 688 b 143 590 165 644 153 617 b 117 496 133 562 124 531 b 115 490 116 494 115 492 l 115 482 b 151 377 115 455 127 420 b 244 242 175 334 206 289 b 319 156 268 213 292 184 b 399 78 345 128 372 102 b 515 -8 438 43 477 14 b 611 -40 552 -29 584 -40 l 614 -40 l 618 -40 b 621 -39 619 -39 620 -39 l 624 -39 b 679 -30 644 -36 663 -33 b 728 -17 696 -27 712 -22 b 760 -5 739 -13 750 -9 b 794 13 771 -1 782 5 l 1015 129 l 1015 -24 l 1015 -35 b 1014 -47 1015 -40 1015 -44 b 997 -123 1013 -74 1007 -99 b 942 -167 986 -147 968 -161 b 920 -170 935 -169 928 -170 b 896 -171 912 -171 904 -171 b 839 -167 878 -171 859 -169 b 776 -157 819 -164 798 -161 b 726 -145 760 -153 743 -149 b 678 -132 709 -141 693 -137 b 596 -106 645 -123 618 -114 b 557 -93 574 -98 561 -94 l 346 -10 b 338 -7 343 -9 341 -8 b 331 -4 336 -6 333 -5 l 330 -4 l 329 -4 b 294 12 316 0 304 6 b 276 42 283 18 277 28 b 283 57 276 47 278 52 b 296 69 287 62 291 66 b 304 76 299 72 301 75 b 311 82 307 78 309 80 b 316 91 314 85 316 88 b 313 100 316 94 315 97 b 310 102 312 101 311 102 l 308 103 b 306 104 307 104 306 104 l 303 104 b 292 101 299 104 295 103 l 281 96 b 275 92 279 94 277 93 b 269 88 273 91 271 89 b 264 83 268 87 266 85 b 258 79 262 81 260 80 b 233 62 250 74 242 68 b 207 43 225 56 216 50 b 198 37 204 41 201 39 b 188 29 195 34 191 32 b 116 -26 161 10 137 -9 b 86 -69 95 -44 85 -58 l 86 -69 l 86 -71 l 86 -71 l 86 -71 b 122 -110 88 -83 100 -96 b 201 -151 143 -124 170 -137 b 245 -169 215 -157 230 -163 b 292 -189 260 -176 276 -182 b 338 -206 307 -194 323 -200 b 382 -224 353 -212 368 -218 b 391 -227 385 -225 388 -226 b 401 -231 394 -228 398 -230 b 447 -248 416 -236 431 -242 b 494 -264 463 -254 479 -259 b 631 -304 543 -280 588 -293 b 725 -321 673 -315 705 -321 l 728 -321 l 731 -321 b 733 -319 731 -320 732 -319 l 736 -319 b 818 -292 768 -313 795 -304 b 885 -250 841 -280 863 -266 b 932 -215 900 -239 916 -227 b 985 -176 948 -202 965 -189 b 1013 -158 994 -171 1003 -165 b 1042 -137 1022 -151 1031 -144 b 1051 -131 1044 -136 1047 -134 b 1060 -124 1054 -129 1057 -126 b 1139 -65 1089 -103 1116 -84 b 1181 -31 1162 -47 1176 -35 b 1201 6 1191 -19 1197 -6 b 1206 43 1204 18 1206 30 l 1206 56 l 1206 68 b 1204 81 1205 73 1204 77 l 1204 96 l 1204 807 l 1204 1031 l 943 1029 b 929 1028 938 1029 934 1029 b 917 1026 925 1028 920 1027 b 908 1024 914 1025 911 1025 b 899 1021 904 1023 901 1022 b 887 1015 894 1019 890 1017 b 878 1008 884 1013 881 1011 b 874 1006 877 1007 876 1007 b 871 1004 873 1006 872 1005 b 866 1000 869 1002 867 1001 b 861 999 865 999 863 999 l 736 921 l 1015 921 l 1015 210 l 1015 172 l 949 133 b 924 121 940 129 932 125 b 900 113 915 117 907 114 b 860 103 887 108 874 105 b 815 101 847 102 832 101 b 717 124 787 101 754 109 b 603 183 680 138 642 158 b 456 302 552 217 503 256 b 344 443 409 348 372 395 b 316 510 332 465 323 488 b 306 574 309 532 306 553 l 306 580 l 306 586 b 310 624 306 600 308 613 b 318 657 313 635 315 646 b 328 683 321 665 324 674 b 340 711 331 691 336 701 l 497 1011 l 274 1021 b 263 1022 270 1022 266 1022 l 254 1022 l 249 1022 l 244 1022 b 232 1022 241 1022 237 1022 b 218 1019 227 1021 223 1020 b 200 1016 212 1019 206 1017 b 185 1010 194 1015 189 1013 b 175 1006 181 1009 178 1008 b 165 1003 172 1005 169 1004 l 28 924 l 322 919 z "},"Z":{"ha":1304,"x_min":0,"x_max":0,"o":"m 856 936 l 856 935 b 827 900 845 922 836 910 b 801 869 818 890 810 880 b 799 867 800 869 800 868 b 797 865 799 866 798 865 b 772 834 789 855 780 845 b 742 800 763 823 753 812 b 626 673 701 753 662 710 b 517 565 589 635 553 600 b 510 558 515 563 513 560 b 504 553 508 556 506 555 b 394 445 468 518 431 482 b 276 321 357 409 318 367 b 217 255 255 297 235 275 b 163 194 198 235 180 215 b 151 182 159 191 155 187 b 140 169 148 177 144 173 b 98 119 126 153 112 136 b 53 64 84 102 69 83 b 44 31 41 48 38 37 b 68 21 51 25 59 22 b 78 19 72 20 75 19 l 86 19 l 121 19 b 153 18 132 19 143 19 b 188 17 164 18 175 18 b 226 17 200 17 213 17 b 367 10 277 16 324 13 b 490 -1 409 6 450 2 b 503 -2 495 -1 499 -2 b 517 -4 508 -3 512 -3 b 656 -16 562 -9 608 -13 b 813 -21 703 -19 755 -21 b 935 -15 857 -20 898 -18 b 1044 6 972 -11 1008 -5 b 1093 24 1060 10 1076 16 b 1144 49 1110 31 1127 39 b 1165 60 1151 52 1158 56 b 1186 72 1172 63 1179 68 b 1203 83 1192 76 1197 80 b 1221 94 1209 87 1215 91 b 1253 119 1234 103 1244 111 b 1265 142 1261 128 1265 135 l 1265 142 b 1264 144 1264 143 1264 144 b 1263 147 1264 145 1264 146 l 1263 147 b 1241 142 1260 151 1253 149 b 1196 118 1229 135 1214 127 b 1153 100 1183 112 1169 106 b 1104 89 1138 94 1122 91 b 1020 83 1076 86 1048 84 b 933 81 992 81 963 81 b 749 88 874 81 813 83 b 546 110 686 93 618 100 l 343 132 b 396 191 363 153 380 173 b 443 243 412 209 427 226 b 445 246 444 244 445 245 b 447 247 446 247 446 247 b 495 300 463 265 479 282 b 549 358 511 318 529 337 b 641 453 581 394 612 425 b 725 535 670 482 698 509 l 738 548 l 751 561 b 831 641 777 586 804 613 b 915 736 857 669 886 701 b 974 806 937 761 956 784 b 1024 871 991 828 1008 850 b 1037 888 1028 876 1033 882 b 1050 904 1041 893 1045 899 b 1094 965 1065 924 1080 944 b 1143 1035 1109 987 1125 1010 l 1059 1035 l 985 1035 b 909 1035 960 1035 934 1035 b 825 1038 884 1036 856 1037 b 698 1041 779 1038 736 1040 b 585 1046 659 1042 622 1044 b 474 1052 549 1048 512 1050 b 349 1060 436 1054 394 1057 b 324 1046 339 1055 331 1050 b 301 1033 316 1041 309 1037 b 294 1030 299 1032 296 1031 b 286 1026 291 1028 289 1027 b 268 1017 281 1023 275 1019 b 247 1007 262 1014 255 1011 b 221 994 238 1002 229 998 l 196 983 b 184 978 192 981 188 980 b 172 972 180 976 176 974 b 156 966 167 970 161 968 b 139 961 150 964 144 962 l 850 940 z "},"[":{"ha":386,"x_min":0,"x_max":0,"o":"m 58 -110 l 58 -110 l 82 -110 b 105 -108 88 -110 95 -109 b 138 -106 115 -107 125 -106 b 152 -105 142 -106 147 -105 b 168 -104 157 -104 163 -104 b 181 -103 173 -104 177 -104 b 194 -103 185 -103 190 -103 l 208 -103 l 219 -103 l 225 -103 l 231 -103 b 260 -103 240 -103 250 -103 b 288 -104 270 -104 279 -104 b 315 -105 298 -104 307 -104 b 332 -106 322 -105 328 -106 l 358 -106 l 357 -57 l 338 -57 l 331 -57 b 321 -58 328 -57 325 -57 l 308 -58 l 294 -58 l 286 -58 l 278 -58 b 241 -53 265 -57 253 -56 b 214 -39 229 -50 220 -45 b 198 -10 206 -30 200 -20 b 194 24 196 -1 194 11 l 193 735 l 192 996 l 192 999 l 192 1001 b 194 1030 192 1012 192 1021 b 207 1054 195 1039 200 1047 b 231 1068 213 1061 220 1065 b 263 1074 241 1071 251 1073 b 280 1075 268 1075 274 1075 l 296 1075 l 313 1075 b 325 1076 318 1075 322 1075 l 356 1076 l 356 1122 l 329 1121 b 313 1120 325 1121 320 1121 b 288 1119 305 1120 297 1119 b 256 1117 277 1119 267 1118 b 222 1117 244 1117 233 1117 l 215 1117 b 207 1118 212 1117 210 1117 l 199 1118 l 192 1118 b 178 1119 187 1118 183 1118 b 165 1119 174 1119 170 1119 b 149 1120 160 1119 154 1120 b 133 1122 143 1121 138 1121 b 101 1125 121 1123 110 1124 b 79 1128 91 1126 84 1127 l 57 1128 l 61 1093 b 67 940 63 1071 65 1020 b 71 685 69 861 70 775 l 71 607 l 71 532 l 71 463 l 71 393 l 71 344 b 72 294 71 328 71 311 l 72 80 b 67 -61 72 15 70 -32 z "},"\\":{"ha":888,"x_min":0,"x_max":0,"o":"m 728 114 l 728 113 b 755 85 737 102 746 93 b 781 61 764 76 772 69 b 792 51 784 57 788 54 b 803 40 795 47 799 44 b 827 20 810 34 818 27 b 856 -1 836 13 845 6 b 756 151 817 60 783 111 b 676 267 728 192 701 231 b 675 269 676 268 676 268 b 674 271 674 269 674 270 b 616 354 655 298 636 325 b 549 453 596 383 574 416 b 508 516 536 473 522 494 b 467 582 494 538 481 560 b 342 775 422 650 381 715 b 269 882 304 835 280 871 b 235 912 258 894 247 904 b 200 935 224 920 212 927 b 176 947 193 938 185 943 b 151 963 168 952 160 957 b 124 980 141 969 132 975 b 99 996 115 985 107 990 l 93 999 l 88 1001 l 65 1015 b 40 1031 58 1020 50 1025 l 561 319 l 638 215 b 656 192 644 207 650 199 b 674 172 662 185 668 179 b 681 164 675 169 678 167 l 689 156 b 708 135 694 149 701 142 b 729 115 715 128 722 122 z "},"]":{"ha":369,"x_min":0,"x_max":0,"o":"m 324 -67 l 324 -67 b 317 74 319 -38 317 9 b 318 289 317 140 317 211 b 319 338 318 306 318 322 b 319 388 319 354 319 371 l 319 458 l 319 526 l 319 601 l 319 679 b 324 935 320 770 322 855 b 329 1089 325 1014 327 1066 l 333 1122 l 310 1121 b 288 1119 305 1121 298 1120 b 256 1117 278 1119 268 1118 b 240 1115 251 1116 246 1115 b 224 1114 235 1114 229 1114 b 210 1113 219 1114 215 1114 b 197 1113 206 1113 202 1113 l 189 1113 l 181 1113 b 172 1111 178 1112 175 1111 l 164 1111 b 142 1112 156 1111 149 1111 b 121 1113 134 1112 127 1113 b 84 1115 107 1113 95 1114 b 61 1117 73 1115 66 1116 l 35 1117 l 35 1071 l 65 1069 l 78 1069 l 96 1069 l 110 1069 b 124 1068 114 1069 119 1069 b 158 1063 136 1067 147 1065 b 183 1049 168 1060 177 1055 b 196 1024 191 1041 195 1033 b 197 996 197 1016 197 1006 l 197 993 l 197 992 l 196 281 l 194 17 b 193 -10 194 6 194 -3 b 183 -35 192 -18 189 -26 b 181 -40 182 -37 181 -38 b 176 -44 180 -41 178 -43 b 148 -59 170 -52 160 -57 b 110 -64 135 -61 123 -63 l 101 -64 l 93 -64 l 80 -64 l 68 -64 b 58 -62 64 -63 61 -62 l 50 -62 l 32 -62 l 29 -111 l 56 -111 b 74 -110 59 -111 65 -111 b 101 -110 82 -110 91 -110 b 126 -109 109 -110 117 -109 b 153 -108 134 -109 144 -108 l 162 -108 l 171 -108 l 181 -108 l 192 -108 b 205 -109 196 -108 201 -109 b 217 -110 209 -109 213 -110 b 233 -110 222 -110 228 -110 b 249 -111 238 -111 243 -111 b 281 -114 261 -112 272 -113 b 303 -115 291 -115 298 -115 l 326 -115 z "},"^":{"ha":879,"x_min":0,"x_max":0,"o":"m 358 996 l 358 994 b 339 991 351 994 344 992 b 322 986 333 990 328 988 b 308 981 318 984 313 982 b 292 975 303 979 297 977 b 278 969 287 973 283 971 b 265 963 274 968 270 965 b 256 957 263 961 259 959 b 246 953 253 955 250 954 l 18 815 b 13 812 16 814 14 813 b 7 808 11 810 9 809 b -3 801 3 806 0 804 l -10 794 b -16 787 -12 792 -15 789 b -18 781 -17 784 -18 782 l -18 781 l -18 779 b -17 778 -17 779 -17 779 l -17 778 b -15 776 -17 777 -16 776 l -11 776 b 3 778 -7 776 -3 777 b 21 782 8 780 14 781 b 24 783 22 783 23 783 l 28 783 b 38 786 31 784 35 785 b 49 789 41 787 45 788 l 168 810 b 176 811 171 811 173 811 b 182 813 178 811 180 812 l 196 815 b 210 819 200 816 205 818 b 226 824 215 820 221 822 b 244 831 232 825 238 828 b 260 837 250 832 255 834 b 274 844 264 839 269 842 b 283 851 277 846 281 848 b 293 858 286 853 289 856 l 406 931 l 550 854 b 583 839 562 849 573 844 b 613 825 592 834 602 830 b 639 815 621 821 630 818 b 668 806 648 811 658 808 l 676 803 l 685 800 b 726 790 698 796 711 793 b 768 783 740 788 754 785 b 851 776 797 780 824 777 b 915 775 877 775 899 775 l 933 775 l 943 775 b 889 805 924 785 906 795 b 840 833 872 815 856 824 b 828 840 836 835 831 837 b 817 847 824 842 820 844 b 761 881 798 858 780 870 l 700 919 b 681 931 694 923 687 927 b 663 944 675 935 669 940 b 655 950 660 946 657 948 b 647 956 653 952 650 954 b 584 1000 624 971 603 986 b 544 1025 565 1014 552 1022 b 541 1026 544 1025 542 1025 b 538 1026 540 1026 538 1026 b 533 1028 536 1027 534 1028 l 529 1028 l 526 1028 l 524 1028 b 518 1026 522 1027 520 1026 b 513 1025 516 1026 514 1026 b 508 1024 512 1025 510 1025 b 503 1025 506 1024 505 1024 z "},"_":{"ha":964,"x_min":0,"x_max":0,"o":"m -11 -235 l -11 -235 l 700 -235 l 1003 -235 l 1003 -212 l 292 -212 l -11 -212 z "},"`":{"ha":636,"x_min":0,"x_max":0,"o":"m 350 851 l 350 850 b 392 840 363 846 377 843 b 436 833 406 838 421 835 b 515 826 463 830 489 827 b 579 825 541 825 563 825 l 597 825 l 607 825 b 553 855 588 835 569 845 b 504 883 536 865 520 874 b 492 890 500 885 495 887 b 481 897 488 892 484 894 b 425 931 462 908 444 920 l 364 969 b 344 983 357 974 351 978 b 324 997 337 987 330 992 b 318 1001 322 998 320 999 b 311 1006 316 1002 314 1004 b 249 1050 289 1021 268 1036 b 210 1075 230 1064 217 1072 b 207 1076 209 1075 208 1075 l 206 1076 l 203 1076 l 200 1076 b 188 1074 196 1076 192 1076 b 176 1069 184 1073 180 1071 b 173 1067 175 1069 174 1068 b 169 1068 172 1067 170 1067 l 82 1038 b 67 1033 76 1036 71 1034 b 53 1028 62 1031 57 1030 b 39 1022 47 1026 43 1024 b 33 1014 35 1019 33 1017 b 41 999 33 1008 36 1003 b 58 986 46 994 52 990 b 61 985 59 986 60 986 b 64 985 62 985 63 985 l 217 904 b 249 889 229 899 240 894 b 279 875 259 884 269 880 b 306 865 288 871 296 868 b 335 856 315 861 325 858 l 343 853 b 351 851 346 852 349 851 z "},"a":{"ha":1393,"x_min":0,"x_max":0,"o":"m -133 -194 l -132 -194 b -106 -181 -123 -190 -114 -185 b -82 -168 -97 -176 -89 -172 b -36 -140 -65 -159 -50 -149 b 4 -108 -22 -130 -9 -119 b 38 -79 15 -99 27 -89 b 75 -46 50 -69 62 -58 b 128 8 94 -27 112 -9 b 171 61 144 26 158 44 b 190 88 177 70 184 79 b 207 117 196 97 201 106 l 360 363 l 871 356 l 1057 6 b 1069 4 1058 6 1062 5 b 1097 1 1077 3 1086 2 b 1139 -1 1109 0 1123 0 b 1186 -3 1155 -2 1170 -3 l 1194 -3 l 1201 -3 b 1260 0 1223 -3 1242 -2 b 1303 10 1278 2 1293 5 b 1347 31 1314 15 1328 22 b 1403 64 1365 40 1383 51 b 1443 94 1417 73 1430 83 b 1479 129 1456 104 1468 116 b 1464 124 1474 127 1469 126 b 1450 121 1459 123 1455 122 b 1435 117 1444 119 1439 118 b 1419 114 1430 116 1425 115 b 1401 112 1413 113 1407 112 b 1383 110 1395 111 1389 111 l 1364 110 b 1342 111 1357 110 1350 110 l 1221 111 l 856 822 l 760 1006 l 571 1007 b 505 1003 542 1007 520 1006 b 463 989 490 1000 475 995 b 440 977 455 985 448 981 b 415 963 433 973 425 968 b 398 952 409 959 403 955 b 383 943 393 949 388 946 b 367 931 378 939 372 935 b 353 918 362 927 357 923 l 342 907 l 329 894 b 360 898 340 895 351 897 b 389 900 370 899 380 900 b 420 903 399 901 409 902 b 456 904 431 904 443 904 l 474 904 l 490 904 l 503 904 l 515 904 b 546 902 525 903 536 903 b 579 901 556 902 567 901 l 293 411 l 168 353 l 256 353 l 153 176 b 115 109 137 149 124 126 b 89 64 105 92 96 77 b 85 58 87 62 86 60 l 82 53 b 64 24 76 44 70 34 b 40 -7 57 15 50 4 b 10 -48 29 -22 19 -35 b -19 -85 0 -60 -9 -73 b -40 -108 -26 -92 -33 -100 b -62 -131 -48 -116 -55 -123 b -94 -163 -73 -142 -83 -153 b -133 -197 -106 -174 -119 -185 z m 410 438 l 410 438 l 639 803 l 832 436 z "},"b":{"ha":1129,"x_min":0,"x_max":0,"o":"m 263 63 l 263 61 b 284 5 263 28 270 9 b 404 0 298 1 338 -1 l 418 0 l 433 0 b 513 3 459 0 486 1 b 593 11 539 5 566 7 b 934 126 717 30 831 68 b 1088 358 1037 184 1088 261 l 1088 363 l 1088 367 l 1088 370 l 1088 374 b 999 528 1084 439 1054 491 b 814 607 944 566 882 592 l 753 619 l 814 643 b 940 719 862 663 904 688 b 994 842 976 751 994 792 l 994 844 l 994 847 l 994 850 l 994 853 b 908 985 991 909 962 953 b 733 1040 855 1016 796 1035 b 708 1042 725 1041 716 1042 b 682 1044 699 1043 690 1044 l 217 1038 l 35 935 l 256 939 l 261 228 z m 500 532 l 500 531 b 527 529 509 531 518 530 b 554 526 536 528 545 527 b 788 460 638 519 716 497 b 903 272 859 423 897 360 l 903 269 l 903 264 b 835 142 903 216 880 175 b 686 86 789 108 740 90 b 675 85 682 85 679 85 b 664 86 671 85 668 85 l 510 85 l 506 85 l 503 85 l 501 85 l 501 85 b 473 86 491 85 482 85 b 451 97 464 87 457 91 b 447 105 450 99 448 102 b 444 115 446 108 445 112 b 443 124 444 118 443 121 l 443 132 l 443 133 l 443 133 l 443 135 l 443 138 l 443 535 z m 443 613 l 443 613 l 443 935 l 547 933 b 577 932 557 933 567 933 b 607 929 587 931 597 930 b 749 879 659 922 706 905 b 813 769 791 853 813 817 l 813 766 l 813 763 b 811 759 812 762 811 760 l 811 756 b 738 649 806 706 781 670 b 599 611 695 627 649 615 b 578 610 592 611 585 611 b 558 611 572 610 565 610 z "},"c":{"ha":1207,"x_min":0,"x_max":0,"o":"m 1086 179 l 1086 178 b 1044 155 1071 169 1057 162 b 1004 135 1030 148 1017 141 b 949 115 987 126 968 120 b 885 104 930 109 909 106 l 876 104 l 869 104 b 861 103 867 103 864 103 l 853 103 b 813 105 839 103 825 103 b 775 111 800 106 787 108 b 736 124 762 115 749 119 b 696 142 723 128 710 134 l 533 215 b 326 361 452 253 383 302 b 242 581 270 420 242 494 b 264 713 242 621 249 666 b 336 867 279 761 303 812 b 405 906 347 884 370 897 b 515 918 440 914 476 918 l 518 918 l 521 918 b 556 917 533 918 545 918 b 590 915 568 917 579 916 l 824 889 b 855 885 834 888 844 887 b 886 878 866 883 876 881 b 978 842 919 869 950 858 b 1026 786 1006 827 1022 808 l 1026 783 l 1026 778 b 1026 770 1026 775 1026 772 b 1025 763 1025 768 1025 765 b 1022 751 1024 759 1023 755 b 1019 740 1021 747 1020 743 b 1013 722 1017 733 1015 727 b 1013 713 1012 716 1012 713 b 1026 714 1016 710 1021 710 b 1042 729 1031 718 1036 723 b 1045 735 1043 731 1044 733 b 1049 740 1047 737 1048 738 b 1056 748 1051 743 1054 746 b 1061 757 1057 750 1059 753 l 1157 872 b 1170 894 1163 880 1167 887 b 1175 918 1173 901 1175 909 l 1175 922 l 1175 925 l 1175 927 b 1174 929 1175 928 1175 928 b 1047 988 1166 950 1124 969 b 794 1028 969 1006 885 1019 b 720 1033 769 1030 745 1031 b 649 1035 696 1034 672 1035 b 588 1033 628 1035 608 1034 b 533 1028 568 1031 550 1030 b 500 1008 529 1028 518 1021 b 439 967 482 995 462 981 b 419 953 432 962 426 958 b 399 940 412 949 405 945 b 377 929 391 937 384 933 b 357 919 370 925 363 922 b 322 906 346 915 334 910 b 282 892 309 901 296 896 b 197 869 251 882 223 875 b 156 857 170 863 156 859 b 144 844 152 853 148 849 b 133 829 141 840 137 835 b 76 710 113 799 94 759 b 40 557 58 661 46 610 b 40 547 40 553 40 550 b 39 538 39 543 39 540 l 39 527 l 39 517 b 125 288 39 434 68 358 b 336 106 182 217 253 156 b 434 53 369 86 402 69 b 531 17 466 38 498 26 b 603 1 555 9 579 4 b 675 -4 627 -3 651 -4 b 825 19 724 -4 774 3 b 982 94 876 34 928 59 l 1106 172 l 1108 193 l 1081 178 z "},"d":{"ha":1275,"x_min":0,"x_max":0,"o":"m 96 1069 l 96 1068 b 88 1062 93 1066 90 1064 b 79 1056 85 1059 82 1057 b 74 1051 77 1054 75 1052 b 69 1047 72 1049 70 1048 b 48 1028 61 1041 54 1034 b 39 1013 42 1021 39 1016 b 51 999 40 1007 44 1003 b 78 992 59 996 68 994 b 87 991 81 992 84 991 b 96 990 90 991 93 990 l 413 938 l 246 819 b 152 696 204 791 173 750 b 122 524 131 642 121 585 b 123 490 122 513 122 501 b 126 457 123 479 125 468 b 175 288 134 399 150 342 b 276 150 200 234 234 188 b 441 40 328 105 383 68 b 617 -3 499 11 557 -3 b 700 8 644 -3 672 1 b 782 42 728 15 755 26 l 1076 207 b 1217 392 1154 250 1201 312 b 1238 675 1232 471 1239 566 b 1142 906 1237 780 1205 857 b 919 1003 1080 956 1006 988 l 296 1101 b 284 1103 292 1102 288 1103 b 272 1106 280 1104 276 1105 b 242 1113 261 1107 251 1110 b 226 1121 232 1115 227 1118 b 232 1135 225 1125 227 1129 b 247 1151 237 1140 242 1146 l 249 1153 l 251 1156 b 267 1175 258 1162 263 1169 b 264 1190 270 1181 269 1187 b 260 1192 263 1191 262 1192 b 256 1193 259 1193 257 1193 b 247 1190 253 1193 250 1192 b 236 1183 243 1188 240 1186 b 233 1179 235 1181 234 1180 b 229 1176 231 1178 230 1177 b 223 1171 227 1175 225 1173 b 217 1167 221 1169 219 1168 z m 453 932 l 453 932 l 768 872 b 882 840 811 865 849 854 b 971 778 915 825 945 805 b 1031 670 1000 748 1019 712 b 1047 539 1042 628 1047 584 l 1047 528 l 1047 517 b 1029 378 1045 469 1039 423 b 997 264 1019 334 1008 295 b 976 214 990 244 983 227 b 958 189 969 201 963 193 b 877 146 933 169 906 154 b 788 133 848 138 818 133 b 766 134 780 133 773 134 b 744 136 759 134 752 135 b 594 178 693 142 643 156 b 471 249 546 200 505 224 b 453 263 464 253 458 258 l 436 276 b 352 401 398 311 370 352 b 321 554 334 450 324 501 b 319 573 320 561 319 567 l 319 592 b 347 778 319 658 329 720 b 417 904 366 835 389 877 z "},"e":{"ha":1165,"x_min":0,"x_max":0,"o":"m 133 865 l 133 864 b 131 862 132 863 131 862 b 128 860 130 861 129 861 b 87 781 114 845 100 819 b 56 658 73 743 63 702 b 49 624 53 647 51 636 b 46 589 48 612 47 600 b 44 567 45 581 44 574 l 44 544 b 81 373 44 480 56 422 b 194 238 105 323 143 278 l 357 104 b 417 62 376 88 397 74 b 481 31 438 49 459 39 b 563 5 508 19 536 10 b 640 -3 591 0 616 -3 l 649 -3 l 657 -3 b 721 3 681 -2 702 0 b 776 17 739 6 758 10 b 805 28 786 19 795 23 b 835 46 815 32 825 38 l 1006 151 b 1010 154 1007 152 1009 153 b 1014 157 1012 155 1013 156 b 1028 167 1019 160 1023 163 b 1040 178 1032 170 1037 174 b 1051 192 1045 182 1049 187 b 1056 204 1054 196 1056 200 b 1033 197 1056 208 1048 205 b 981 167 1019 188 1001 178 b 960 156 974 163 967 159 b 940 146 953 153 947 150 b 915 136 932 142 923 139 b 890 129 906 133 898 131 b 847 123 875 126 861 124 b 807 121 833 122 820 121 b 715 133 775 121 744 125 b 628 165 685 141 656 151 b 567 197 607 175 587 185 b 506 233 547 208 527 220 b 438 282 482 248 460 264 b 376 336 416 300 396 318 b 312 406 352 360 331 383 b 268 464 293 428 278 447 l 576 467 b 758 474 642 468 703 470 b 915 496 813 477 865 485 b 922 498 917 497 919 497 b 928 499 924 498 926 499 b 966 511 941 502 953 506 b 1001 526 978 516 990 521 b 1039 544 1015 532 1028 538 b 1065 558 1050 550 1059 555 l 1063 569 b 1040 563 1054 567 1047 564 b 1018 557 1033 561 1025 559 b 997 553 1012 556 1005 555 b 974 549 990 552 982 550 b 938 544 961 547 949 545 b 906 542 926 542 916 542 l 890 542 l 874 542 l 853 542 b 831 543 845 542 838 542 l 226 564 l 229 632 b 231 664 229 642 230 653 b 235 697 231 675 233 686 b 267 829 241 744 252 788 b 319 903 283 870 300 894 b 367 916 335 909 351 914 b 417 919 382 918 399 919 b 464 917 432 919 448 919 b 513 914 480 916 496 915 l 800 881 b 814 879 805 880 809 879 b 828 878 819 879 823 879 b 904 865 855 876 880 872 b 961 819 928 859 947 844 b 977 784 969 807 974 796 b 982 749 980 772 982 761 b 979 724 982 740 981 732 b 971 697 977 715 975 706 b 992 724 978 706 985 715 l 1011 749 l 1013 750 b 1014 753 1013 751 1014 752 b 1033 777 1020 761 1027 769 b 1053 804 1039 785 1045 794 b 1065 818 1056 809 1060 813 b 1078 832 1069 823 1073 827 l 1094 849 b 1108 865 1100 854 1105 860 b 1122 885 1114 872 1118 878 b 1126 904 1125 891 1126 898 l 1126 906 l 1126 906 b 1094 944 1125 921 1115 934 b 1028 969 1074 955 1052 963 b 964 983 1005 976 983 981 b 929 989 944 986 933 988 l 613 1021 b 601 1022 609 1021 605 1021 b 590 1024 598 1022 594 1023 b 545 1028 575 1025 559 1027 b 506 1029 531 1029 518 1029 l 492 1029 b 481 1028 488 1029 484 1029 b 437 1009 468 1027 453 1021 b 385 972 421 997 403 985 b 356 953 375 966 366 959 b 325 935 345 946 335 940 b 293 921 315 930 304 925 b 260 908 282 916 271 912 b 176 880 230 897 202 888 b 131 864 150 872 135 867 z "},"f":{"ha":994,"x_min":0,"x_max":0,"o":"m 204 21 l 204 19 b 203 -15 204 6 204 -5 b 201 -44 203 -24 202 -34 l 196 -69 b 188 -97 194 -78 191 -87 b 161 -153 180 -119 171 -137 b 124 -200 151 -170 138 -185 l 116 -208 b 108 -214 114 -210 111 -212 l 18 -294 l 32 -311 l 243 -150 b 249 -147 245 -149 247 -148 b 254 -142 250 -145 252 -144 b 322 -89 278 -124 301 -106 b 367 -36 344 -71 358 -54 b 377 -15 370 -29 374 -22 b 386 4 380 -8 383 -1 b 393 32 389 13 391 23 b 396 65 395 41 396 52 l 396 385 l 564 385 l 572 385 l 581 385 l 611 385 b 640 386 620 385 630 385 b 675 388 651 386 663 387 b 715 394 687 390 700 392 b 749 401 727 396 738 399 l 779 410 b 804 419 788 413 796 416 b 831 431 813 422 821 426 b 841 435 834 432 838 434 b 851 440 844 437 848 438 b 873 452 859 444 866 448 b 893 465 880 456 887 461 b 910 477 899 469 904 473 b 928 492 915 481 921 486 b 887 487 913 490 899 488 b 850 483 874 485 862 484 b 812 481 837 482 824 481 b 771 479 799 480 786 479 b 743 478 762 478 752 478 l 717 478 l 701 478 l 686 478 b 663 479 679 479 671 479 b 640 481 655 479 648 480 b 619 481 634 481 627 481 b 597 483 612 482 605 482 l 390 492 l 390 949 l 728 947 b 748 948 735 947 742 947 b 767 949 754 948 760 949 b 781 951 771 950 776 950 b 797 954 786 952 792 953 b 822 963 806 957 815 960 b 844 972 830 965 837 969 b 862 983 850 976 856 979 b 881 993 868 986 874 989 b 897 1002 886 996 891 999 b 911 1011 902 1005 906 1008 b 917 1015 913 1012 915 1013 b 924 1019 920 1016 922 1018 b 940 1029 929 1022 934 1025 b 957 1043 945 1033 950 1038 l 292 1042 b 272 1041 284 1042 278 1041 b 254 1040 267 1041 261 1040 b 240 1038 250 1039 245 1038 b 224 1035 234 1037 229 1036 b 210 1031 219 1034 215 1033 b 199 1026 206 1030 202 1028 b 192 1024 197 1025 195 1025 b 186 1022 190 1023 188 1022 l 40 940 l 201 936 l 203 225 z "},"g":{"ha":1207,"x_min":0,"x_max":0,"o":"m 326 129 l 326 128 b 491 26 388 80 442 46 b 628 -3 540 7 585 -3 b 690 3 649 -3 670 -1 b 749 19 709 6 729 12 b 789 37 763 25 776 31 b 829 57 802 43 815 50 b 841 63 833 59 837 61 b 854 69 845 66 850 68 b 891 85 867 75 879 80 b 917 96 903 89 911 93 b 918 66 918 86 918 76 l 918 38 b 917 13 918 29 918 21 b 917 -11 917 4 917 -4 b 911 -65 916 -29 914 -47 b 901 -125 908 -83 905 -103 b 897 -148 900 -132 899 -140 b 890 -172 894 -156 892 -164 b 885 -185 888 -177 887 -181 b 882 -197 884 -190 883 -194 b 867 -244 876 -215 871 -231 b 860 -271 862 -258 860 -267 l 860 -272 b 861 -272 860 -272 860 -272 l 861 -274 l 861 -274 b 889 -253 866 -275 875 -269 b 935 -203 903 -238 918 -221 l 938 -200 l 940 -197 b 956 -179 945 -191 950 -185 b 971 -162 961 -174 966 -168 b 974 -158 972 -161 973 -159 b 979 -154 976 -156 977 -155 b 1001 -134 987 -147 994 -140 b 1024 -115 1009 -128 1016 -122 b 1057 -85 1036 -106 1047 -96 b 1082 -42 1067 -74 1075 -59 b 1090 -17 1085 -33 1087 -25 b 1096 4 1092 -9 1094 -2 b 1098 22 1097 10 1097 16 b 1099 40 1098 28 1099 34 l 1099 49 l 1099 60 l 1147 561 l 964 560 b 918 556 947 560 932 558 b 878 544 904 553 891 549 b 844 531 867 541 855 536 b 807 517 832 526 820 521 l 793 511 l 779 506 l 760 497 b 740 488 753 494 747 491 l 713 474 b 683 457 703 469 694 463 b 713 460 694 458 704 459 b 739 463 722 461 731 462 b 764 465 747 463 756 464 b 790 465 772 465 781 465 b 815 467 800 466 808 467 b 836 468 823 468 830 468 l 846 468 l 854 468 l 869 468 l 885 468 l 951 464 l 932 133 b 899 124 920 130 909 126 b 869 117 890 121 880 119 b 843 113 861 115 852 114 b 814 113 834 113 824 113 l 810 113 l 807 113 l 803 113 l 800 113 l 794 113 b 786 114 791 113 789 113 b 705 130 758 116 731 121 b 635 158 678 139 655 148 b 608 174 625 164 616 169 b 588 188 600 178 593 183 l 444 290 b 304 416 392 328 345 370 b 244 590 263 462 244 520 b 263 703 244 625 250 662 b 321 840 275 744 294 789 b 383 897 336 868 356 887 b 471 911 410 906 439 911 b 513 910 485 911 499 911 b 554 906 526 909 540 907 b 575 903 561 905 568 904 b 596 901 582 902 589 901 l 825 871 b 856 867 835 870 846 869 b 888 861 867 865 877 863 b 979 833 921 855 951 845 b 1028 781 1007 820 1023 803 l 1028 777 l 1028 772 b 1027 765 1028 769 1028 767 b 1026 757 1027 762 1026 760 b 1024 745 1025 753 1025 749 b 1021 735 1023 741 1022 738 b 1015 716 1018 727 1016 721 b 1014 707 1013 711 1013 708 b 1026 707 1018 704 1022 704 b 1040 719 1030 710 1035 714 b 1046 726 1042 721 1044 724 b 1051 733 1048 729 1050 731 l 1057 742 l 1063 750 l 1142 858 b 1147 865 1144 861 1145 863 b 1151 871 1148 867 1150 869 b 1153 874 1152 872 1153 873 b 1156 876 1154 875 1155 875 b 1166 890 1159 881 1163 886 b 1171 907 1169 895 1171 900 l 1171 909 l 1171 911 b 1169 917 1171 913 1170 915 b 1164 922 1167 919 1166 920 b 1042 965 1146 937 1106 951 b 838 999 979 978 911 989 b 689 1015 787 1006 737 1012 b 569 1021 641 1019 601 1021 l 561 1021 l 554 1021 b 547 1019 551 1020 549 1019 l 540 1019 b 505 1000 535 1019 523 1013 b 442 958 487 987 466 973 b 422 944 435 954 428 949 b 400 932 415 940 407 936 b 378 919 393 927 385 923 b 356 910 370 916 363 913 b 323 899 345 906 334 902 b 288 888 311 895 300 891 b 208 867 259 879 232 872 b 171 857 184 862 172 859 b 149 830 164 850 157 841 b 125 794 141 819 133 807 b 71 679 106 762 88 724 b 43 542 54 635 45 589 l 43 535 l 43 529 l 43 523 l 43 517 b 131 307 46 441 75 371 b 325 126 187 243 252 183 z "},"h":{"ha":1318,"x_min":0,"x_max":0,"o":"m 289 -7 l 289 -7 l 475 63 l 475 739 l 475 748 b 476 757 475 751 475 754 b 537 876 482 800 502 839 b 653 944 572 912 610 935 b 658 945 655 944 656 945 b 664 946 660 946 662 946 b 669 947 666 947 668 947 l 675 947 l 680 947 l 685 947 b 708 943 692 946 700 945 b 729 938 716 941 723 939 l 744 933 b 753 931 748 931 751 931 l 840 881 b 884 851 853 873 868 863 b 932 808 900 839 916 825 b 1037 667 970 770 1005 723 b 1085 489 1069 610 1085 551 l 1085 485 l 1085 481 b 1042 258 1082 404 1068 329 b 917 46 1016 186 974 115 l 876 -3 b 862 -19 872 -8 867 -14 b 847 -37 857 -25 852 -31 b 844 -39 846 -37 845 -38 b 843 -42 844 -40 843 -41 b 800 -90 827 -59 813 -75 b 783 -121 787 -105 781 -115 b 787 -125 784 -123 785 -124 b 792 -126 788 -126 790 -126 b 819 -112 798 -126 807 -122 b 856 -79 830 -103 843 -92 b 861 -75 857 -78 859 -77 b 867 -68 863 -73 865 -71 b 885 -51 873 -62 879 -57 l 901 -35 l 1083 147 b 1123 192 1094 157 1107 172 b 1174 263 1139 212 1156 236 b 1242 390 1198 300 1220 342 b 1279 536 1263 437 1275 486 b 1281 549 1280 541 1281 545 l 1281 563 l 1281 568 l 1281 574 b 1279 579 1280 575 1279 577 l 1279 585 b 1206 785 1274 654 1249 721 b 1063 946 1162 850 1114 903 b 965 1012 1029 974 997 996 b 886 1036 933 1028 906 1036 l 886 1036 l 886 1036 l 885 1036 l 885 1036 b 758 1013 850 1035 808 1027 b 604 957 708 998 657 979 b 585 950 598 955 591 953 b 565 943 578 947 572 945 l 482 907 l 482 1343 l 192 1343 l 43 1247 l 289 1239 l 289 528 z "},"i":{"ha":507,"x_min":0,"x_max":0,"o":"m 272 -7 l 272 -7 l 463 88 l 463 799 l 463 1024 l 183 1024 l 39 928 l 272 928 l 272 217 z m 364 1326 l 364 1325 l 362 1327 b 361 1329 361 1328 361 1328 l 356 1335 l 351 1339 b 344 1345 349 1342 346 1344 b 338 1347 341 1347 339 1347 l 338 1347 l 338 1347 l 336 1347 l 336 1347 b 326 1343 333 1347 330 1346 b 314 1335 322 1340 318 1338 b 313 1333 314 1334 313 1333 b 311 1331 312 1332 311 1331 b 306 1327 309 1330 308 1328 b 303 1325 305 1326 304 1325 l 244 1274 b 236 1267 242 1272 239 1269 b 228 1260 233 1264 231 1262 b 227 1258 228 1259 228 1258 b 225 1257 227 1257 226 1257 b 205 1238 218 1250 211 1243 b 194 1226 199 1232 195 1228 b 193 1223 194 1225 193 1224 l 193 1218 b 197 1206 193 1213 194 1209 b 207 1194 200 1202 203 1198 b 211 1192 209 1194 210 1193 l 214 1189 b 219 1185 216 1188 217 1187 b 222 1183 220 1184 221 1183 l 300 1101 b 303 1098 301 1100 302 1099 b 307 1094 304 1097 305 1095 l 310 1092 l 313 1089 b 318 1085 314 1087 316 1086 b 324 1083 320 1084 322 1083 b 332 1087 326 1084 329 1085 b 340 1093 335 1088 338 1090 l 342 1095 b 344 1096 343 1096 344 1096 l 347 1098 b 349 1101 347 1098 348 1100 l 433 1178 b 438 1181 435 1179 437 1180 l 443 1186 l 446 1189 l 449 1192 b 461 1205 453 1196 457 1201 b 465 1215 465 1209 466 1213 b 458 1226 464 1218 462 1222 b 446 1240 455 1231 450 1236 l 445 1241 l 443 1243 l 440 1247 b 436 1251 438 1248 437 1250 l 365 1329 z "},"j":{"ha":536,"x_min":0,"x_max":0,"o":"m 388 -29 l 388 -29 b 413 -10 397 -22 405 -15 b 435 6 420 -4 427 1 b 441 10 437 7 439 9 b 449 15 443 12 446 13 b 469 29 455 20 462 25 b 492 46 476 34 483 39 l 492 757 l 492 1032 l 213 1032 l 39 928 l 301 928 l 307 217 l 308 175 b 301 73 309 138 307 104 b 278 -15 296 42 288 13 b 266 -45 274 -25 270 -35 b 253 -75 262 -55 257 -65 b 250 -81 252 -77 251 -79 b 246 -87 249 -84 248 -86 b 203 -149 235 -108 220 -128 b 149 -206 185 -169 167 -188 b 52 -287 112 -240 79 -267 b 44 -307 25 -308 22 -314 b 94 -285 63 -300 79 -293 b 135 -257 108 -276 122 -267 b 163 -233 144 -250 153 -242 b 196 -208 173 -225 184 -217 b 249 -163 216 -194 234 -178 b 293 -118 263 -148 278 -133 b 336 -74 307 -103 321 -88 b 389 -28 351 -59 369 -44 z m 396 1321 l 396 1319 l 394 1322 b 393 1324 393 1322 393 1323 l 388 1329 l 383 1333 b 376 1340 381 1336 378 1338 b 369 1342 373 1341 371 1342 l 369 1342 l 369 1342 l 368 1342 l 368 1342 b 358 1338 365 1342 362 1340 b 346 1329 353 1335 350 1332 b 344 1327 346 1328 345 1328 b 343 1325 344 1327 343 1326 b 338 1322 341 1324 340 1323 b 335 1319 337 1320 336 1319 l 276 1268 b 269 1262 275 1266 272 1264 b 263 1256 267 1259 264 1257 l 260 1253 l 257 1250 l 240 1233 b 231 1222 234 1228 231 1224 b 230 1219 231 1221 230 1220 l 229 1218 l 229 1215 l 229 1213 b 235 1196 229 1206 231 1200 b 247 1183 238 1191 243 1187 l 248 1183 l 249 1182 l 251 1179 b 254 1178 252 1178 253 1178 l 332 1096 b 335 1092 333 1095 334 1094 b 339 1089 336 1091 337 1090 l 342 1086 l 344 1083 b 350 1079 346 1081 348 1080 b 356 1078 352 1078 354 1078 b 364 1081 358 1079 361 1080 b 372 1088 367 1083 369 1085 l 374 1090 b 376 1090 375 1090 375 1090 l 378 1092 b 381 1096 379 1093 380 1094 l 465 1172 b 470 1176 467 1173 469 1174 l 475 1181 l 478 1183 l 481 1186 b 493 1199 485 1191 489 1195 b 497 1210 497 1203 498 1207 b 490 1221 496 1213 494 1216 b 478 1235 487 1225 482 1230 l 477 1235 l 475 1238 l 472 1241 b 468 1246 470 1242 469 1244 l 397 1324 z "},"k":{"ha":1519,"x_min":0,"x_max":0,"o":"m 303 -1 l 303 -1 l 486 81 l 482 542 l 482 544 l 482 547 l 482 549 l 482 551 l 482 557 b 483 561 482 559 482 560 b 487 565 484 563 485 564 b 492 567 488 566 490 567 b 498 565 494 567 496 566 b 506 561 500 564 503 563 b 510 558 507 560 509 559 b 515 554 512 557 513 556 b 525 548 519 552 522 550 b 531 544 528 546 530 544 l 846 231 l 851 226 l 854 222 b 903 173 871 206 887 189 b 950 126 919 157 934 141 b 1049 47 982 95 1016 69 b 1157 11 1083 26 1119 14 l 1167 11 l 1175 11 b 1226 17 1194 11 1211 13 b 1272 35 1242 22 1257 27 b 1306 53 1283 40 1295 47 b 1343 76 1318 60 1330 68 b 1367 90 1350 81 1358 86 b 1393 103 1375 95 1384 99 b 1462 136 1418 116 1441 127 b 1490 158 1483 145 1492 153 b 1487 162 1489 160 1488 161 b 1481 163 1485 162 1483 163 b 1453 157 1474 163 1465 161 b 1414 144 1442 153 1429 149 b 1391 138 1406 143 1399 141 b 1368 133 1383 136 1375 134 b 1344 129 1360 131 1352 130 b 1321 128 1336 128 1328 128 l 1319 128 l 1318 128 l 1316 128 l 1314 128 b 1262 142 1298 129 1281 133 b 1204 172 1243 150 1224 160 b 1164 200 1190 181 1177 190 l 1125 231 b 1076 272 1107 244 1091 258 b 1038 310 1060 286 1048 299 l 653 690 b 722 738 678 707 701 723 b 783 782 744 752 764 767 b 804 797 791 787 798 791 b 824 811 811 802 817 806 b 885 860 844 827 865 843 b 953 915 906 876 929 895 b 996 951 969 928 983 940 b 1033 985 1009 963 1021 974 b 1039 990 1035 987 1037 988 b 1044 994 1041 991 1043 993 b 1081 1028 1056 1006 1069 1017 b 1121 1065 1093 1040 1106 1052 b 1094 1063 1113 1064 1104 1063 b 1067 1058 1085 1062 1076 1060 b 985 1039 1039 1054 1012 1047 b 917 1008 958 1031 935 1020 b 835 943 885 988 858 966 b 769 872 813 920 791 896 b 751 852 764 866 758 859 b 733 831 745 845 739 838 b 701 797 723 819 713 808 b 667 764 690 786 679 775 b 597 705 637 737 614 717 b 549 675 579 692 563 682 b 542 671 547 673 545 672 b 536 668 540 670 538 669 l 508 654 b 475 639 499 650 488 644 l 476 1042 l 242 1044 l 231 1044 l 222 1044 l 219 1044 l 215 1044 l 209 1044 b 201 1043 207 1044 204 1044 b 184 1039 195 1042 189 1041 b 168 1032 179 1037 174 1035 b 164 1029 167 1031 166 1030 b 158 1028 162 1028 160 1028 l 33 950 l 283 953 l 297 242 z "},"l":{"ha":1006,"x_min":0,"x_max":0,"o":"m 214 -3 l 214 -3 l 550 -8 l 635 -8 b 711 -1 661 -8 686 -6 b 765 11 729 1 747 6 b 822 35 783 17 802 25 b 858 53 834 40 846 47 b 890 74 869 60 880 67 b 938 108 908 86 924 97 b 969 136 951 119 962 129 l 960 144 b 938 132 951 140 944 136 l 918 121 b 882 106 907 115 895 110 b 829 97 869 102 851 99 b 781 93 812 95 796 94 b 739 93 767 92 753 92 b 699 94 726 93 713 93 b 651 97 685 94 669 95 l 401 113 l 397 824 l 393 1326 l 190 1332 l 183 1332 l 176 1332 l 166 1332 b 156 1329 163 1332 159 1331 b 147 1325 152 1328 149 1327 b 139 1319 144 1323 142 1321 b 133 1315 137 1318 135 1316 l 128 1313 l 29 1238 l 204 1238 l 210 526 z "},"m":{"ha":1914,"x_min":0,"x_max":0,"o":"m 272 346 l 272 344 b 257 373 266 355 261 364 b 247 400 253 382 250 391 b 241 426 244 408 242 417 b 236 453 240 434 238 444 b 231 480 234 461 233 470 b 225 510 230 490 228 500 b 224 517 224 512 224 514 l 224 525 b 235 602 224 544 228 569 b 268 706 243 635 254 669 b 333 830 285 750 306 791 b 424 904 359 868 389 893 b 433 906 426 905 430 906 b 446 907 437 907 441 907 b 582 869 475 907 521 894 b 779 722 643 843 709 794 b 787 714 782 719 784 717 b 793 706 789 711 791 708 b 824 654 807 689 817 672 b 835 594 831 637 835 617 l 835 592 l 835 590 l 824 0 l 1011 67 l 1011 406 l 1011 417 l 1011 428 b 1060 720 1013 531 1029 629 b 1254 906 1090 811 1155 873 b 1261 908 1256 906 1258 907 b 1271 907 1264 908 1267 908 b 1347 887 1290 907 1316 900 b 1446 831 1379 873 1412 855 b 1570 717 1490 799 1532 761 b 1647 572 1609 672 1634 624 b 1649 563 1648 569 1649 566 b 1649 553 1650 560 1650 556 b 1628 453 1649 528 1642 494 b 1576 322 1614 411 1597 368 b 1545 260 1566 301 1556 280 b 1513 201 1534 239 1524 220 l 1421 42 b 1461 31 1436 37 1449 33 b 1497 24 1473 28 1485 25 b 1531 20 1508 22 1520 21 b 1568 19 1543 20 1555 19 l 1576 19 l 1585 19 b 1650 22 1609 19 1631 20 b 1708 32 1669 24 1689 27 b 1744 43 1720 35 1732 38 b 1782 60 1756 48 1769 53 b 1787 63 1784 61 1785 62 b 1792 65 1788 63 1790 64 b 1828 87 1806 72 1818 79 b 1860 113 1839 95 1850 103 l 1872 125 b 1886 140 1877 130 1881 135 b 1853 133 1874 138 1863 135 b 1822 128 1843 130 1832 129 b 1788 124 1811 126 1800 125 b 1747 122 1775 123 1762 122 b 1711 123 1734 122 1722 122 b 1678 125 1700 123 1689 124 b 1647 128 1668 126 1657 127 b 1614 136 1637 130 1626 132 l 1779 414 b 1814 479 1792 436 1804 458 b 1839 542 1824 500 1832 521 b 1845 574 1842 553 1844 564 b 1847 606 1847 585 1847 595 l 1847 611 l 1847 617 b 1846 621 1846 618 1846 619 l 1846 626 b 1769 808 1840 694 1815 755 b 1622 944 1724 862 1675 907 b 1491 1019 1576 977 1532 1002 b 1407 1044 1450 1036 1422 1044 l 1405 1044 l 1403 1044 b 1367 1036 1390 1043 1378 1040 b 1338 1024 1357 1032 1347 1028 b 1320 1014 1332 1021 1326 1018 b 1301 1003 1314 1010 1308 1006 l 1047 822 b 1042 817 1045 820 1044 819 b 1036 813 1040 816 1038 814 b 1032 810 1034 812 1033 811 l 1028 806 b 1015 796 1024 802 1020 799 b 997 792 1009 793 1004 792 b 974 799 988 792 980 794 b 957 815 968 803 963 809 b 953 820 955 817 954 819 b 949 825 952 822 950 823 b 944 831 947 827 945 829 b 939 838 942 832 941 835 l 901 874 b 849 921 885 890 867 906 b 793 963 830 936 812 950 b 718 1005 768 979 743 993 b 649 1031 693 1016 670 1025 b 631 1034 642 1032 636 1034 b 614 1035 625 1034 619 1035 b 593 1033 606 1035 600 1034 b 572 1028 587 1031 580 1030 b 546 1017 564 1025 555 1022 b 517 1004 537 1013 527 1009 l 206 833 b 179 814 197 829 188 822 b 151 783 170 806 161 795 b 84 669 127 754 105 716 b 42 524 63 622 49 574 b 40 498 41 515 40 507 b 39 472 39 489 39 481 l 39 467 b 40 461 39 465 39 463 l 40 456 l 40 450 b 52 372 42 421 46 395 b 76 304 58 349 66 326 b 97 264 82 291 89 278 b 122 222 104 250 113 236 l 260 1 l 426 93 z "},"n":{"ha":1342,"x_min":0,"x_max":0,"o":"m 282 0 l 282 0 l 468 69 l 468 726 b 470 749 468 734 469 741 b 475 774 472 757 473 765 b 543 882 487 813 510 849 b 650 944 576 915 612 936 b 664 947 655 945 659 946 b 678 947 669 947 673 947 l 687 947 b 697 946 690 947 694 947 b 727 941 707 945 717 943 b 753 933 737 939 745 936 b 776 926 762 931 770 928 b 788 922 782 923 786 922 l 875 872 b 914 847 887 866 900 857 b 956 813 928 837 942 825 b 1058 678 993 776 1027 732 b 1106 507 1090 625 1106 568 l 1106 503 l 1106 499 b 1079 349 1104 448 1095 398 b 1014 206 1063 301 1042 253 b 969 133 1001 181 986 157 b 917 63 953 109 935 86 l 860 -11 b 846 -28 855 -17 850 -22 b 831 -47 841 -34 836 -41 l 828 -49 b 828 -51 828 -50 828 -50 b 787 -101 813 -69 799 -86 b 771 -133 774 -117 769 -128 b 795 -130 773 -141 781 -140 b 842 -92 809 -120 825 -107 l 847 -86 l 853 -81 b 881 -56 863 -72 872 -64 l 901 -35 l 1083 142 b 1128 188 1094 153 1109 168 b 1186 258 1146 208 1166 231 b 1269 397 1217 299 1244 345 b 1307 556 1294 448 1307 501 b 1226 788 1307 637 1280 714 b 1049 967 1173 861 1113 920 b 941 1028 1012 993 976 1013 b 851 1051 906 1044 876 1051 l 848 1051 l 844 1051 b 841 1050 844 1050 842 1050 l 838 1050 b 730 1017 808 1045 772 1034 b 599 954 688 1000 644 979 b 557 931 585 947 571 939 b 517 907 543 922 530 914 l 475 879 l 475 1019 l 210 1019 l 36 928 l 282 924 l 282 213 z "},"o":{"ha":1181,"x_min":0,"x_max":0,"o":"m 778 1022 l 778 1021 b 757 1026 771 1023 764 1025 b 736 1032 750 1028 743 1030 b 673 1042 715 1037 694 1040 b 613 1044 652 1044 632 1044 b 519 1035 579 1044 548 1041 b 446 1010 491 1029 466 1021 l 250 892 b 110 755 186 854 140 808 b 49 564 81 702 61 638 b 43 519 46 549 44 534 b 42 472 42 503 42 488 b 109 224 42 381 64 299 b 303 46 154 150 219 90 b 423 -1 344 25 384 10 b 540 -17 462 -11 501 -17 b 661 1 581 -17 621 -11 b 781 60 701 13 741 33 l 976 188 b 1108 340 1040 229 1084 280 b 1143 543 1131 400 1143 468 l 1143 547 l 1143 551 l 1143 555 l 1143 558 b 1040 851 1142 673 1108 771 b 775 1021 973 932 884 988 z m 251 372 l 251 371 b 233 451 243 397 237 424 b 225 536 228 479 226 507 l 225 551 l 225 565 b 253 780 225 642 234 714 b 324 907 272 846 296 888 b 364 920 332 913 345 917 b 431 925 382 923 405 925 b 520 919 457 925 487 923 b 621 899 553 915 587 908 b 761 845 669 887 716 869 b 872 756 806 822 844 792 b 935 638 900 721 921 682 b 961 503 949 594 957 549 b 963 474 962 494 963 484 b 964 446 964 465 964 455 b 940 272 964 383 956 325 b 881 161 925 219 905 182 b 810 122 859 143 836 129 b 729 110 784 114 757 110 b 675 114 712 110 694 111 b 619 125 656 117 638 120 b 484 179 573 138 528 156 b 367 251 440 202 401 226 b 290 317 335 275 309 297 b 253 371 270 338 257 356 z "},"p":{"ha":1072,"x_min":0,"x_max":0,"o":"m 414 424 l 414 424 l 464 422 b 535 426 487 422 511 423 b 607 436 559 428 583 431 b 903 548 714 456 813 493 b 1036 736 993 603 1037 666 l 1036 739 l 1036 742 l 1036 744 l 1036 747 b 911 969 1028 844 986 919 b 660 1046 836 1020 752 1046 l 652 1046 l 644 1046 b 637 1044 642 1045 639 1044 b 629 1046 634 1044 632 1045 l 256 1021 b 237 1020 249 1021 243 1021 b 219 1018 231 1020 225 1019 b 202 1015 214 1017 208 1016 b 183 1010 196 1013 190 1012 b 163 1001 176 1007 169 1004 b 146 993 157 999 151 996 b 137 986 143 990 140 988 b 126 981 134 984 130 982 l 35 914 l 231 926 l 231 215 l 231 -6 l 410 72 z m 490 942 l 490 940 b 721 885 575 942 651 924 b 838 679 790 846 829 777 l 838 672 l 838 665 b 768 531 838 611 814 566 b 615 469 722 497 671 476 b 601 467 611 469 606 468 b 588 467 597 467 592 467 l 585 467 l 585 467 l 583 467 l 581 467 b 556 467 572 467 564 467 b 531 469 547 468 539 469 b 496 475 519 471 507 473 b 465 481 485 477 475 479 b 430 488 451 483 440 486 b 413 494 420 491 414 493 l 413 940 z "},"q":{"ha":1011,"x_min":0,"x_max":0,"o":"m 518 303 l 518 303 l 379 358 b 260 458 325 381 286 414 b 215 610 235 502 220 552 l 215 615 l 215 618 b 214 623 214 620 214 622 l 214 628 b 215 648 214 634 214 641 b 218 669 216 655 217 662 b 242 748 223 696 231 722 b 276 815 253 773 264 796 b 305 858 286 832 295 846 b 328 881 315 869 322 877 b 340 885 331 882 335 884 b 360 886 346 886 352 886 b 412 881 374 886 391 884 b 475 869 433 878 454 874 b 515 858 489 866 502 862 b 551 847 528 855 540 851 l 632 814 l 636 812 b 640 811 637 811 638 811 b 756 727 699 788 737 760 b 785 558 774 694 784 638 b 685 258 787 437 753 337 b 460 113 617 180 542 131 b 429 106 450 110 439 108 b 399 104 419 105 409 104 l 395 104 l 392 104 l 388 104 l 385 104 b 353 106 374 104 363 105 b 325 110 344 106 334 108 b 293 117 315 112 304 114 b 258 129 282 119 270 124 l 117 25 b 114 23 116 24 115 23 b 111 21 113 22 112 22 b 101 14 107 19 104 17 b 94 4 99 11 96 8 b 93 1 94 3 93 2 l 93 -1 l 93 -2 l 93 -3 l 93 -3 l 93 -4 b 102 -12 94 -8 97 -10 b 118 -17 107 -13 113 -15 l 121 -17 l 124 -17 b 126 -17 125 -17 125 -17 b 129 -18 127 -18 128 -18 l 194 -31 b 226 -37 206 -33 217 -36 b 253 -43 236 -39 244 -41 b 261 -44 256 -43 258 -44 l 269 -47 b 325 -62 286 -51 305 -56 b 415 -87 345 -68 375 -76 b 478 -106 437 -94 458 -100 b 539 -125 499 -112 519 -119 b 721 -183 603 -144 663 -164 b 892 -236 778 -202 835 -219 b 1088 -281 956 -254 1021 -269 b 1301 -300 1154 -293 1225 -299 l 1328 -300 l 1354 -300 b 1448 -297 1388 -300 1419 -299 b 1535 -282 1477 -294 1506 -289 b 1601 -260 1557 -276 1579 -269 b 1671 -228 1624 -252 1647 -241 l 1799 -158 l 1804 -156 b 1811 -151 1806 -155 1808 -153 b 1832 -138 1819 -148 1825 -143 b 1840 -124 1838 -133 1841 -128 b 1827 -121 1839 -119 1835 -118 b 1801 -132 1819 -124 1811 -127 l 1801 -133 b 1799 -133 1800 -133 1800 -133 b 1789 -139 1796 -135 1793 -137 b 1779 -143 1785 -141 1782 -142 l 1693 -181 b 1628 -198 1675 -188 1653 -194 b 1553 -204 1604 -202 1579 -204 l 1542 -204 l 1532 -204 b 1434 -195 1496 -202 1463 -199 b 1349 -179 1405 -191 1376 -186 b 1301 -167 1333 -175 1317 -171 b 1253 -153 1286 -162 1269 -157 l 542 63 l 476 82 b 542 115 481 83 503 94 b 668 189 581 135 623 160 b 706 214 681 197 694 206 b 743 239 719 222 731 231 b 782 267 757 248 770 258 b 815 296 794 277 805 287 b 838 317 823 303 830 310 b 858 339 845 324 852 331 b 948 482 900 383 930 431 b 979 679 966 533 976 599 l 979 685 l 979 690 b 896 880 979 769 951 832 b 713 983 840 928 779 962 b 618 1006 680 994 649 1001 b 535 1014 588 1011 560 1014 b 499 1012 522 1014 510 1013 b 471 1006 488 1010 478 1008 b 421 981 451 999 435 991 b 381 950 407 972 394 961 b 351 924 371 942 362 933 b 317 896 341 914 330 905 b 207 825 276 864 239 841 b 135 782 175 809 150 795 l 130 777 l 126 774 b 67 674 104 750 84 717 b 40 535 49 630 40 584 l 40 529 b 42 525 40 527 41 526 l 42 519 l 42 514 b 113 324 46 441 70 377 b 265 206 155 270 206 231 l 324 181 z "},"r":{"ha":1319,"x_min":0,"x_max":0,"o":"m 417 926 l 417 925 b 445 931 427 927 436 929 b 471 935 454 932 463 934 b 487 935 476 935 482 935 b 503 936 492 936 497 936 l 509 936 l 517 936 b 523 935 519 935 521 935 l 531 935 b 728 884 602 931 668 914 b 843 738 788 854 826 805 b 844 731 844 736 844 733 l 844 722 b 833 680 844 709 841 695 b 800 635 825 665 814 650 b 718 562 779 610 751 585 b 615 503 685 538 650 519 b 598 495 610 500 604 497 b 581 490 592 493 586 491 l 528 469 b 522 467 526 469 524 468 b 515 464 519 466 517 465 b 506 460 512 463 508 462 b 500 453 503 458 501 456 l 500 453 l 500 453 l 500 451 l 500 451 b 524 413 501 446 509 433 b 576 349 540 393 557 372 b 580 344 577 348 578 346 b 583 340 581 343 582 341 b 633 283 601 320 617 301 b 664 247 648 266 658 254 b 702 207 678 232 691 219 b 736 172 714 195 725 183 b 737 171 736 171 736 171 l 738 171 b 769 138 748 160 758 149 b 804 100 781 126 792 114 b 812 92 807 97 809 94 b 819 82 814 89 817 86 b 885 25 839 62 861 43 b 969 -4 910 7 938 -2 l 974 -4 l 978 -4 l 981 -4 l 985 -4 b 1043 4 1006 -4 1025 -1 b 1094 25 1061 10 1078 17 b 1120 40 1103 30 1111 35 b 1147 56 1129 46 1138 51 b 1169 68 1155 60 1162 64 b 1193 81 1177 72 1185 76 l 1286 125 l 1276 142 b 1264 135 1275 142 1271 140 b 1236 122 1256 131 1247 127 b 1199 109 1225 118 1213 113 b 1158 101 1186 105 1172 102 l 1153 101 l 1147 101 l 1144 101 l 1142 101 l 1139 101 l 1136 101 b 1086 114 1117 102 1100 106 b 1046 143 1072 121 1059 131 b 1040 150 1044 146 1042 148 b 1033 158 1037 152 1035 155 l 1010 182 b 971 222 996 197 983 210 b 936 258 959 234 947 246 l 935 259 b 933 260 935 259 934 260 b 900 294 922 271 911 282 b 864 333 889 305 877 319 b 825 377 850 349 837 364 b 790 417 813 391 801 404 b 783 426 788 419 785 422 b 775 435 780 429 778 432 b 744 473 765 447 754 459 b 710 518 733 486 722 501 l 733 528 b 759 539 742 531 750 535 b 785 551 768 543 776 547 b 953 650 846 580 902 613 b 1031 793 1005 687 1031 735 l 1031 804 b 1029 815 1031 808 1030 812 b 955 952 1022 873 997 918 b 818 1026 913 986 867 1011 b 728 1049 788 1037 758 1044 b 654 1056 699 1053 675 1056 l 652 1056 l 651 1056 l 649 1056 l 647 1056 b 567 1051 619 1055 592 1053 b 497 1044 543 1048 519 1046 b 426 1037 474 1042 450 1039 b 346 1032 402 1034 375 1033 b 309 1031 333 1031 321 1031 l 275 1031 l 269 1031 l 263 1031 l 253 1031 b 244 1032 250 1031 247 1031 l 228 1032 l 210 1032 b 201 1028 207 1031 204 1030 b 192 1025 197 1027 194 1026 b 173 1017 185 1022 179 1019 b 156 1008 167 1014 161 1011 b 135 999 149 1006 142 1002 b 114 986 128 995 121 991 b 98 977 108 983 103 980 b 83 968 93 974 88 971 b 74 961 81 965 78 963 b 65 956 71 959 68 957 b 48 942 60 951 54 947 b 29 929 42 938 36 934 l 226 931 l 231 219 l 233 -4 l 415 58 l 415 769 z "},"s":{"ha":917,"x_min":0,"x_max":0,"o":"m 89 828 l 89 826 b 79 790 85 820 82 808 b 75 732 76 773 75 753 l 75 724 b 76 715 75 721 75 718 b 81 667 77 699 79 682 b 92 626 84 651 87 638 b 133 586 99 612 113 598 b 197 554 153 574 174 563 b 200 552 198 553 199 553 b 203 553 201 552 202 552 l 517 422 b 619 374 569 401 604 385 b 656 343 635 363 647 352 b 678 309 665 334 672 322 b 692 268 683 296 688 282 b 697 234 694 256 696 245 b 699 204 698 223 699 213 b 697 177 699 193 698 184 b 692 164 695 170 694 166 b 615 138 671 151 646 142 b 515 132 584 134 550 132 b 465 135 500 132 483 133 b 413 143 448 137 430 139 b 325 165 383 149 354 156 b 250 194 296 175 271 184 b 210 217 233 202 220 209 b 196 238 201 225 196 232 l 196 239 l 196 239 b 198 247 196 242 197 244 b 203 254 199 249 201 251 b 207 260 205 256 206 258 l 210 265 l 210 270 b 208 274 210 272 209 273 b 199 278 206 278 202 280 b 186 269 195 276 191 273 l 183 266 b 179 261 181 265 180 263 b 174 256 177 259 176 257 b 169 251 173 254 171 252 l 76 156 l 72 151 l 67 146 b 65 144 66 146 65 145 b 63 142 64 144 63 143 b 51 129 58 138 54 134 b 46 114 47 125 46 119 l 46 113 b 47 111 46 113 46 112 l 47 110 l 47 108 b 70 84 49 102 57 94 b 121 56 84 74 100 65 b 207 21 146 44 175 32 b 308 -4 239 10 273 1 b 356 -11 324 -7 340 -9 b 404 -14 372 -13 388 -14 l 407 -14 l 410 -14 l 411 -14 l 414 -14 l 422 -14 l 431 -14 b 469 -12 444 -13 457 -12 b 506 -8 481 -11 494 -10 b 537 -1 516 -6 526 -4 b 571 11 547 1 559 6 b 615 46 582 16 597 27 b 676 104 634 64 654 84 b 699 126 684 112 691 119 b 724 147 707 134 715 141 b 727 150 725 148 726 149 b 731 153 728 151 730 152 b 749 167 736 157 742 162 b 768 182 755 171 762 176 b 774 187 770 184 772 185 b 781 192 777 188 779 190 b 843 235 804 207 825 222 b 872 261 862 249 871 257 b 877 284 874 269 876 276 b 879 307 878 292 879 300 l 879 313 b 878 319 879 316 879 318 b 858 395 876 345 869 371 b 819 460 847 420 834 441 b 719 542 796 490 763 518 b 578 608 676 566 629 588 l 367 689 b 282 731 326 706 298 720 b 254 764 266 743 257 754 l 254 768 l 254 771 l 254 775 l 254 782 b 253 790 253 784 253 786 l 253 799 b 253 817 253 804 253 810 b 257 836 254 823 255 830 b 266 869 259 847 262 858 b 285 894 270 879 276 888 b 288 895 286 894 287 895 l 294 897 b 344 902 305 899 321 901 b 418 904 366 903 391 904 l 428 904 l 439 904 b 481 903 453 904 467 904 b 519 899 494 902 507 900 b 551 894 530 898 540 896 l 585 889 b 681 867 620 882 652 875 b 732 838 710 858 727 849 b 733 835 732 837 732 836 l 733 835 l 733 833 l 733 831 b 731 822 733 828 733 825 b 728 814 730 819 729 817 l 726 814 l 726 814 b 723 805 725 811 724 808 b 721 796 722 802 721 799 b 722 794 722 795 722 794 l 722 792 b 726 786 723 789 724 787 b 729 785 727 785 728 785 b 753 804 735 786 743 792 b 792 843 764 816 777 829 b 801 853 794 847 797 850 b 811 861 804 856 807 858 b 825 873 816 865 820 869 b 838 885 830 877 834 881 b 877 931 854 901 867 917 b 885 964 887 946 889 956 b 798 1015 866 990 837 1007 b 672 1032 759 1022 717 1028 l 670 1032 l 668 1032 b 656 1034 664 1033 660 1034 b 644 1035 652 1034 648 1035 b 607 1038 632 1036 620 1037 b 567 1039 594 1038 581 1039 l 558 1039 l 547 1039 b 501 1038 531 1039 516 1039 b 463 1038 487 1038 474 1038 b 434 1035 450 1037 441 1036 l 424 1035 b 369 1005 407 1030 389 1020 b 308 956 350 990 330 973 b 288 939 302 950 295 944 b 268 924 281 933 275 928 b 175 868 234 898 203 879 b 111 840 147 857 126 848 b 101 833 107 838 104 835 b 94 828 99 831 96 830 z "},"t":{"ha":1274,"x_min":0,"x_max":0,"o":"m 221 833 l 221 832 b 142 736 182 810 156 778 b 119 607 128 694 120 651 l 119 602 l 119 599 b 125 513 119 570 121 541 b 138 438 129 485 133 460 b 148 390 141 419 145 403 b 154 361 151 377 153 368 b 190 291 158 341 170 317 b 267 210 211 265 236 238 b 395 115 304 177 347 146 b 543 39 444 85 493 59 b 633 10 574 27 604 17 b 719 -1 663 3 692 0 l 720 -1 l 722 -1 l 724 -1 l 725 -1 b 802 8 749 -1 775 2 b 886 36 829 15 857 24 b 968 74 914 47 941 60 b 1043 118 995 89 1020 103 b 1144 193 1086 145 1119 170 b 1168 236 1168 216 1176 231 b 1166 238 1167 237 1166 238 l 1164 238 b 1131 219 1157 237 1147 230 b 1074 179 1116 207 1097 194 b 1003 145 1053 167 1030 156 b 917 124 977 134 948 127 b 904 122 913 123 909 122 l 890 122 b 797 136 862 122 831 127 b 694 171 764 145 730 157 b 592 221 660 186 626 202 b 499 278 559 239 527 258 b 403 352 461 304 429 328 b 356 410 377 376 361 395 b 333 499 345 438 338 467 b 324 594 328 530 325 562 l 324 606 l 324 617 b 340 776 324 674 329 727 b 381 881 351 825 365 860 b 406 904 388 891 396 899 b 435 919 415 910 425 915 b 443 923 438 920 440 922 b 451 928 446 924 449 926 l 690 926 b 878 931 759 926 822 928 b 1044 956 935 934 991 943 b 1107 974 1068 961 1088 967 b 1161 999 1125 981 1144 989 b 1197 1020 1173 1005 1185 1012 b 1236 1044 1209 1028 1222 1036 b 1219 1039 1234 1044 1229 1043 b 1171 1028 1210 1035 1194 1031 b 1062 1016 1145 1023 1109 1019 b 876 1011 1015 1013 953 1011 b 799 1012 852 1011 827 1011 b 713 1014 772 1012 743 1013 b 639 1016 687 1015 662 1016 b 571 1018 616 1016 593 1017 b 532 1019 558 1018 545 1018 b 494 1019 519 1019 506 1019 b 394 1024 461 1020 428 1022 b 281 1033 360 1025 322 1029 l 301 1047 b 308 1051 303 1048 305 1050 b 314 1056 310 1053 312 1055 b 322 1063 317 1058 319 1061 b 328 1068 324 1064 326 1066 b 339 1081 332 1073 336 1077 b 342 1092 342 1085 343 1089 b 339 1095 341 1094 340 1095 b 335 1096 338 1096 337 1096 b 286 1072 326 1096 310 1088 b 190 1018 262 1055 230 1038 l 160 1003 b 133 989 150 998 142 994 b 119 981 129 986 124 984 b 107 974 115 979 111 976 l 74 954 b 38 933 63 948 50 941 l 379 928 z "},"u":{"ha":1474,"x_min":0,"x_max":0,"o":"m 297 564 l 297 563 l 297 563 l 297 565 l 297 567 l 297 568 b 315 653 297 591 303 620 b 356 757 326 687 340 722 b 375 797 362 770 369 783 b 396 835 381 810 388 823 b 460 950 419 879 441 918 b 493 1000 480 982 491 999 b 472 1002 492 1000 485 1001 b 424 1007 458 1003 442 1005 b 386 1010 412 1008 399 1009 l 347 1013 b 312 1013 335 1013 323 1013 b 279 1014 300 1014 289 1014 b 239 1013 264 1014 251 1013 b 211 1008 227 1012 218 1010 b 176 993 208 1007 197 1002 b 110 958 156 984 134 972 b 74 936 98 952 86 944 b 42 913 62 928 51 920 l 307 908 l 261 829 b 258 823 260 827 259 825 b 253 817 256 821 255 819 b 156 647 218 757 185 701 b 111 489 126 594 111 541 l 111 486 l 111 482 b 112 470 111 478 111 474 b 114 457 112 466 113 462 b 199 261 122 390 151 325 b 358 96 248 197 301 142 b 479 13 400 62 440 34 b 571 -24 518 -9 549 -21 b 592 -26 578 -25 585 -25 b 613 -26 599 -26 606 -26 b 714 -13 645 -26 679 -22 b 819 26 749 -4 784 9 b 847 39 829 30 838 34 b 874 56 855 44 864 49 l 1018 139 l 1018 -3 l 1258 -7 l 1263 -7 l 1267 -7 l 1276 -7 l 1286 -7 b 1295 -6 1289 -7 1292 -6 b 1306 -3 1298 -5 1302 -4 b 1320 3 1311 -1 1316 1 b 1332 10 1324 5 1328 7 b 1337 13 1334 11 1335 12 b 1340 17 1338 13 1339 15 l 1439 92 l 1214 100 l 1210 811 l 1207 1014 l 954 1013 b 939 1012 949 1013 944 1012 b 926 1010 934 1011 930 1011 l 915 1007 l 904 1004 b 888 997 899 1002 893 1000 b 874 989 883 994 878 992 b 866 983 871 987 868 985 b 858 979 864 981 861 980 l 764 910 l 1014 907 l 1014 200 l 1007 185 b 978 150 1002 175 993 163 b 924 119 965 139 947 128 b 833 101 900 109 870 103 l 831 101 l 828 101 l 825 101 l 822 101 b 728 117 794 101 762 107 b 625 161 694 128 659 143 b 429 306 556 197 490 246 b 307 494 368 367 327 430 b 300 526 304 505 302 515 b 296 560 298 538 297 549 z "},"v":{"ha":1331,"x_min":0,"x_max":0,"o":"m 846 236 l 846 235 b 941 372 878 277 910 323 b 1032 519 972 420 1002 469 b 1204 840 1099 633 1156 740 b 1290 1025 1252 939 1281 1001 l 1007 1024 l 1001 1024 l 996 1024 b 987 1024 993 1024 990 1024 b 976 1024 984 1025 980 1025 l 964 1024 b 949 1021 959 1024 954 1023 l 938 1018 b 926 1014 934 1017 930 1016 b 921 1013 925 1014 923 1013 b 915 1011 919 1012 917 1011 l 782 933 l 1124 917 b 1100 851 1115 894 1107 872 b 1078 793 1093 831 1085 812 b 1056 740 1070 775 1063 758 b 1033 689 1049 723 1042 706 b 991 599 1020 659 1006 629 b 939 499 976 568 958 535 b 904 435 927 475 915 454 b 872 378 893 415 882 396 b 858 355 868 370 863 363 b 843 331 854 347 849 339 b 797 259 829 307 814 284 b 740 179 781 234 762 208 l 399 890 l 385 917 b 384 919 385 918 384 918 b 383 921 384 919 383 920 b 343 988 371 945 358 967 b 283 1018 328 1008 308 1018 l 283 1018 l 283 1018 l 282 1018 l 282 1018 b 226 995 264 1018 246 1010 b 164 946 206 980 185 963 b 144 929 157 940 151 935 b 124 913 137 924 130 918 b 115 906 121 911 118 909 b 104 899 111 904 108 901 b 96 894 101 897 99 895 b 89 889 93 892 91 891 b 49 865 74 881 61 872 b 33 844 38 857 32 850 l 33 842 b 35 840 33 842 34 841 b 54 839 38 835 45 834 b 85 856 63 844 74 849 b 99 864 89 858 94 861 b 115 871 104 867 110 869 b 126 874 119 872 122 873 b 136 875 129 875 132 875 l 139 875 l 142 875 b 144 874 143 875 144 875 b 147 874 145 874 146 874 b 185 849 164 869 177 861 b 210 808 194 837 202 823 l 215 797 b 221 788 217 794 219 790 l 567 76 l 607 -6 b 613 -12 609 -8 611 -11 b 619 -17 614 -14 617 -16 b 620 -18 619 -18 620 -18 l 621 -18 b 624 -20 622 -19 623 -20 b 626 -22 625 -21 625 -21 b 628 -24 627 -23 628 -24 l 631 -24 b 685 24 641 -23 659 -7 b 768 131 711 55 738 91 b 772 135 769 132 770 134 b 775 140 773 137 774 138 b 810 188 787 157 799 173 b 843 233 822 203 833 219 z "},"w":{"ha":2146,"x_min":0,"x_max":0,"o":"m 1046 103 l 1046 101 b 1081 73 1058 91 1069 82 b 1114 47 1092 64 1103 56 b 1181 9 1135 31 1158 19 b 1263 -8 1205 -1 1232 -6 l 1268 -8 b 1275 -10 1270 -8 1272 -9 l 1281 -10 l 1286 -10 b 1344 -3 1307 -10 1327 -8 b 1397 15 1362 1 1380 7 b 1441 37 1412 22 1427 29 b 1488 64 1455 45 1471 54 l 1654 158 l 1656 1 l 1863 6 l 1878 6 b 1894 7 1884 6 1889 6 b 1909 10 1899 8 1904 9 b 1925 13 1914 11 1919 12 b 1946 19 1932 14 1939 16 b 1964 26 1952 21 1958 24 b 1976 33 1968 28 1972 30 b 1989 42 1980 35 1984 38 l 2114 119 l 1850 118 l 1850 829 l 1850 1028 l 1593 1026 b 1582 1026 1589 1026 1586 1026 b 1571 1025 1578 1025 1575 1025 b 1565 1024 1569 1024 1567 1024 b 1560 1022 1563 1024 1562 1023 b 1547 1019 1555 1021 1551 1020 b 1538 1015 1544 1019 1540 1017 l 1529 1013 l 1521 1010 l 1368 926 l 1387 928 b 1432 931 1399 929 1414 930 b 1458 931 1440 931 1449 931 b 1483 932 1466 932 1475 932 b 1516 933 1494 932 1505 932 b 1546 933 1527 933 1537 933 l 1576 933 b 1604 932 1586 933 1595 933 b 1629 931 1613 932 1621 932 b 1657 932 1638 931 1647 931 l 1657 221 l 1657 203 b 1627 182 1647 195 1637 188 b 1599 164 1617 175 1608 169 b 1522 134 1574 150 1548 140 b 1433 124 1496 128 1467 125 l 1431 124 l 1429 124 b 1351 138 1405 124 1379 128 b 1265 178 1322 148 1294 161 b 1167 250 1232 198 1199 222 b 1082 343 1135 278 1107 309 l 1000 449 b 985 470 994 456 990 463 b 974 490 981 477 977 484 b 955 540 965 507 959 524 b 946 597 951 557 948 576 l 946 603 l 946 608 b 944 614 945 610 944 612 l 944 619 b 955 685 944 644 948 666 b 982 744 962 705 971 725 b 1005 784 988 757 996 771 b 1032 826 1014 797 1023 812 b 1035 833 1033 828 1034 830 b 1039 840 1037 835 1038 838 l 1146 1028 l 883 1026 b 869 1026 878 1026 873 1026 b 856 1025 865 1025 860 1025 b 842 1022 851 1024 847 1023 b 828 1019 838 1021 833 1020 b 807 1014 820 1018 813 1016 b 789 1007 800 1012 794 1010 b 777 1001 785 1005 781 1003 b 764 996 773 1000 769 998 l 649 926 b 694 928 665 927 681 928 b 735 931 708 929 722 930 l 752 931 l 771 931 l 778 931 l 785 931 l 799 931 l 813 931 b 847 929 825 930 837 929 l 878 929 l 888 929 l 899 929 l 910 929 l 922 929 b 935 928 927 928 931 928 b 949 929 940 928 944 928 l 842 729 b 815 682 832 713 824 697 b 792 639 807 667 799 653 b 771 583 783 620 776 602 b 763 518 765 564 763 542 b 776 435 763 487 768 459 b 810 364 784 411 795 387 b 827 339 815 356 821 347 b 847 315 833 331 840 323 l 964 174 l 901 136 b 881 126 895 132 888 129 b 861 118 874 122 868 120 b 810 104 844 112 826 107 b 761 100 793 101 777 100 l 753 100 l 744 100 b 671 118 726 101 701 107 b 575 165 640 129 608 145 b 520 203 556 176 538 189 b 469 253 502 218 485 234 l 361 368 b 352 378 358 372 355 375 l 343 388 b 292 476 320 416 303 446 b 276 578 282 506 276 540 l 276 584 l 276 590 b 292 657 277 603 282 625 b 328 756 301 688 313 721 b 347 797 333 769 340 783 l 367 838 l 450 986 b 453 992 451 988 452 990 b 457 996 455 994 456 995 b 466 1009 461 1000 464 1005 b 465 1021 468 1013 468 1017 b 458 1027 463 1025 461 1027 b 447 1028 454 1028 451 1028 l 445 1028 l 444 1028 l 442 1028 b 440 1029 442 1028 441 1028 l 224 1028 b 188 1024 209 1028 197 1026 b 163 1013 178 1021 170 1017 b 146 1002 157 1010 151 1006 b 126 989 140 998 134 994 b 124 987 125 988 125 987 b 121 986 123 986 122 986 l 101 972 b 83 957 95 968 89 963 b 54 932 72 949 63 940 b 36 913 46 924 40 917 b 63 919 46 915 55 918 b 88 924 71 921 79 923 b 113 928 96 925 104 927 b 139 931 121 929 130 930 b 165 932 148 931 157 932 l 189 932 l 206 932 b 222 931 211 932 217 931 b 256 928 233 931 244 930 b 289 925 267 927 278 926 l 160 710 b 147 688 156 703 152 696 b 133 664 143 680 138 672 b 103 590 122 642 112 617 b 89 507 94 563 89 536 b 115 382 89 463 98 421 b 174 286 133 343 152 311 b 179 279 175 283 177 281 b 185 275 181 277 183 276 l 346 104 b 349 99 347 102 348 101 b 354 96 351 98 352 97 b 458 19 388 62 422 36 b 586 -14 494 2 537 -9 l 591 -14 b 596 -15 592 -14 594 -14 l 600 -15 l 604 -15 b 629 -14 613 -15 621 -15 b 654 -10 638 -13 646 -12 b 717 6 675 -6 697 -1 b 775 28 738 13 757 20 b 830 54 796 37 815 46 b 860 72 845 63 855 69 l 997 146 z "},"x":{"ha":1606,"x_min":0,"x_max":0,"o":"m 596 594 l 596 594 l 165 72 b 143 50 163 69 156 62 b 100 10 130 38 116 25 l 97 7 l 94 4 b 78 -8 89 0 83 -4 b 63 -22 72 -13 67 -18 b 41 -41 55 -29 48 -35 b 21 -58 34 -47 27 -53 l 16 -63 b 11 -67 15 -65 13 -66 b -7 -81 5 -71 -1 -76 b -26 -97 -12 -86 -19 -92 b -17 -94 -24 -96 -21 -95 b -8 -92 -14 -94 -11 -93 b 18 -82 1 -89 10 -86 l 43 -71 b 60 -62 49 -68 54 -65 b 76 -50 65 -59 71 -55 l 88 -42 l 99 -33 l 113 -22 b 126 -10 117 -19 122 -14 b 171 31 143 4 158 18 b 193 54 184 44 191 51 l 644 538 b 691 476 661 515 677 495 b 733 424 705 458 719 440 b 736 419 734 422 735 420 b 739 415 737 419 738 417 b 783 360 754 398 769 379 b 833 299 798 341 815 321 b 1043 51 937 170 1007 88 l 1099 -4 l 1300 -4 b 1346 0 1317 -4 1332 -3 b 1386 11 1360 3 1373 6 b 1417 25 1396 16 1407 20 b 1451 40 1428 30 1439 35 b 1469 48 1458 43 1464 46 b 1485 56 1474 50 1479 53 b 1503 65 1491 58 1497 61 b 1522 75 1509 68 1516 71 b 1545 90 1530 80 1537 84 b 1571 107 1553 95 1562 100 b 1523 103 1553 105 1537 104 b 1479 100 1509 102 1494 101 b 1434 98 1464 99 1449 98 b 1383 97 1419 97 1402 97 l 1348 97 b 1317 99 1337 97 1327 98 b 1284 99 1306 99 1295 99 b 1249 101 1273 100 1262 100 b 1178 184 1223 131 1199 159 b 1117 258 1156 209 1136 234 b 1109 267 1114 261 1111 264 b 1103 275 1107 269 1105 272 b 1044 347 1083 298 1064 322 b 978 431 1024 372 1002 400 b 927 495 959 454 942 475 b 882 553 912 515 897 534 b 878 558 881 555 880 556 b 875 563 877 560 876 562 b 831 620 860 581 845 600 b 782 688 816 640 800 663 l 919 836 b 941 860 927 844 934 852 b 960 882 948 867 954 875 b 997 917 972 895 984 906 b 1044 942 1009 927 1025 935 b 1085 951 1056 946 1070 949 b 1129 953 1100 952 1114 953 b 1169 951 1143 953 1156 952 b 1201 947 1181 950 1192 949 b 1222 944 1210 946 1216 945 b 1231 944 1227 944 1230 944 l 1418 1031 b 1329 1047 1386 1038 1356 1043 b 1253 1051 1302 1050 1277 1051 b 1188 1047 1230 1051 1208 1050 b 1128 1033 1168 1043 1148 1039 b 1060 1008 1106 1027 1083 1019 b 988 972 1038 998 1013 986 b 947 949 974 966 960 958 b 910 922 934 941 922 931 b 863 886 892 910 877 898 b 833 860 850 874 840 865 l 726 753 l 496 1039 l 258 1038 b 248 1037 255 1038 251 1037 b 239 1036 245 1036 242 1036 b 230 1033 236 1035 233 1034 b 219 1031 227 1032 223 1031 b 206 1027 215 1030 210 1028 b 194 1022 202 1026 198 1024 b 186 1017 192 1020 189 1019 b 176 1014 183 1016 180 1015 l 39 938 l 325 938 z "},"y":{"ha":1303,"x_min":0,"x_max":0,"o":"m 249 792 l 249 790 b 210 727 235 768 222 747 b 178 669 199 707 188 688 b 143 590 165 644 153 617 b 117 496 133 562 124 531 b 115 490 116 494 115 492 l 115 482 b 151 377 115 455 127 420 b 244 242 175 334 206 289 b 319 156 268 213 292 184 b 399 78 345 128 372 102 b 515 -8 438 43 477 14 b 611 -40 552 -29 584 -40 l 614 -40 l 618 -40 b 621 -39 619 -39 620 -39 l 624 -39 b 679 -30 644 -36 663 -33 b 728 -17 696 -27 712 -22 b 760 -5 739 -13 750 -9 b 794 13 771 -1 782 5 l 1015 129 l 1015 -24 l 1015 -35 b 1014 -47 1015 -40 1015 -44 b 997 -123 1013 -74 1007 -99 b 942 -167 986 -147 968 -161 b 920 -170 935 -169 928 -170 b 896 -171 912 -171 904 -171 b 839 -167 878 -171 859 -169 b 776 -157 819 -164 798 -161 b 726 -145 760 -153 743 -149 b 678 -132 709 -141 693 -137 b 596 -106 645 -123 618 -114 b 557 -93 574 -98 561 -94 l 346 -10 b 338 -7 343 -9 341 -8 b 331 -4 336 -6 333 -5 l 330 -4 l 329 -4 b 294 12 316 0 304 6 b 276 42 283 18 277 28 b 283 57 276 47 278 52 b 296 69 287 62 291 66 b 304 76 299 72 301 75 b 311 82 307 78 309 80 b 316 91 314 85 316 88 b 313 100 316 94 315 97 b 310 102 312 101 311 102 l 308 103 b 306 104 307 104 306 104 l 303 104 b 292 101 299 104 295 103 l 281 96 b 275 92 279 94 277 93 b 269 88 273 91 271 89 b 264 83 268 87 266 85 b 258 79 262 81 260 80 b 233 62 250 74 242 68 b 207 43 225 56 216 50 b 198 37 204 41 201 39 b 188 29 195 34 191 32 b 116 -26 161 10 137 -9 b 86 -69 95 -44 85 -58 l 86 -69 l 86 -71 l 86 -71 l 86 -71 b 122 -110 88 -83 100 -96 b 201 -151 143 -124 170 -137 b 245 -169 215 -157 230 -163 b 292 -189 260 -176 276 -182 b 338 -206 307 -194 323 -200 b 382 -224 353 -212 368 -218 b 391 -227 385 -225 388 -226 b 401 -231 394 -228 398 -230 b 447 -248 416 -236 431 -242 b 494 -264 463 -254 479 -259 b 631 -304 543 -280 588 -293 b 725 -321 673 -315 705 -321 l 728 -321 l 731 -321 b 733 -319 731 -320 732 -319 l 736 -319 b 818 -292 768 -313 795 -304 b 885 -250 841 -280 863 -266 b 932 -215 900 -239 916 -227 b 985 -176 948 -202 965 -189 b 1013 -158 994 -171 1003 -165 b 1042 -137 1022 -151 1031 -144 b 1051 -131 1044 -136 1047 -134 b 1060 -124 1054 -129 1057 -126 b 1139 -65 1089 -103 1116 -84 b 1181 -31 1162 -47 1176 -35 b 1201 6 1191 -19 1197 -6 b 1206 43 1204 18 1206 30 l 1206 56 l 1206 68 b 1204 81 1205 73 1204 77 l 1204 96 l 1204 807 l 1204 1031 l 943 1029 b 929 1028 938 1029 934 1029 b 917 1026 925 1028 920 1027 b 908 1024 914 1025 911 1025 b 899 1021 904 1023 901 1022 b 887 1015 894 1019 890 1017 b 878 1008 884 1013 881 1011 b 874 1006 877 1007 876 1007 b 871 1004 873 1006 872 1005 b 866 1000 869 1002 867 1001 b 861 999 865 999 863 999 l 736 921 l 1015 921 l 1015 210 l 1015 172 l 949 133 b 924 121 940 129 932 125 b 900 113 915 117 907 114 b 860 103 887 108 874 105 b 815 101 847 102 832 101 b 717 124 787 101 754 109 b 603 183 680 138 642 158 b 456 302 552 217 503 256 b 344 443 409 348 372 395 b 316 510 332 465 323 488 b 306 574 309 532 306 553 l 306 580 l 306 586 b 310 624 306 600 308 613 b 318 657 313 635 315 646 b 328 683 321 665 324 674 b 340 711 331 691 336 701 l 497 1011 l 274 1021 b 263 1022 270 1022 266 1022 l 254 1022 l 249 1022 l 244 1022 b 232 1022 241 1022 237 1022 b 218 1019 227 1021 223 1020 b 200 1016 212 1019 206 1017 b 185 1010 194 1015 189 1013 b 175 1006 181 1009 178 1008 b 165 1003 172 1005 169 1004 l 28 924 l 322 919 z "},"z":{"ha":1304,"x_min":0,"x_max":0,"o":"m 856 936 l 856 935 b 827 900 845 922 836 910 b 801 869 818 890 810 880 b 799 867 800 869 800 868 b 797 865 799 866 798 865 b 772 834 789 855 780 845 b 742 800 763 823 753 812 b 626 673 701 753 662 710 b 517 565 589 635 553 600 b 510 558 515 563 513 560 b 504 553 508 556 506 555 b 394 445 468 518 431 482 b 276 321 357 409 318 367 b 217 255 255 297 235 275 b 163 194 198 235 180 215 b 151 182 159 191 155 187 b 140 169 148 177 144 173 b 98 119 126 153 112 136 b 53 64 84 102 69 83 b 44 31 41 48 38 37 b 68 21 51 25 59 22 b 78 19 72 20 75 19 l 86 19 l 121 19 b 153 18 132 19 143 19 b 188 17 164 18 175 18 b 226 17 200 17 213 17 b 367 10 277 16 324 13 b 490 -1 409 6 450 2 b 503 -2 495 -1 499 -2 b 517 -4 508 -3 512 -3 b 656 -16 562 -9 608 -13 b 813 -21 703 -19 755 -21 b 935 -15 857 -20 898 -18 b 1044 6 972 -11 1008 -5 b 1093 24 1060 10 1076 16 b 1144 49 1110 31 1127 39 b 1165 60 1151 52 1158 56 b 1186 72 1172 63 1179 68 b 1203 83 1192 76 1197 80 b 1221 94 1209 87 1215 91 b 1253 119 1234 103 1244 111 b 1265 142 1261 128 1265 135 l 1265 142 b 1264 144 1264 143 1264 144 b 1263 147 1264 145 1264 146 l 1263 147 b 1241 142 1260 151 1253 149 b 1196 118 1229 135 1214 127 b 1153 100 1183 112 1169 106 b 1104 89 1138 94 1122 91 b 1020 83 1076 86 1048 84 b 933 81 992 81 963 81 b 749 88 874 81 813 83 b 546 110 686 93 618 100 l 343 132 b 396 191 363 153 380 173 b 443 243 412 209 427 226 b 445 246 444 244 445 245 b 447 247 446 247 446 247 b 495 300 463 265 479 282 b 549 358 511 318 529 337 b 641 453 581 394 612 425 b 725 535 670 482 698 509 l 738 548 l 751 561 b 831 641 777 586 804 613 b 915 736 857 669 886 701 b 974 806 937 761 956 784 b 1024 871 991 828 1008 850 b 1037 888 1028 876 1033 882 b 1050 904 1041 893 1045 899 b 1094 965 1065 924 1080 944 b 1143 1035 1109 987 1125 1010 l 1059 1035 l 985 1035 b 909 1035 960 1035 934 1035 b 825 1038 884 1036 856 1037 b 698 1041 779 1038 736 1040 b 585 1046 659 1042 622 1044 b 474 1052 549 1048 512 1050 b 349 1060 436 1054 394 1057 b 324 1046 339 1055 331 1050 b 301 1033 316 1041 309 1037 b 294 1030 299 1032 296 1031 b 286 1026 291 1028 289 1027 b 268 1017 281 1023 275 1019 b 247 1007 262 1014 255 1011 b 221 994 238 1002 229 998 l 196 983 b 184 978 192 981 188 980 b 172 972 180 976 176 974 b 156 966 167 970 161 968 b 139 961 150 964 144 962 l 850 940 z "},"{":{"ha":411,"x_min":0,"x_max":0,"o":"m 161 524 l 161 522 b 190 535 172 526 182 530 b 214 551 199 539 206 545 b 219 558 216 553 218 555 b 225 564 221 560 223 562 b 237 583 230 569 234 576 b 246 603 240 590 243 596 b 254 639 250 616 252 628 b 257 663 256 650 257 658 l 257 686 l 265 981 b 267 1006 265 987 266 996 b 275 1039 269 1017 271 1028 b 282 1058 277 1045 279 1052 b 292 1075 285 1064 288 1069 b 297 1081 294 1077 295 1079 b 300 1086 298 1082 299 1084 b 322 1106 307 1094 315 1100 b 349 1121 328 1111 338 1116 l 376 1132 l 322 1131 b 255 1121 297 1131 275 1127 b 199 1083 235 1114 216 1102 b 171 1041 186 1070 176 1056 b 160 994 165 1026 162 1010 b 159 984 160 991 159 987 b 158 976 159 981 158 978 l 149 651 l 147 633 b 142 607 146 623 145 614 b 132 585 140 600 137 592 b 127 576 131 582 129 579 b 121 568 125 574 123 571 b 98 547 113 559 106 552 b 72 533 90 541 81 537 b 65 529 69 531 67 530 b 57 528 62 528 60 528 l 39 519 l 57 510 b 66 506 60 509 63 508 b 75 503 69 505 72 504 b 89 495 80 500 84 497 b 103 486 94 493 98 490 b 108 482 105 484 106 483 b 111 478 109 481 110 480 b 117 472 113 476 115 474 b 122 465 119 469 120 467 b 133 442 127 458 131 450 b 138 417 136 434 138 426 l 138 397 l 138 161 l 138 149 l 138 135 l 138 100 l 138 61 b 147 -2 139 39 143 18 b 172 -50 152 -22 160 -38 b 213 -80 185 -63 199 -73 b 256 -96 228 -87 242 -92 b 285 -101 266 -99 276 -100 b 314 -103 295 -102 305 -103 l 357 -103 l 331 -94 b 305 -83 320 -92 312 -88 b 285 -67 298 -79 291 -73 b 280 -61 283 -65 281 -63 b 275 -56 278 -59 277 -57 b 249 -7 261 -40 252 -24 b 243 51 245 10 243 29 l 243 400 b 240 425 243 409 242 418 b 232 446 238 432 236 439 b 226 455 230 449 228 452 b 219 464 223 458 221 461 b 217 467 219 465 218 466 b 214 471 216 469 215 470 b 194 489 207 478 201 484 b 171 501 187 494 179 498 l 167 503 b 163 507 166 504 164 505 l 139 517 z "},"|":{"ha":310,"x_min":0,"x_max":0,"o":"m 110 -360 l 110 -360 l 210 -360 l 210 350 l 210 1032 l 110 1032 l 110 321 z "},"}":{"ha":410,"x_min":0,"x_max":0,"o":"m 271 517 l 271 517 l 247 506 b 244 503 246 505 245 504 b 239 501 242 503 241 502 b 212 486 229 497 220 492 b 190 464 204 481 197 473 b 184 455 188 461 186 458 b 178 446 182 452 180 449 b 169 425 174 439 171 432 b 167 401 168 418 167 410 l 167 50 b 161 -7 167 29 165 10 b 135 -56 157 -24 149 -40 l 127 -63 l 121 -69 b 101 -85 114 -76 108 -81 b 78 -94 95 -88 87 -92 l 51 -103 l 94 -103 b 123 -101 104 -103 113 -102 b 153 -96 133 -100 143 -99 b 196 -80 167 -92 181 -87 b 236 -50 211 -73 224 -63 b 261 -2 248 -38 256 -22 b 271 61 266 18 269 39 l 271 100 l 271 135 l 271 149 l 271 163 l 271 397 l 271 415 b 275 442 271 425 272 434 b 286 465 278 450 281 458 b 292 472 288 467 290 469 b 297 478 294 474 295 476 l 301 482 l 306 486 b 319 495 310 490 315 493 b 333 503 324 497 329 500 b 342 506 336 504 339 505 b 351 511 346 508 349 509 l 369 519 l 353 526 l 344 529 b 338 533 342 530 339 531 b 311 547 327 537 319 541 b 289 568 304 552 296 559 b 283 576 287 571 285 574 b 278 585 280 579 279 582 b 268 607 273 592 270 600 b 264 635 266 614 265 624 l 261 651 l 253 975 b 252 984 253 978 253 981 b 251 994 252 987 251 991 b 240 1041 250 1010 246 1026 b 213 1083 235 1056 225 1070 b 156 1121 195 1102 176 1114 b 89 1132 136 1127 114 1131 l 35 1132 l 63 1119 b 88 1106 73 1116 81 1111 b 108 1088 95 1101 102 1095 b 113 1081 110 1086 112 1084 b 118 1075 115 1079 116 1077 b 128 1058 122 1069 125 1064 b 135 1039 131 1052 133 1045 b 142 1006 138 1028 141 1017 b 144 982 144 996 144 988 l 153 686 l 153 661 b 156 639 153 657 154 650 b 164 603 157 628 160 616 b 173 583 167 596 170 590 b 185 564 176 576 180 569 b 213 538 194 553 203 544 b 249 524 223 532 235 527 z "},"~":{"ha":992,"x_min":0,"x_max":0,"o":"m 50 824 l 50 822 b 48 817 49 821 48 820 b 47 811 47 815 47 813 b 53 799 47 806 49 802 b 78 810 58 797 66 800 b 107 837 88 819 98 828 b 133 861 116 846 125 854 b 179 890 148 873 163 883 b 233 901 195 898 213 901 l 238 901 l 242 901 b 266 899 251 901 259 901 b 288 894 273 898 280 896 l 299 889 b 311 885 302 887 306 886 l 444 811 b 478 794 456 805 468 799 b 510 781 489 789 500 784 b 546 772 522 777 534 774 b 585 768 558 769 571 768 b 601 769 590 768 596 768 b 618 771 607 769 613 770 b 675 785 639 774 658 778 b 724 813 692 792 708 801 b 746 828 731 817 738 822 b 769 849 753 834 761 841 l 876 933 b 892 946 882 938 887 942 b 904 957 896 950 900 953 l 910 963 l 915 968 b 929 981 920 972 925 976 b 944 997 934 986 939 992 b 953 1008 949 1002 952 1006 b 956 1015 955 1011 956 1013 b 947 1022 956 1019 953 1021 b 928 1015 941 1022 934 1020 l 922 1013 b 917 1008 920 1012 919 1010 b 894 990 909 1002 902 996 b 872 974 887 984 880 978 b 797 935 848 957 823 944 b 708 919 771 927 742 921 b 687 918 701 919 694 918 l 667 918 b 646 919 659 918 652 918 b 626 922 639 919 633 920 b 606 927 619 923 612 925 b 585 938 599 929 592 933 l 456 999 b 428 1012 446 1003 437 1008 b 401 1022 419 1016 410 1019 b 374 1029 392 1025 383 1027 b 346 1032 366 1031 356 1032 b 341 1031 344 1032 342 1032 b 336 1031 340 1031 338 1031 b 325 1030 332 1031 329 1030 b 314 1028 321 1029 318 1029 b 273 1014 298 1025 284 1020 b 239 990 261 1007 250 1000 b 223 976 233 986 228 981 b 206 963 218 972 212 967 l 90 861 b 85 856 88 859 87 858 b 79 851 83 855 81 853 b 75 848 77 850 76 849 b 72 844 74 847 73 845 b 63 835 69 842 66 838 b 53 822 60 831 56 827 z "},"":{"ha":343,"x_min":0,"x_max":0,"o":"m 193 550 l 193 549 b 188 564 191 553 189 558 b 183 581 186 569 184 575 b 180 592 182 584 181 588 b 176 603 178 595 177 599 b 167 629 174 613 171 622 b 156 640 164 637 160 640 b 145 573 151 640 147 618 b 139 413 143 528 141 475 b 137 367 138 398 137 382 b 135 319 136 351 136 335 l 132 233 b 128 151 131 205 130 177 b 124 99 127 135 126 117 b 121 44 123 81 122 63 b 120 35 121 41 121 38 b 119 25 120 32 119 29 b 111 -124 117 -27 114 -77 b 107 -231 108 -172 107 -207 l 107 -245 b 108 -253 107 -249 107 -252 b 128 -274 109 -257 116 -264 b 167 -303 140 -283 153 -293 l 169 -305 b 171 -306 169 -305 170 -306 b 187 -317 176 -309 182 -313 b 201 -328 192 -320 197 -324 l 213 -336 b 225 -344 216 -339 220 -342 b 258 -369 236 -354 247 -362 b 281 -379 268 -377 276 -380 b 283 -374 281 -379 282 -378 b 283 -362 283 -371 283 -367 b 278 -277 283 -345 282 -316 b 267 -150 275 -238 271 -195 b 265 -126 267 -142 266 -134 b 263 -101 264 -118 263 -110 b 257 -28 261 -76 259 -52 b 253 40 255 -5 254 18 b 247 146 251 79 249 114 b 242 239 245 177 244 208 b 236 332 240 269 238 300 b 231 438 234 363 232 399 b 222 463 228 447 225 455 l 214 485 b 213 490 214 487 213 488 b 211 494 212 491 211 493 b 202 519 208 503 205 511 b 192 547 199 528 195 537 z m 179 674 l 179 672 b 185 675 181 672 183 673 b 193 681 188 677 190 679 b 197 687 194 682 195 684 b 203 693 199 689 201 691 b 204 695 203 694 203 695 b 206 699 205 696 206 697 l 279 776 l 283 780 l 288 785 l 288 785 l 288 785 b 300 798 292 789 296 794 b 307 808 304 802 306 806 b 303 818 307 811 306 814 b 294 831 301 822 298 826 b 289 835 293 832 291 834 b 283 840 287 837 285 838 b 280 844 282 842 281 844 b 276 849 278 845 277 847 l 190 921 l 188 923 l 186 925 b 184 926 185 925 184 925 l 182 928 b 174 935 179 931 176 933 b 165 938 171 937 168 938 b 160 936 163 938 162 937 b 154 932 158 935 156 934 l 151 929 l 149 926 b 144 923 147 925 145 924 b 142 921 144 922 143 921 l 64 840 l 62 838 l 61 838 l 58 835 l 57 833 b 43 817 51 828 47 822 b 38 800 39 812 38 806 l 38 797 b 39 792 38 795 38 794 b 49 781 40 790 43 786 b 67 764 54 776 60 770 b 69 763 68 764 68 764 l 71 761 b 78 755 73 759 75 757 b 85 750 81 753 83 751 l 143 699 b 148 695 145 698 147 697 l 153 690 b 167 681 157 687 162 683 b 179 676 171 678 175 676 l 181 676 l 181 678 z "},"":{"ha":775,"x_min":0,"x_max":0,"o":"m 535 231 l 535 231 l 601 271 b 620 282 607 275 613 278 b 640 293 627 286 634 289 b 660 306 647 298 653 302 b 679 317 667 309 674 313 b 708 340 691 324 701 332 b 718 363 716 347 719 355 b 693 365 717 370 709 371 b 638 342 677 359 659 351 b 619 333 632 339 626 336 b 600 326 613 331 606 328 b 574 318 592 323 583 320 b 549 314 566 316 557 315 l 545 314 l 542 314 l 538 314 l 533 314 b 512 315 526 314 519 314 b 490 317 505 315 498 316 b 388 344 455 321 421 330 b 301 386 354 357 325 371 b 267 410 288 394 276 403 b 246 432 257 418 250 425 b 222 499 237 445 228 467 b 211 601 215 530 211 564 l 211 613 l 211 624 b 229 717 213 656 219 687 b 281 789 239 747 256 771 b 313 801 288 794 299 799 b 360 806 326 804 342 806 b 394 804 371 806 382 805 b 429 801 405 803 417 802 b 474 794 444 800 459 797 b 515 786 488 792 502 789 b 568 775 537 782 554 779 b 590 769 582 771 589 769 l 738 863 b 715 873 729 866 722 870 b 693 882 708 876 700 879 b 667 892 685 886 676 889 b 638 899 659 894 649 897 b 617 903 630 900 623 902 b 597 907 610 905 604 906 b 575 909 590 908 582 909 b 550 911 568 909 559 910 l 550 1075 l 210 806 b 181 790 208 805 198 799 b 125 742 164 780 145 764 b 65 644 103 718 83 685 b 39 486 48 604 39 551 l 39 480 l 39 472 b 128 267 41 383 70 315 b 332 185 185 220 253 192 l 332 -107 l 533 -26 z "},"":{"ha":875,"x_min":0,"x_max":0,"o":"m 606 419 l 606 418 b 570 417 593 418 581 418 b 539 417 559 417 549 417 b 506 415 528 416 517 415 l 471 415 b 475 428 472 417 473 421 b 481 450 477 434 479 442 b 486 477 482 458 484 467 b 490 506 488 487 489 496 b 491 519 490 510 491 515 b 492 533 491 524 492 529 l 492 536 l 492 539 l 492 540 l 492 543 b 488 573 491 554 489 564 b 481 599 486 582 483 590 b 474 621 479 606 477 613 b 467 646 472 628 469 637 l 421 811 b 415 834 419 819 417 826 b 411 858 413 842 412 850 b 409 883 410 867 409 875 b 408 906 409 891 408 898 b 421 983 408 934 413 960 b 460 1032 429 1006 442 1023 b 466 1035 462 1033 464 1034 b 474 1038 468 1036 471 1037 b 480 1038 475 1038 478 1038 b 486 1039 482 1039 484 1039 b 553 993 511 1038 533 1023 b 596 894 572 963 587 931 b 606 853 600 881 604 867 b 608 814 607 839 608 826 b 593 683 609 760 604 716 b 551 606 582 649 568 623 b 549 601 550 605 550 603 b 547 596 548 600 547 598 b 548 586 546 592 547 589 b 556 582 549 583 552 582 b 563 585 557 583 560 584 b 571 592 565 586 568 588 l 581 602 b 592 611 584 605 588 608 b 594 613 593 611 593 612 b 596 615 594 613 595 614 b 602 620 598 616 600 618 b 608 628 604 622 606 625 l 706 732 l 719 749 b 733 764 724 754 729 759 b 770 827 749 784 761 805 b 785 903 779 849 784 874 l 785 903 l 785 906 l 785 908 l 785 908 b 779 960 785 920 783 938 b 761 1029 775 982 769 1005 b 715 1119 750 1062 734 1092 b 639 1165 695 1147 669 1163 l 636 1165 l 635 1165 l 632 1165 l 629 1165 b 602 1161 620 1165 611 1164 b 576 1150 593 1158 585 1155 b 538 1124 563 1143 550 1134 b 497 1093 525 1113 511 1103 l 475 1076 l 453 1060 b 410 1031 438 1050 424 1040 b 369 1006 396 1022 382 1014 b 301 955 344 990 322 973 b 249 888 281 937 263 914 b 237 853 243 877 239 866 b 233 815 234 841 233 828 l 233 810 l 233 807 b 238 766 234 793 236 779 b 246 729 241 753 243 740 b 252 703 248 719 250 710 b 257 690 254 695 256 691 l 303 539 b 307 526 305 534 306 530 b 311 513 308 522 309 517 b 315 500 312 509 313 505 b 318 486 316 495 317 491 b 320 471 319 481 320 475 b 321 457 321 466 321 462 b 322 446 322 453 322 450 l 322 435 l 322 430 l 322 424 l 322 421 l 322 419 l 204 418 b 190 406 200 413 195 409 l 176 394 l 174 392 b 169 389 173 391 171 390 b 157 378 166 385 162 381 l 143 367 b 126 354 137 362 131 358 b 110 343 121 350 115 347 b 107 341 109 342 108 341 b 104 339 106 341 105 340 b 90 328 100 335 95 331 b 72 318 84 324 79 321 l 308 317 b 295 291 304 307 299 299 b 282 268 291 283 287 275 b 272 251 279 263 276 257 b 263 235 269 246 265 240 b 242 206 256 225 249 216 b 219 175 235 197 228 186 b 213 166 218 172 215 169 b 206 157 210 163 207 160 b 177 125 196 146 187 135 b 149 94 167 115 158 105 b 80 30 125 69 102 48 b 36 -4 58 12 44 0 b 60 -2 44 -3 53 -3 b 83 0 68 -2 76 -1 b 105 1 90 0 97 0 b 129 1 113 1 121 1 l 140 1 b 150 3 143 1 146 2 l 160 3 l 169 3 b 224 1 189 3 207 2 b 275 -1 241 0 258 0 l 276 -1 l 278 -1 b 347 -6 300 -3 323 -5 b 424 -7 370 -6 396 -7 b 596 12 497 -6 554 0 b 710 61 638 23 675 40 b 768 100 729 73 749 86 b 835 147 788 114 810 130 l 824 157 b 804 149 821 156 814 153 b 758 135 794 145 779 140 b 675 119 737 129 709 124 b 547 113 641 115 598 113 b 501 113 532 113 517 113 b 454 115 486 114 470 114 b 385 119 431 116 408 118 b 322 125 363 121 342 123 b 265 131 300 127 281 129 b 233 136 250 134 239 135 b 253 154 241 143 247 149 b 272 171 259 160 266 165 l 278 176 l 285 183 l 300 199 b 317 217 306 204 311 210 b 338 240 324 225 331 233 b 356 260 344 247 350 253 b 363 269 358 263 361 266 b 371 278 366 272 368 275 b 386 299 375 284 381 291 b 404 322 392 306 398 314 l 411 322 l 418 322 l 430 322 l 442 322 b 476 323 454 322 465 322 b 510 325 488 323 499 324 b 557 332 525 327 541 329 b 608 342 573 335 590 338 b 685 362 637 348 663 355 b 751 386 708 369 730 377 b 797 408 766 393 781 400 b 844 433 812 416 828 424 b 783 428 822 431 802 430 b 728 424 765 426 746 425 b 671 421 709 423 690 422 b 607 419 651 420 630 419 z "},"":{"ha":694,"x_min":0,"x_max":0,"o":""},"":{"ha":1388,"x_min":0,"x_max":0,"o":"m 1243 456 l 1243 454 b 1257 455 1248 454 1252 454 b 1269 457 1262 455 1266 456 b 1279 460 1273 458 1276 459 l 1288 463 b 1299 468 1292 464 1296 466 b 1308 475 1303 470 1306 472 b 1312 477 1309 476 1310 477 b 1315 479 1313 478 1314 478 b 1320 483 1317 481 1319 482 b 1325 488 1322 484 1323 486 l 1450 565 l 1206 565 l 1206 1026 l 944 1025 b 931 1024 940 1025 935 1025 b 918 1022 926 1024 922 1023 b 909 1019 915 1021 912 1020 b 900 1017 906 1019 903 1018 b 888 1011 895 1015 891 1013 b 879 1004 885 1009 882 1007 b 876 1002 878 1003 877 1003 b 872 1000 874 1002 873 1001 b 867 996 870 998 869 997 b 863 994 866 995 864 994 l 738 917 l 1017 917 l 1017 564 l 908 563 b 894 562 904 563 899 562 b 882 560 890 561 886 561 b 873 557 879 559 876 558 b 864 554 870 556 867 555 b 852 549 859 552 855 550 b 843 542 849 547 846 544 b 840 540 842 541 841 540 b 836 538 838 539 837 538 b 831 533 834 536 833 534 b 826 532 830 532 828 532 l 697 454 l 1015 454 l 1015 358 l 907 357 b 893 356 902 357 898 357 b 881 354 888 356 884 355 b 872 351 878 353 875 352 b 863 349 868 350 865 350 b 851 343 858 347 854 345 b 842 336 847 341 844 339 b 838 334 841 335 840 334 b 835 332 837 334 836 333 b 830 328 833 330 831 329 b 825 326 828 327 827 326 l 696 249 l 1014 249 l 1014 167 l 947 128 b 922 115 939 123 931 119 b 899 107 914 112 906 109 b 859 98 886 102 872 99 b 814 96 846 97 831 96 b 715 118 785 96 752 103 b 601 178 678 133 640 153 b 455 297 550 211 502 251 b 343 438 408 342 371 389 b 315 504 331 460 322 482 b 304 568 308 526 304 548 l 304 574 l 304 581 b 309 618 305 594 307 607 b 317 651 311 629 314 640 b 326 677 319 660 323 668 b 339 706 330 686 334 695 l 496 1006 l 272 1015 b 262 1017 269 1016 265 1017 l 253 1017 l 248 1017 l 243 1017 b 231 1016 239 1017 235 1016 b 217 1014 226 1016 221 1015 b 199 1010 210 1013 204 1012 b 183 1004 193 1009 188 1007 b 174 1001 180 1003 176 1002 b 164 997 171 999 168 998 l 26 918 l 321 914 l 243 789 b 205 726 229 767 216 746 b 172 668 193 706 182 687 b 138 588 159 642 148 616 b 111 494 127 561 119 530 b 110 488 110 493 110 491 l 110 481 b 146 376 110 454 122 419 b 239 240 170 333 201 288 b 313 155 262 212 287 183 b 393 76 340 127 366 100 b 509 -9 433 41 472 13 b 606 -42 547 -31 579 -42 l 608 -42 l 613 -42 b 615 -40 613 -41 614 -40 l 618 -40 b 674 -31 638 -37 657 -34 b 722 -18 690 -28 706 -24 b 755 -6 733 -14 744 -10 b 789 11 766 -2 777 4 l 1010 128 l 1010 -25 l 1010 -37 b 1008 -49 1010 -41 1009 -45 b 991 -124 1007 -75 1002 -101 b 936 -168 980 -148 962 -162 b 915 -172 930 -170 922 -171 b 890 -172 907 -172 899 -172 b 833 -168 873 -172 854 -171 b 771 -158 813 -165 792 -162 b 720 -147 754 -155 737 -151 b 672 -133 703 -142 687 -138 b 590 -108 640 -124 613 -116 b 551 -94 568 -100 555 -95 l 340 -11 b 333 -8 338 -10 335 -9 b 325 -6 330 -7 328 -6 l 324 -6 l 324 -6 b 288 10 311 -1 299 4 b 271 40 278 16 272 26 b 277 56 271 46 273 51 b 290 68 281 60 286 64 b 299 75 293 71 296 73 b 306 81 301 77 304 79 b 310 90 308 83 310 86 b 307 99 311 93 310 96 b 304 101 306 100 305 100 l 303 101 b 300 103 302 102 301 103 l 297 103 b 286 100 294 103 290 102 l 275 94 b 269 90 273 93 271 91 b 264 86 268 89 266 88 b 258 82 262 85 260 84 b 253 78 256 80 255 79 b 228 60 244 72 236 66 b 201 42 219 54 211 48 b 192 35 199 40 196 38 b 182 28 189 33 186 31 b 110 -27 155 9 131 -9 b 81 -71 90 -45 80 -60 l 81 -71 l 81 -72 l 81 -72 l 81 -72 b 116 -111 82 -84 94 -97 b 196 -153 138 -125 164 -139 b 240 -171 210 -158 224 -164 b 286 -190 255 -177 270 -184 b 333 -208 302 -196 317 -202 b 376 -225 348 -214 363 -219 b 385 -228 379 -226 382 -227 b 396 -232 389 -230 392 -231 b 442 -249 411 -237 426 -243 b 489 -265 457 -255 473 -261 b 625 -306 537 -281 582 -294 b 719 -322 668 -317 699 -322 l 722 -322 l 725 -322 b 728 -321 726 -321 727 -321 l 731 -321 b 813 -293 762 -314 789 -305 b 879 -251 836 -281 858 -267 b 926 -216 895 -240 911 -228 b 979 -178 942 -203 960 -191 b 1007 -160 988 -172 998 -166 b 1035 -139 1016 -153 1025 -146 b 1045 -133 1038 -137 1042 -135 b 1054 -125 1048 -130 1051 -128 b 1133 -67 1084 -105 1110 -85 b 1174 -32 1156 -48 1170 -37 b 1185 -19 1178 -26 1182 -22 l 1192 -12 b 1196 -1 1194 -9 1195 -5 b 1197 22 1197 2 1197 10 l 1197 253 l 1235 251 b 1249 252 1239 251 1244 252 b 1261 254 1253 253 1257 253 b 1271 257 1265 255 1268 256 l 1279 260 b 1291 265 1284 262 1288 263 b 1300 272 1294 267 1297 269 b 1303 274 1301 273 1302 274 b 1307 276 1305 275 1306 275 b 1312 281 1309 278 1310 280 b 1317 285 1313 281 1315 283 l 1442 363 l 1197 363 l 1197 458 z "},"":{"ha":682,"x_min":0,"x_max":0,"o":""},"":{"ha":708,"x_min":0,"x_max":0,"o":"m 133 558 l 133 557 b 116 542 128 552 122 547 b 99 522 110 536 104 530 b 55 461 83 505 68 484 b 35 386 41 438 35 413 l 35 383 b 36 379 35 381 35 380 l 36 376 l 36 372 b 43 324 37 357 39 341 b 74 269 47 306 57 288 b 124 228 86 256 102 242 b 208 192 145 215 173 203 l 260 172 b 371 133 301 157 338 144 b 454 97 403 121 431 109 b 525 49 486 82 509 66 b 549 -11 541 32 549 12 l 549 -16 l 549 -19 b 485 -158 549 -84 528 -130 b 328 -197 443 -185 391 -198 l 300 -197 b 271 -194 291 -197 281 -196 b 244 -189 263 -194 254 -192 b 215 -178 235 -186 225 -182 b 153 -132 193 -167 172 -151 b 125 -68 134 -112 125 -91 l 125 8 l 82 8 l 64 -208 l 75 -215 b 91 -224 80 -218 85 -221 b 111 -233 97 -228 104 -231 b 187 -260 132 -244 158 -253 b 278 -274 216 -268 246 -273 l 281 -274 l 285 -274 l 288 -274 l 292 -274 l 295 -274 l 299 -274 b 313 -273 303 -274 308 -273 b 329 -271 318 -272 324 -272 b 527 -171 400 -259 466 -225 b 638 6 589 -116 625 -57 b 640 22 638 11 639 16 b 642 36 641 27 642 31 l 642 42 l 642 49 b 619 133 642 82 634 110 b 558 193 603 155 583 175 l 551 199 l 581 224 b 596 238 585 227 590 232 b 613 258 601 244 607 251 b 644 308 624 272 634 289 b 661 374 653 328 659 350 l 661 382 l 661 390 b 633 490 661 425 652 458 b 532 568 615 522 581 548 b 523 572 529 569 526 570 b 514 575 520 573 517 574 b 449 597 492 583 470 591 b 397 615 428 604 411 610 l 376 622 l 354 629 b 314 642 346 632 332 636 b 256 665 295 647 276 655 b 182 716 229 678 204 695 b 149 792 160 737 149 762 l 149 797 l 149 801 b 149 806 149 802 149 804 b 150 810 150 807 150 809 b 217 923 159 862 181 899 b 338 958 252 947 292 958 b 362 958 346 958 354 958 b 386 954 370 957 378 956 b 410 949 394 953 403 952 b 435 942 418 947 426 944 b 477 922 450 936 464 929 b 510 896 491 914 501 905 l 515 890 l 528 772 l 571 771 l 569 785 b 571 806 569 788 570 795 b 575 844 572 818 573 831 b 576 858 575 849 575 854 b 578 872 576 863 577 868 b 578 887 578 877 578 882 b 581 901 579 892 580 897 b 581 913 581 905 581 909 b 582 924 582 916 582 920 b 585 956 583 936 584 947 b 588 976 587 966 588 973 l 589 986 l 574 990 b 558 996 571 991 566 993 b 533 1004 551 999 543 1001 l 531 1004 b 529 1006 531 1004 530 1005 b 503 1013 520 1008 511 1011 b 486 1018 494 1016 489 1017 b 482 1020 485 1019 484 1020 b 475 1021 480 1021 478 1021 b 433 1028 465 1024 451 1026 b 376 1031 416 1030 397 1031 l 374 1031 l 371 1031 l 368 1031 l 365 1031 b 160 940 280 1027 212 997 b 72 754 108 884 79 822 b 71 742 71 750 71 746 l 71 728 l 71 725 l 71 724 l 71 721 l 71 718 b 90 643 73 692 79 667 b 133 589 101 619 116 601 l 149 578 z m 565 315 l 565 314 b 559 288 563 305 561 296 b 550 265 557 280 554 273 b 541 251 547 261 544 256 b 531 236 538 246 534 241 l 518 217 l 485 226 b 477 229 482 227 479 228 b 471 231 475 230 473 231 b 426 246 456 236 441 241 b 381 260 412 250 396 255 b 210 326 319 280 262 302 b 129 415 158 350 131 380 l 129 426 l 129 436 b 136 487 129 455 131 472 b 164 533 141 502 150 518 l 186 558 l 446 474 b 518 436 477 463 501 451 b 553 389 535 421 546 406 b 562 362 557 380 560 371 b 564 336 563 353 564 344 l 564 325 b 563 315 564 321 563 318 z "},"":{"ha":728,"x_min":0,"x_max":0,"o":"m 207 1007 l 207 1006 l 203 1009 b 199 1013 202 1010 200 1012 b 189 1022 196 1016 193 1019 b 179 1028 185 1025 182 1027 l 179 1028 l 179 1028 l 178 1028 l 178 1028 b 167 1024 175 1028 172 1026 b 156 1015 163 1021 159 1018 b 154 1013 156 1014 155 1014 b 153 1011 153 1013 153 1012 b 148 1008 151 1010 149 1009 b 144 1006 147 1006 145 1006 l 83 954 b 75 948 81 952 78 950 b 67 940 72 946 69 943 l 64 938 l 61 935 b 42 917 54 928 47 922 b 33 907 36 911 33 908 b 32 903 32 906 32 905 l 32 899 b 36 886 32 894 33 890 b 46 875 39 882 42 879 b 50 872 48 874 49 873 l 53 869 b 58 866 55 869 56 867 b 61 864 59 865 60 864 l 150 771 b 153 767 151 770 152 769 b 157 764 154 766 155 765 l 160 761 l 163 758 b 168 754 164 756 166 755 b 174 753 170 753 172 753 b 180 755 175 753 178 753 b 186 760 182 756 184 758 b 191 763 188 761 190 762 b 194 765 192 763 194 764 l 197 767 b 199 771 197 768 198 769 l 288 860 l 292 865 l 296 868 b 299 872 297 870 298 871 b 303 875 301 873 302 874 b 313 888 306 880 310 884 b 317 899 315 892 317 896 b 312 908 317 901 315 905 b 301 919 309 912 305 916 b 298 924 300 921 299 923 b 294 928 297 925 295 926 b 290 931 293 929 291 930 b 288 935 289 931 288 933 l 207 1010 z m 583 1010 l 583 1008 l 580 1012 b 575 1015 578 1013 577 1014 b 565 1025 572 1019 569 1022 b 556 1031 562 1028 558 1030 l 556 1031 l 556 1031 l 554 1031 l 554 1031 b 544 1026 551 1031 548 1029 b 532 1018 540 1024 536 1021 b 531 1016 532 1017 531 1016 b 529 1014 530 1016 529 1015 b 524 1010 527 1013 526 1012 b 521 1008 523 1009 522 1008 l 460 957 b 451 951 457 955 454 953 b 443 943 449 948 446 946 l 440 940 l 438 938 b 418 919 430 931 424 925 b 410 910 413 914 410 911 b 408 906 409 909 408 908 l 408 901 b 413 889 408 897 410 893 b 422 878 415 885 419 881 b 426 875 424 877 425 876 l 429 872 b 434 869 431 871 433 870 b 438 867 435 867 437 867 l 526 774 b 529 770 527 773 528 772 b 533 767 530 769 531 768 l 536 764 l 539 761 b 544 757 541 759 543 758 b 550 756 546 756 548 756 b 556 758 552 756 554 756 b 563 763 559 759 561 761 b 567 765 564 763 566 764 b 571 768 569 766 570 767 l 573 770 b 575 774 573 771 574 772 l 664 863 l 669 867 l 674 872 l 676 875 l 679 878 b 690 891 683 882 686 887 b 693 901 693 895 694 899 b 688 911 693 904 691 907 b 678 922 685 915 681 919 b 674 926 677 924 676 925 b 671 931 673 927 672 929 b 667 933 669 931 668 932 b 664 938 666 934 665 936 l 583 1013 z "},"":{"ha":1118,"x_min":0,"x_max":0,"o":"m 560 -7 l 560 -7 b 947 153 732 -7 861 47 b 1076 507 1033 260 1076 378 b 947 863 1076 637 1033 755 b 560 1024 861 970 732 1024 b 174 863 388 1024 260 970 b 44 507 88 755 44 637 b 174 153 44 378 88 260 b 560 -7 260 47 388 -7 z m 560 969 l 560 968 b 906 824 714 968 830 920 b 1021 506 983 727 1021 621 b 906 190 1021 391 983 285 b 560 46 830 94 714 46 b 215 190 407 46 292 94 b 100 506 138 285 100 391 b 215 824 100 621 138 727 b 560 969 292 920 407 969 z m 735 692 l 735 692 l 735 642 l 760 642 l 776 764 l 765 767 b 742 773 761 768 753 770 b 706 782 731 776 719 779 b 693 785 701 783 697 784 b 681 788 689 786 685 787 b 669 790 677 788 673 789 b 657 793 665 791 661 792 b 651 794 655 793 653 793 b 644 796 650 794 647 795 b 607 801 634 798 622 799 b 560 803 592 802 576 803 l 544 803 b 528 801 539 803 533 802 b 512 800 522 801 517 801 b 496 797 507 799 501 798 b 478 794 490 796 484 795 b 460 788 471 792 465 790 b 322 697 410 772 364 741 b 258 511 279 652 258 590 b 259 490 258 505 259 497 b 261 467 259 482 260 474 b 360 281 270 388 303 326 b 578 210 416 236 489 213 l 581 210 l 583 210 l 586 210 l 589 210 l 601 210 b 614 211 605 210 609 210 b 666 220 631 213 649 216 b 713 233 683 224 699 229 b 731 241 719 236 725 239 b 747 249 737 243 743 246 l 767 258 l 781 293 l 775 301 l 756 290 b 753 288 755 289 754 289 b 749 288 752 288 750 288 b 688 262 731 278 711 270 b 603 251 666 254 637 250 l 598 251 l 593 251 l 588 251 l 583 251 b 426 318 524 254 472 276 b 347 475 381 360 355 412 b 345 500 346 483 346 492 b 344 525 345 508 344 517 b 385 674 344 580 358 629 b 519 764 412 719 456 749 b 542 767 527 766 534 767 b 564 768 549 768 556 768 b 590 767 573 768 582 768 b 614 764 599 766 606 765 b 626 761 619 763 623 762 b 635 760 630 760 633 760 b 652 756 640 759 646 757 b 671 749 658 754 664 751 b 708 731 684 744 696 738 b 732 708 720 724 728 717 b 734 705 733 707 734 706 b 735 701 734 703 735 702 z "},"":{"ha":940,"x_min":0,"x_max":0,"o":"m 131 317 l 131 315 b 122 308 128 313 125 310 b 114 300 119 305 117 303 l 113 299 l 113 299 b 103 290 110 296 107 293 b 93 282 100 288 97 285 b 88 278 91 281 89 280 b 82 274 86 276 84 275 b 79 272 81 273 80 272 b 76 269 78 271 77 270 b 56 256 69 265 62 260 b 49 246 50 251 48 248 b 55 241 50 243 52 241 b 65 240 58 241 62 240 l 70 240 b 74 242 72 240 73 241 l 785 242 l 832 240 b 840 248 835 243 838 246 b 849 256 843 250 846 253 b 857 263 851 258 854 261 b 865 271 860 266 863 268 b 872 276 867 273 869 275 b 878 282 874 278 876 280 b 880 283 879 282 879 282 l 881 283 l 900 298 b 910 306 906 302 909 305 b 906 313 911 309 909 312 b 896 317 903 315 900 316 l 889 317 l 883 317 l 881 317 b 881 318 881 317 881 317 l 169 318 z m -47 303 l -46 301 b -33 308 -41 304 -37 306 b -19 315 -28 310 -24 313 b 8 333 -9 321 0 327 b 33 353 17 339 25 345 b 55 371 41 358 48 364 b 78 392 62 377 69 384 b 102 417 86 400 94 408 b 124 442 110 425 117 433 b 142 465 130 449 136 457 b 158 492 147 474 153 482 l 250 639 l 553 640 l 668 425 l 675 424 b 692 422 680 424 685 423 b 717 422 699 422 708 422 b 746 421 727 421 737 421 l 751 421 l 757 421 b 792 422 770 421 782 421 b 818 428 803 423 812 425 b 845 441 825 431 834 436 b 879 461 856 446 867 453 b 902 479 887 467 894 473 b 924 500 910 486 917 493 b 916 498 921 499 918 498 b 910 496 914 497 912 497 b 899 493 906 495 903 494 b 888 490 896 492 892 491 b 875 488 883 489 879 489 b 864 488 871 488 868 488 l 853 488 b 840 489 849 488 845 488 l 768 489 l 490 1026 l 378 1026 l 375 1026 l 372 1026 l 369 1026 l 367 1026 b 334 1024 353 1026 342 1025 b 311 1015 326 1022 319 1019 b 299 1008 307 1013 303 1011 b 285 1000 295 1006 290 1003 b 274 994 281 998 277 996 b 264 988 270 991 267 989 b 254 980 260 985 257 982 b 244 971 251 978 248 975 b 238 965 243 969 241 967 b 232 958 236 963 234 961 b 252 961 239 959 246 960 b 271 963 258 962 264 963 b 288 964 276 963 282 964 l 308 964 l 320 964 l 331 964 l 341 964 l 351 964 b 367 962 356 963 361 962 b 383 963 372 961 378 962 l 213 668 l 138 633 l 190 633 l 129 526 b 106 486 120 510 112 496 b 90 458 100 476 95 467 b 88 453 89 456 88 455 b 85 450 87 452 86 451 b 75 434 82 444 79 439 b 61 415 71 429 67 423 b 44 392 56 407 50 399 b 29 372 39 385 34 379 b 15 358 25 368 20 363 b 1 343 11 353 6 348 b -18 322 -4 336 -11 328 b -43 301 -25 315 -34 308 z m 282 682 l 282 682 l 419 901 l 535 682 z "}}}
